# MagicaVoxel @ Ephtracy

# group
o 

# material
mtllib Chicken_Ice.mtl
usemtl palette

# normals
vn -1 0 0
vn 1 0 0
vn 0 0 1
vn 0 0 -1
vn 0 -1 0
vn 0 1 0

# texcoords
vt 0.0683594 0.5
vt 0.0917969 0.5
vt 0.849609 0.5
vt 0.962891 0.5
vt 0.994141 0.5

# verts
v -0.5 0.5 0.4
v -0.5 0.5 -5.96046e-008
v -0.5 0.6 -5.96046e-008
v -0.5 0.6 -0.1
v -0.5 0.7 -0.1
v -0.5 0.7 -0.2
v -0.5 0.8 -0.2
v -0.5 0.8 -0.3
v -0.5 0.9 0.4
v -0.5 0.9 -0.3
v -0.4 0 0.3
v -0.4 0 0.2
v -0.4 0.1 0.3
v -0.4 0.1 0.2
v -0.4 0.4 0.5
v -0.4 0.4 -0.3
v -0.4 0.5 0.4
v -0.4 0.5 -5.96046e-008
v -0.4 0.6 -5.96046e-008
v -0.4 0.6 -0.1
v -0.4 0.7 -0.1
v -0.4 0.7 -0.2
v -0.4 0.8 -0.2
v -0.4 0.8 -0.3
v -0.4 0.9 0.4
v -0.4 0.9 -0.3
v -0.4 1 -0.2
v -0.4 1 -0.3
v -0.4 1.1 -5.96046e-008
v -0.4 1.1 -0.2
v -0.4 1.2 0.5
v -0.4 1.2 -5.96046e-008
v -0.3 0 0.2
v -0.3 0 -0.1
v -0.3 0.1 0.2
v -0.3 0.1 0.1
v -0.3 0.1 -5.96046e-008
v -0.3 0.1 -0.1
v -0.3 0.3 0.4
v -0.3 0.3 0.1
v -0.3 0.3 -5.96046e-008
v -0.3 0.3 -0.3
v -0.3 0.4 0.4
v -0.3 0.4 -0.3
v -0.3 0.4 -0.4
v -0.3 1 -0.2
v -0.3 1 -0.3
v -0.3 1 -0.4
v -0.3 1.1 -5.96046e-008
v -0.3 1.1 -0.1
v -0.3 1.1 -0.2
v -0.3 1.1 -0.3
v -0.3 1.2 0.5
v -0.3 1.2 -5.96046e-008
v -0.3 1.2 -0.1
v -0.3 1.3 0.5
v -0.3 1.3 -5.96046e-008
v -0.2 0 0.3
v -0.2 0 0.2
v -0.2 0.1 0.3
v -0.2 0.1 0.2
v -0.2 0.5 -0.4
v -0.2 0.5 -0.5
v -0.2 0.9 -0.4
v -0.2 0.9 -0.5
v -0.2 1.1 -0.1
v -0.2 1.1 -0.2
v -0.2 1.2 -5.96046e-008
v -0.2 1.2 -0.1
v -0.2 1.2 -0.2
v -0.2 1.3 0.5
v -0.2 1.3 -5.96046e-008
v -0.2 1.3 -0.1
v -0.2 1.4 0.5
v -0.2 1.4 -5.96046e-008
v -0.1 0.7 0.6
v -0.1 0.7 0.5
v -0.1 0.8 0.7
v -0.1 0.8 0.6
v -0.1 0.8 0.5
v -0.1 0.9 0.7
v -0.1 0.9 0.5
v -0.1 1.4 0.4
v -0.1 1.4 -5.96046e-008
v -0.1 1.5 0.4
v -0.1 1.5 -5.96046e-008
v 0.1 0 0.3
v 0.1 0 0.2
v 0.1 0.1 0.3
v 0.1 0.1 0.2
v 0.2 0 0.2
v 0.2 0 -0.1
v 0.2 0.1 0.2
v 0.2 0.1 0.1
v 0.2 0.1 -5.96046e-008
v 0.2 0.1 -0.1
v 0.2 0.3 0.1
v 0.2 0.3 -5.96046e-008
v 0.3 0 0.3
v 0.3 0 0.2
v 0.3 0.1 0.3
v 0.3 0.1 0.2
v -0.3 0 0.3
v -0.3 0 0.2
v -0.3 0.1 0.3
v -0.3 0.1 0.2
v -0.2 0 0.2
v -0.2 0 -0.1
v -0.2 0.1 0.2
v -0.2 0.1 0.1
v -0.2 0.1 -5.96046e-008
v -0.2 0.1 -0.1
v -0.2 0.3 0.1
v -0.2 0.3 -5.96046e-008
v -0.1 0 0.3
v -0.1 0 0.2
v -0.1 0.1 0.3
v -0.1 0.1 0.2
v 0.1 0.7 0.6
v 0.1 0.7 0.5
v 0.1 0.8 0.7
v 0.1 0.8 0.6
v 0.1 0.8 0.5
v 0.1 0.9 0.7
v 0.1 0.9 0.5
v 0.1 1.4 0.4
v 0.1 1.4 -5.96046e-008
v 0.1 1.5 0.4
v 0.1 1.5 -5.96046e-008
v 0.2 0 0.3
v 0.2 0 0.2
v 0.2 0.1 0.3
v 0.2 0.1 0.2
v 0.2 0.5 -0.4
v 0.2 0.5 -0.5
v 0.2 0.9 -0.4
v 0.2 0.9 -0.5
v 0.2 1.1 -0.1
v 0.2 1.1 -0.2
v 0.2 1.2 -5.96046e-008
v 0.2 1.2 -0.1
v 0.2 1.2 -0.2
v 0.2 1.3 0.5
v 0.2 1.3 -5.96046e-008
v 0.2 1.3 -0.1
v 0.2 1.4 0.5
v 0.2 1.4 -5.96046e-008
v 0.3 0 0.2
v 0.3 0 -0.1
v 0.3 0.1 0.2
v 0.3 0.1 0.1
v 0.3 0.1 -5.96046e-008
v 0.3 0.1 -0.1
v 0.3 0.3 0.4
v 0.3 0.3 0.1
v 0.3 0.3 -5.96046e-008
v 0.3 0.3 -0.3
v 0.3 0.4 0.4
v 0.3 0.4 -0.3
v 0.3 0.4 -0.4
v 0.3 1 -0.2
v 0.3 1 -0.3
v 0.3 1 -0.4
v 0.3 1.1 -5.96046e-008
v 0.3 1.1 -0.1
v 0.3 1.1 -0.2
v 0.3 1.1 -0.3
v 0.3 1.2 0.5
v 0.3 1.2 -5.96046e-008
v 0.3 1.2 -0.1
v 0.3 1.3 0.5
v 0.3 1.3 -5.96046e-008
v 0.4 0 0.3
v 0.4 0 0.2
v 0.4 0.1 0.3
v 0.4 0.1 0.2
v 0.4 0.4 0.5
v 0.4 0.4 -0.3
v 0.4 0.5 0.4
v 0.4 0.5 -5.96046e-008
v 0.4 0.6 -5.96046e-008
v 0.4 0.6 -0.1
v 0.4 0.7 -0.1
v 0.4 0.7 -0.2
v 0.4 0.8 -0.2
v 0.4 0.8 -0.3
v 0.4 0.9 0.4
v 0.4 0.9 -0.3
v 0.4 1 -0.2
v 0.4 1 -0.3
v 0.4 1.1 -5.96046e-008
v 0.4 1.1 -0.2
v 0.4 1.2 0.5
v 0.4 1.2 -5.96046e-008
v 0.5 0.5 0.4
v 0.5 0.5 -5.96046e-008
v 0.5 0.6 -5.96046e-008
v 0.5 0.6 -0.1
v 0.5 0.7 -0.1
v 0.5 0.7 -0.2
v 0.5 0.8 -0.2
v 0.5 0.8 -0.3
v 0.5 0.9 0.4
v 0.5 0.9 -0.3
v -0.1 0.8 0.7
v -0.1 0.9 0.7
v 0.1 0.8 0.7
v 0.1 0.9 0.7
v -0.1 0.7 0.6
v -0.1 0.8 0.6
v 0.1 0.7 0.6
v 0.1 0.8 0.6
v -0.4 0.4 0.5
v -0.4 1.2 0.5
v -0.3 1.2 0.5
v -0.3 1.3 0.5
v -0.2 0.9 0.5
v -0.2 1.1 0.5
v -0.2 1.3 0.5
v -0.2 1.4 0.5
v -0.1 0.7 0.5
v -0.1 0.8 0.5
v -0.1 0.9 0.5
v -0.1 1.1 0.5
v 0.1 0.7 0.5
v 0.1 0.8 0.5
v 0.1 0.9 0.5
v 0.1 1.1 0.5
v 0.2 0.9 0.5
v 0.2 1.1 0.5
v 0.2 1.3 0.5
v 0.2 1.4 0.5
v 0.3 1.2 0.5
v 0.3 1.3 0.5
v 0.4 0.4 0.5
v 0.4 1.2 0.5
v -0.5 0.5 0.4
v -0.5 0.9 0.4
v -0.4 0.5 0.4
v -0.4 0.9 0.4
v -0.3 0.3 0.4
v -0.3 0.4 0.4
v -0.1 1.4 0.4
v -0.1 1.5 0.4
v 0.1 1.4 0.4
v 0.1 1.5 0.4
v 0.3 0.3 0.4
v 0.3 0.4 0.4
v 0.4 0.5 0.4
v 0.4 0.9 0.4
v 0.5 0.5 0.4
v 0.5 0.9 0.4
v -0.4 0 0.3
v -0.4 0.1 0.3
v -0.3 0 0.3
v -0.3 0.1 0.3
v -0.2 0 0.3
v -0.2 0.1 0.3
v -0.1 0 0.3
v -0.1 0.1 0.3
v 0.1 0 0.3
v 0.1 0.1 0.3
v 0.2 0 0.3
v 0.2 0.1 0.3
v 0.3 0 0.3
v 0.3 0.1 0.3
v 0.4 0 0.3
v 0.4 0.1 0.3
v -0.3 0 0.2
v -0.3 0.1 0.2
v -0.2 0 0.2
v -0.2 0.1 0.2
v 0.2 0 0.2
v 0.2 0.1 0.2
v 0.3 0 0.2
v 0.3 0.1 0.2
v -0.3 0.1 0.1
v -0.3 0.3 0.1
v -0.2 0.1 0.1
v -0.2 0.3 0.1
v 0.2 0.1 0.1
v 0.2 0.3 0.1
v 0.3 0.1 0.1
v 0.3 0.3 0.1
v -0.4 0 0.2
v -0.4 0.1 0.2
v -0.3 0 0.2
v -0.3 0.1 0.2
v -0.2 0 0.2
v -0.2 0.1 0.2
v -0.1 0 0.2
v -0.1 0.1 0.2
v 0.1 0 0.2
v 0.1 0.1 0.2
v 0.2 0 0.2
v 0.2 0.1 0.2
v 0.3 0 0.2
v 0.3 0.1 0.2
v 0.4 0 0.2
v 0.4 0.1 0.2
v -0.5 0.5 -5.96046e-008
v -0.5 0.6 -5.96046e-008
v -0.4 0.5 -5.96046e-008
v -0.4 0.6 -5.96046e-008
v -0.4 1.1 -5.96046e-008
v -0.4 1.2 -5.96046e-008
v -0.3 0.1 -5.96046e-008
v -0.3 0.3 -5.96046e-008
v -0.3 1.1 -5.96046e-008
v -0.3 1.2 -5.96046e-008
v -0.3 1.3 -5.96046e-008
v -0.2 0.1 -5.96046e-008
v -0.2 0.3 -5.96046e-008
v -0.2 1.2 -5.96046e-008
v -0.2 1.3 -5.96046e-008
v -0.2 1.4 -5.96046e-008
v -0.1 1.4 -5.96046e-008
v -0.1 1.5 -5.96046e-008
v 0.1 1.4 -5.96046e-008
v 0.1 1.5 -5.96046e-008
v 0.2 0.1 -5.96046e-008
v 0.2 0.3 -5.96046e-008
v 0.2 1.2 -5.96046e-008
v 0.2 1.3 -5.96046e-008
v 0.2 1.4 -5.96046e-008
v 0.3 0.1 -5.96046e-008
v 0.3 0.3 -5.96046e-008
v 0.3 1.1 -5.96046e-008
v 0.3 1.2 -5.96046e-008
v 0.3 1.3 -5.96046e-008
v 0.4 0.5 -5.96046e-008
v 0.4 0.6 -5.96046e-008
v 0.4 1.1 -5.96046e-008
v 0.4 1.2 -5.96046e-008
v 0.5 0.5 -5.96046e-008
v 0.5 0.6 -5.96046e-008
v -0.5 0.6 -0.1
v -0.5 0.7 -0.1
v -0.4 0.6 -0.1
v -0.4 0.7 -0.1
v -0.3 0 -0.1
v -0.3 0.1 -0.1
v -0.3 1.1 -0.1
v -0.3 1.2 -0.1
v -0.2 0 -0.1
v -0.2 0.1 -0.1
v -0.2 1.1 -0.1
v -0.2 1.2 -0.1
v -0.2 1.3 -0.1
v 0.2 0 -0.1
v 0.2 0.1 -0.1
v 0.2 1.1 -0.1
v 0.2 1.2 -0.1
v 0.2 1.3 -0.1
v 0.3 0 -0.1
v 0.3 0.1 -0.1
v 0.3 1.1 -0.1
v 0.3 1.2 -0.1
v 0.4 0.6 -0.1
v 0.4 0.7 -0.1
v 0.5 0.6 -0.1
v 0.5 0.7 -0.1
v -0.5 0.7 -0.2
v -0.5 0.8 -0.2
v -0.4 0.7 -0.2
v -0.4 0.8 -0.2
v -0.4 1 -0.2
v -0.4 1.1 -0.2
v -0.3 1 -0.2
v -0.3 1.1 -0.2
v -0.2 1.1 -0.2
v -0.2 1.2 -0.2
v 0.2 1.1 -0.2
v 0.2 1.2 -0.2
v 0.3 1 -0.2
v 0.3 1.1 -0.2
v 0.4 0.7 -0.2
v 0.4 0.8 -0.2
v 0.4 1 -0.2
v 0.4 1.1 -0.2
v 0.5 0.7 -0.2
v 0.5 0.8 -0.2
v -0.5 0.8 -0.3
v -0.5 0.9 -0.3
v -0.4 0.4 -0.3
v -0.4 0.8 -0.3
v -0.4 0.9 -0.3
v -0.4 1 -0.3
v -0.3 0.3 -0.3
v -0.3 0.4 -0.3
v -0.3 1 -0.3
v -0.3 1.1 -0.3
v 0.3 0.3 -0.3
v 0.3 0.4 -0.3
v 0.3 1 -0.3
v 0.3 1.1 -0.3
v 0.4 0.4 -0.3
v 0.4 0.8 -0.3
v 0.4 0.9 -0.3
v 0.4 1 -0.3
v 0.5 0.8 -0.3
v 0.5 0.9 -0.3
v -0.3 0.4 -0.4
v -0.3 1 -0.4
v -0.2 0.5 -0.4
v -0.2 0.9 -0.4
v 0.2 0.5 -0.4
v 0.2 0.9 -0.4
v 0.3 0.4 -0.4
v 0.3 1 -0.4
v -0.2 0.5 -0.5
v -0.2 0.9 -0.5
v 0.2 0.5 -0.5
v 0.2 0.9 -0.5
v -0.4 0 0.3
v -0.3 0 0.3
v -0.2 0 0.3
v -0.1 0 0.3
v 0.1 0 0.3
v 0.2 0 0.3
v 0.3 0 0.3
v 0.4 0 0.3
v -0.4 0 0.2
v -0.3 0 0.2
v -0.2 0 0.2
v -0.1 0 0.2
v 0.1 0 0.2
v 0.2 0 0.2
v 0.3 0 0.2
v 0.4 0 0.2
v -0.3 0 -0.1
v -0.2 0 -0.1
v 0.2 0 -0.1
v 0.3 0 -0.1
v -0.3 0.3 0.4
v 0.3 0.3 0.4
v -0.3 0.3 0.1
v -0.2 0.3 0.1
v 0.2 0.3 0.1
v 0.3 0.3 0.1
v -0.3 0.3 -5.96046e-008
v -0.2 0.3 -5.96046e-008
v 0.2 0.3 -5.96046e-008
v 0.3 0.3 -5.96046e-008
v -0.3 0.3 -0.3
v 0.3 0.3 -0.3
v -0.4 0.4 0.5
v 0.4 0.4 0.5
v -0.3 0.4 0.4
v 0.3 0.4 0.4
v -0.4 0.4 -0.3
v -0.3 0.4 -0.3
v 0.3 0.4 -0.3
v 0.4 0.4 -0.3
v -0.3 0.4 -0.4
v 0.3 0.4 -0.4
v -0.5 0.5 0.4
v -0.4 0.5 0.4
v 0.4 0.5 0.4
v 0.5 0.5 0.4
v -0.5 0.5 -5.96046e-008
v -0.4 0.5 -5.96046e-008
v 0.4 0.5 -5.96046e-008
v 0.5 0.5 -5.96046e-008
v -0.2 0.5 -0.4
v 0.2 0.5 -0.4
v -0.2 0.5 -0.5
v 0.2 0.5 -0.5
v -0.5 0.6 -5.96046e-008
v -0.4 0.6 -5.96046e-008
v 0.4 0.6 -5.96046e-008
v 0.5 0.6 -5.96046e-008
v -0.5 0.6 -0.1
v -0.4 0.6 -0.1
v 0.4 0.6 -0.1
v 0.5 0.6 -0.1
v -0.1 0.7 0.6
v 0.1 0.7 0.6
v -0.1 0.7 0.5
v 0.1 0.7 0.5
v -0.5 0.7 -0.1
v -0.4 0.7 -0.1
v 0.4 0.7 -0.1
v 0.5 0.7 -0.1
v -0.5 0.7 -0.2
v -0.4 0.7 -0.2
v 0.4 0.7 -0.2
v 0.5 0.7 -0.2
v -0.1 0.8 0.7
v 0.1 0.8 0.7
v -0.1 0.8 0.6
v 0.1 0.8 0.6
v -0.5 0.8 -0.2
v -0.4 0.8 -0.2
v 0.4 0.8 -0.2
v 0.5 0.8 -0.2
v -0.5 0.8 -0.3
v -0.4 0.8 -0.3
v 0.4 0.8 -0.3
v 0.5 0.8 -0.3
v -0.4 0.1 0.3
v -0.3 0.1 0.3
v -0.2 0.1 0.3
v -0.1 0.1 0.3
v 0.1 0.1 0.3
v 0.2 0.1 0.3
v 0.3 0.1 0.3
v 0.4 0.1 0.3
v -0.4 0.1 0.2
v -0.3 0.1 0.2
v -0.2 0.1 0.2
v -0.1 0.1 0.2
v 0.1 0.1 0.2
v 0.2 0.1 0.2
v 0.3 0.1 0.2
v 0.4 0.1 0.2
v -0.3 0.1 0.1
v -0.2 0.1 0.1
v 0.2 0.1 0.1
v 0.3 0.1 0.1
v -0.3 0.1 -5.96046e-008
v -0.2 0.1 -5.96046e-008
v 0.2 0.1 -5.96046e-008
v 0.3 0.1 -5.96046e-008
v -0.3 0.1 -0.1
v -0.2 0.1 -0.1
v 0.2 0.1 -0.1
v 0.3 0.1 -0.1
v -0.1 0.9 0.7
v 0.1 0.9 0.7
v -0.1 0.9 0.5
v 0.1 0.9 0.5
v -0.5 0.9 0.4
v -0.4 0.9 0.4
v 0.4 0.9 0.4
v 0.5 0.9 0.4
v -0.5 0.9 -0.3
v -0.4 0.9 -0.3
v 0.4 0.9 -0.3
v 0.5 0.9 -0.3
v -0.2 0.9 -0.4
v 0.2 0.9 -0.4
v -0.2 0.9 -0.5
v 0.2 0.9 -0.5
v -0.4 1 -0.2
v -0.3 1 -0.2
v 0.3 1 -0.2
v 0.4 1 -0.2
v -0.4 1 -0.3
v -0.3 1 -0.3
v 0.3 1 -0.3
v 0.4 1 -0.3
v -0.3 1 -0.4
v 0.3 1 -0.4
v -0.4 1.1 -5.96046e-008
v -0.3 1.1 -5.96046e-008
v 0.3 1.1 -5.96046e-008
v 0.4 1.1 -5.96046e-008
v -0.3 1.1 -0.1
v -0.2 1.1 -0.1
v 0.2 1.1 -0.1
v 0.3 1.1 -0.1
v -0.4 1.1 -0.2
v -0.3 1.1 -0.2
v -0.2 1.1 -0.2
v 0.2 1.1 -0.2
v 0.3 1.1 -0.2
v 0.4 1.1 -0.2
v -0.3 1.1 -0.3
v 0.3 1.1 -0.3
v -0.4 1.2 0.5
v -0.3 1.2 0.5
v 0.3 1.2 0.5
v 0.4 1.2 0.5
v -0.4 1.2 -5.96046e-008
v -0.3 1.2 -5.96046e-008
v -0.2 1.2 -5.96046e-008
v 0.2 1.2 -5.96046e-008
v 0.3 1.2 -5.96046e-008
v 0.4 1.2 -5.96046e-008
v -0.3 1.2 -0.1
v -0.2 1.2 -0.1
v 0.2 1.2 -0.1
v 0.3 1.2 -0.1
v -0.2 1.2 -0.2
v 0.2 1.2 -0.2
v -0.3 1.3 0.5
v -0.2 1.3 0.5
v 0.2 1.3 0.5
v 0.3 1.3 0.5
v -0.3 1.3 -5.96046e-008
v -0.2 1.3 -5.96046e-008
v 0.2 1.3 -5.96046e-008
v 0.3 1.3 -5.96046e-008
v -0.2 1.3 -0.1
v 0.2 1.3 -0.1
v -0.2 1.4 0.5
v 0.2 1.4 0.5
v -0.1 1.4 0.4
v 0.1 1.4 0.4
v -0.2 1.4 -5.96046e-008
v -0.1 1.4 -5.96046e-008
v 0.1 1.4 -5.96046e-008
v 0.2 1.4 -5.96046e-008
v -0.1 1.5 0.4
v 0.1 1.5 0.4
v -0.1 1.5 -5.96046e-008
v 0.1 1.5 -5.96046e-008

# faces
f 3/4/1 2/4/1 1/4/1
f 5/4/1 4/4/1 3/4/1
f 7/4/1 6/4/1 5/4/1
f 9/4/1 3/4/1 1/4/1
f 9/4/1 8/4/1 7/4/1
f 9/4/1 7/4/1 5/4/1
f 9/4/1 5/4/1 3/4/1
f 10/4/1 8/4/1 9/4/1
f 13/1/1 12/1/1 11/1/1
f 14/1/1 12/1/1 13/1/1
f 17/4/1 16/4/1 15/4/1
f 18/4/1 16/4/1 17/4/1
f 19/4/1 16/4/1 18/4/1
f 20/4/1 16/4/1 19/4/1
f 21/4/1 16/4/1 20/4/1
f 22/4/1 16/4/1 21/4/1
f 23/4/1 16/4/1 22/4/1
f 24/4/1 16/4/1 23/4/1
f 25/4/1 17/4/1 15/4/1
f 27/4/1 26/4/1 25/4/1
f 28/4/1 26/4/1 27/4/1
f 29/4/1 27/4/1 25/4/1
f 30/4/1 27/4/1 29/4/1
f 31/4/1 25/4/1 15/4/1
f 31/4/1 29/4/1 25/4/1
f 32/4/1 29/4/1 31/4/1
f 35/1/1 34/1/1 33/1/1
f 36/1/1 34/1/1 35/1/1
f 37/1/1 34/1/1 36/1/1
f 38/1/1 34/1/1 37/1/1
f 40/1/1 37/1/1 36/1/1
f 41/1/1 37/1/1 40/1/1
f 43/4/1 41/4/1 40/4/1
f 43/4/1 42/4/1 41/4/1
f 43/4/1 40/4/1 39/4/1
f 44/4/1 42/4/1 43/4/1
f 47/4/1 45/4/1 44/4/1
f 48/4/1 45/4/1 47/4/1
f 51/4/1 47/4/1 46/4/1
f 52/4/1 47/4/1 51/4/1
f 54/4/1 50/4/1 49/4/1
f 55/4/1 50/4/1 54/4/1
f 56/4/1 54/4/1 53/4/1
f 57/4/1 54/4/1 56/4/1
f 60/1/1 59/1/1 58/1/1
f 61/1/1 59/1/1 60/1/1
f 64/4/1 63/4/1 62/4/1
f 65/4/1 63/4/1 64/4/1
f 69/4/1 67/4/1 66/4/1
f 70/4/1 67/4/1 69/4/1
f 72/4/1 69/4/1 68/4/1
f 73/4/1 69/4/1 72/4/1
f 74/4/1 72/4/1 71/4/1
f 75/4/1 72/4/1 74/4/1
f 79/3/1 77/3/1 76/3/1
f 80/3/1 77/3/1 79/3/1
f 81/2/1 79/2/1 78/2/1
f 81/2/1 80/2/1 79/2/1
f 82/2/1 80/2/1 81/2/1
f 85/3/1 84/3/1 83/3/1
f 86/3/1 84/3/1 85/3/1
f 89/1/1 88/1/1 87/1/1
f 90/1/1 88/1/1 89/1/1
f 93/1/1 92/1/1 91/1/1
f 94/1/1 92/1/1 93/1/1
f 95/1/1 92/1/1 94/1/1
f 96/1/1 92/1/1 95/1/1
f 97/1/1 95/1/1 94/1/1
f 98/1/1 95/1/1 97/1/1
f 101/1/1 100/1/1 99/1/1
f 102/1/1 100/1/1 101/1/1
f 103/1/2 104/1/2 105/1/2
f 105/1/2 104/1/2 106/1/2
f 107/1/2 108/1/2 109/1/2
f 109/1/2 108/1/2 110/1/2
f 110/1/2 108/1/2 111/1/2
f 111/1/2 108/1/2 112/1/2
f 110/1/2 111/1/2 113/1/2
f 113/1/2 111/1/2 114/1/2
f 115/1/2 116/1/2 117/1/2
f 117/1/2 116/1/2 118/1/2
f 119/3/2 120/3/2 122/3/2
f 122/3/2 120/3/2 123/3/2
f 121/2/2 122/2/2 124/2/2
f 122/2/2 123/2/2 124/2/2
f 124/2/2 123/2/2 125/2/2
f 126/3/2 127/3/2 128/3/2
f 128/3/2 127/3/2 129/3/2
f 130/1/2 131/1/2 132/1/2
f 132/1/2 131/1/2 133/1/2
f 134/4/2 135/4/2 136/4/2
f 136/4/2 135/4/2 137/4/2
f 138/4/2 139/4/2 141/4/2
f 141/4/2 139/4/2 142/4/2
f 140/4/2 141/4/2 144/4/2
f 144/4/2 141/4/2 145/4/2
f 143/4/2 144/4/2 146/4/2
f 146/4/2 144/4/2 147/4/2
f 148/1/2 149/1/2 150/1/2
f 150/1/2 149/1/2 151/1/2
f 151/1/2 149/1/2 152/1/2
f 152/1/2 149/1/2 153/1/2
f 151/1/2 152/1/2 155/1/2
f 155/1/2 152/1/2 156/1/2
f 155/4/2 156/4/2 158/4/2
f 156/4/2 157/4/2 158/4/2
f 154/4/2 155/4/2 158/4/2
f 158/4/2 157/4/2 159/4/2
f 159/4/2 160/4/2 162/4/2
f 162/4/2 160/4/2 163/4/2
f 161/4/2 162/4/2 166/4/2
f 166/4/2 162/4/2 167/4/2
f 164/4/2 165/4/2 169/4/2
f 169/4/2 165/4/2 170/4/2
f 168/4/2 169/4/2 171/4/2
f 171/4/2 169/4/2 172/4/2
f 173/1/2 174/1/2 175/1/2
f 175/1/2 174/1/2 176/1/2
f 177/4/2 178/4/2 179/4/2
f 179/4/2 178/4/2 180/4/2
f 180/4/2 178/4/2 181/4/2
f 181/4/2 178/4/2 182/4/2
f 182/4/2 178/4/2 183/4/2
f 183/4/2 178/4/2 184/4/2
f 184/4/2 178/4/2 185/4/2
f 185/4/2 178/4/2 186/4/2
f 177/4/2 179/4/2 187/4/2
f 187/4/2 188/4/2 189/4/2
f 189/4/2 188/4/2 190/4/2
f 187/4/2 189/4/2 191/4/2
f 191/4/2 189/4/2 192/4/2
f 177/4/2 187/4/2 193/4/2
f 187/4/2 191/4/2 193/4/2
f 193/4/2 191/4/2 194/4/2
f 195/4/2 196/4/2 197/4/2
f 197/4/2 198/4/2 199/4/2
f 199/4/2 200/4/2 201/4/2
f 195/4/2 197/4/2 203/4/2
f 201/4/2 202/4/2 203/4/2
f 199/4/2 201/4/2 203/4/2
f 197/4/2 199/4/2 203/4/2
f 203/4/2 202/4/2 204/4/2
f 207/2/3 206/2/3 205/2/3
f 208/2/3 206/2/3 207/2/3
f 211/3/3 210/3/3 209/3/3
f 212/3/3 210/3/3 211/3/3
f 215/4/3 214/4/3 213/4/3
f 217/4/3 215/4/3 213/4/3
f 217/4/3 216/4/3 215/4/3
f 218/4/3 216/4/3 217/4/3
f 219/4/3 216/4/3 218/4/3
f 221/4/3 217/4/3 213/4/3
f 222/4/3 217/4/3 221/4/3
f 223/5/3 218/5/3 217/5/3
f 223/4/3 217/4/3 222/4/3
f 224/4/3 220/4/3 219/4/3
f 224/5/3 218/5/3 223/5/3
f 224/4/3 219/4/3 218/4/3
f 225/4/3 221/4/3 213/4/3
f 227/4/3 224/4/3 223/4/3
f 228/4/3 220/4/3 224/4/3
f 228/4/3 224/4/3 227/4/3
f 229/4/3 227/4/3 226/4/3
f 229/4/3 226/4/3 225/4/3
f 229/5/3 228/5/3 227/5/3
f 230/4/3 220/4/3 228/4/3
f 230/5/3 228/5/3 229/5/3
f 231/4/3 220/4/3 230/4/3
f 232/4/3 220/4/3 231/4/3
f 233/4/3 230/4/3 229/4/3
f 233/4/3 231/4/3 230/4/3
f 234/4/3 231/4/3 233/4/3
f 235/4/3 229/4/3 225/4/3
f 235/4/3 225/4/3 213/4/3
f 235/4/3 233/4/3 229/4/3
f 236/4/3 233/4/3 235/4/3
f 239/4/3 238/4/3 237/4/3
f 240/4/3 238/4/3 239/4/3
f 245/3/3 244/3/3 243/3/3
f 246/3/3 244/3/3 245/3/3
f 247/4/3 242/4/3 241/4/3
f 248/4/3 242/4/3 247/4/3
f 251/4/3 250/4/3 249/4/3
f 252/4/3 250/4/3 251/4/3
f 255/1/3 254/1/3 253/1/3
f 256/1/3 254/1/3 255/1/3
f 259/1/3 258/1/3 257/1/3
f 260/1/3 258/1/3 259/1/3
f 263/1/3 262/1/3 261/1/3
f 264/1/3 262/1/3 263/1/3
f 267/1/3 266/1/3 265/1/3
f 268/1/3 266/1/3 267/1/3
f 271/1/3 270/1/3 269/1/3
f 272/1/3 270/1/3 271/1/3
f 275/1/3 274/1/3 273/1/3
f 276/1/3 274/1/3 275/1/3
f 279/1/3 278/1/3 277/1/3
f 280/1/3 278/1/3 279/1/3
f 283/1/3 282/1/3 281/1/3
f 284/1/3 282/1/3 283/1/3
f 285/1/4 286/1/4 287/1/4
f 287/1/4 286/1/4 288/1/4
f 289/1/4 290/1/4 291/1/4
f 291/1/4 290/1/4 292/1/4
f 293/1/4 294/1/4 295/1/4
f 295/1/4 294/1/4 296/1/4
f 297/1/4 298/1/4 299/1/4
f 299/1/4 298/1/4 300/1/4
f 301/4/4 302/4/4 303/4/4
f 303/4/4 302/4/4 304/4/4
f 305/4/4 306/4/4 309/4/4
f 309/4/4 306/4/4 310/4/4
f 307/1/4 308/1/4 312/1/4
f 312/1/4 308/1/4 313/1/4
f 310/4/4 311/4/4 314/4/4
f 314/4/4 311/4/4 315/4/4
f 315/4/4 316/4/4 317/4/4
f 315/4/4 317/4/4 319/4/4
f 317/3/4 318/3/4 319/3/4
f 319/3/4 318/3/4 320/3/4
f 315/4/4 319/4/4 324/4/4
f 324/4/4 319/4/4 325/4/4
f 321/1/4 322/1/4 326/1/4
f 326/1/4 322/1/4 327/1/4
f 323/4/4 324/4/4 329/4/4
f 329/4/4 324/4/4 330/4/4
f 328/4/4 329/4/4 333/4/4
f 333/4/4 329/4/4 334/4/4
f 331/4/4 332/4/4 335/4/4
f 335/4/4 332/4/4 336/4/4
f 337/4/4 338/4/4 339/4/4
f 339/4/4 338/4/4 340/4/4
f 341/1/4 342/1/4 345/1/4
f 345/1/4 342/1/4 346/1/4
f 343/4/4 344/4/4 347/4/4
f 347/4/4 344/4/4 348/4/4
f 348/4/4 349/4/4 353/4/4
f 353/4/4 349/4/4 354/4/4
f 350/1/4 351/1/4 355/1/4
f 355/1/4 351/1/4 356/1/4
f 352/4/4 353/4/4 357/4/4
f 357/4/4 353/4/4 358/4/4
f 359/4/4 360/4/4 361/4/4
f 361/4/4 360/4/4 362/4/4
f 363/4/4 364/4/4 365/4/4
f 365/4/4 364/4/4 366/4/4
f 367/4/4 368/4/4 369/4/4
f 369/4/4 368/4/4 370/4/4
f 371/4/4 372/4/4 373/4/4
f 373/4/4 372/4/4 374/4/4
f 375/4/4 376/4/4 379/4/4
f 379/4/4 376/4/4 380/4/4
f 377/4/4 378/4/4 381/4/4
f 381/4/4 378/4/4 382/4/4
f 383/4/4 384/4/4 386/4/4
f 386/4/4 384/4/4 387/4/4
f 385/4/4 386/4/4 390/4/4
f 387/4/4 388/4/4 390/4/4
f 386/4/4 387/4/4 390/4/4
f 390/4/4 388/4/4 391/4/4
f 389/4/4 390/4/4 393/4/4
f 393/4/4 390/4/4 394/4/4
f 391/4/4 392/4/4 395/4/4
f 395/4/4 392/4/4 396/4/4
f 394/4/4 395/4/4 397/4/4
f 397/4/4 395/4/4 398/4/4
f 398/4/4 395/4/4 399/4/4
f 399/4/4 395/4/4 400/4/4
f 398/4/4 399/4/4 401/4/4
f 401/4/4 399/4/4 402/4/4
f 403/4/4 404/4/4 405/4/4
f 405/4/4 404/4/4 406/4/4
f 403/4/4 405/4/4 407/4/4
f 406/4/4 404/4/4 408/4/4
f 403/4/4 407/4/4 409/4/4
f 407/4/4 408/4/4 409/4/4
f 408/4/4 404/4/4 410/4/4
f 409/4/4 408/4/4 410/4/4
f 411/4/4 412/4/4 413/4/4
f 413/4/4 412/4/4 414/4/4
f 423/1/5 416/1/5 415/1/5
f 424/1/5 416/1/5 423/1/5
f 425/1/5 418/1/5 417/1/5
f 426/1/5 418/1/5 425/1/5
f 427/1/5 420/1/5 419/1/5
f 428/1/5 420/1/5 427/1/5
f 429/1/5 422/1/5 421/1/5
f 430/1/5 422/1/5 429/1/5
f 431/1/5 425/1/5 424/1/5
f 432/1/5 425/1/5 431/1/5
f 433/1/5 429/1/5 428/1/5
f 434/1/5 429/1/5 433/1/5
f 437/4/5 436/4/5 435/4/5
f 438/4/5 436/4/5 437/4/5
f 439/4/5 436/4/5 438/4/5
f 440/4/5 436/4/5 439/4/5
f 442/4/5 439/4/5 438/4/5
f 443/4/5 439/4/5 442/4/5
f 445/4/5 442/4/5 441/4/5
f 445/4/5 444/4/5 443/4/5
f 445/4/5 443/4/5 442/4/5
f 446/4/5 444/4/5 445/4/5
f 449/4/5 448/4/5 447/4/5
f 450/4/5 448/4/5 449/4/5
f 451/4/5 449/4/5 447/4/5
f 452/4/5 449/4/5 451/4/5
f 453/4/5 448/4/5 450/4/5
f 454/4/5 448/4/5 453/4/5
f 455/4/5 453/4/5 452/4/5
f 456/4/5 453/4/5 455/4/5
f 461/4/5 458/4/5 457/4/5
f 462/4/5 458/4/5 461/4/5
f 463/4/5 460/4/5 459/4/5
f 464/4/5 460/4/5 463/4/5
f 467/4/5 466/4/5 465/4/5
f 468/4/5 466/4/5 467/4/5
f 473/4/5 470/4/5 469/4/5
f 474/4/5 470/4/5 473/4/5
f 475/4/5 472/4/5 471/4/5
f 476/4/5 472/4/5 475/4/5
f 479/3/5 478/3/5 477/3/5
f 480/3/5 478/3/5 479/3/5
f 485/4/5 482/4/5 481/4/5
f 486/4/5 482/4/5 485/4/5
f 487/4/5 484/4/5 483/4/5
f 488/4/5 484/4/5 487/4/5
f 491/2/5 490/2/5 489/2/5
f 492/2/5 490/2/5 491/2/5
f 497/4/5 494/4/5 493/4/5
f 498/4/5 494/4/5 497/4/5
f 499/4/5 496/4/5 495/4/5
f 500/4/5 496/4/5 499/4/5
f 501/1/6 502/1/6 509/1/6
f 509/1/6 502/1/6 510/1/6
f 503/1/6 504/1/6 511/1/6
f 511/1/6 504/1/6 512/1/6
f 505/1/6 506/1/6 513/1/6
f 513/1/6 506/1/6 514/1/6
f 507/1/6 508/1/6 515/1/6
f 515/1/6 508/1/6 516/1/6
f 510/1/6 511/1/6 517/1/6
f 517/1/6 511/1/6 518/1/6
f 514/1/6 515/1/6 519/1/6
f 519/1/6 515/1/6 520/1/6
f 521/1/6 522/1/6 525/1/6
f 525/1/6 522/1/6 526/1/6
f 523/1/6 524/1/6 527/1/6
f 527/1/6 524/1/6 528/1/6
f 529/2/6 530/2/6 531/2/6
f 531/2/6 530/2/6 532/2/6
f 533/4/6 534/4/6 537/4/6
f 537/4/6 534/4/6 538/4/6
f 535/4/6 536/4/6 539/4/6
f 539/4/6 536/4/6 540/4/6
f 541/4/6 542/4/6 543/4/6
f 543/4/6 542/4/6 544/4/6
f 545/4/6 546/4/6 549/4/6
f 549/4/6 546/4/6 550/4/6
f 547/4/6 548/4/6 551/4/6
f 551/4/6 548/4/6 552/4/6
f 550/4/6 551/4/6 553/4/6
f 553/4/6 551/4/6 554/4/6
f 555/4/6 556/4/6 559/4/6
f 557/4/6 558/4/6 562/4/6
f 559/4/6 560/4/6 563/4/6
f 555/4/6 559/4/6 563/4/6
f 563/4/6 560/4/6 564/4/6
f 564/4/6 560/4/6 565/4/6
f 561/4/6 562/4/6 566/4/6
f 562/4/6 558/4/6 567/4/6
f 566/4/6 562/4/6 567/4/6
f 567/4/6 558/4/6 568/4/6
f 564/4/6 565/4/6 569/4/6
f 565/4/6 566/4/6 569/4/6
f 566/4/6 567/4/6 569/4/6
f 569/4/6 567/4/6 570/4/6
f 571/4/6 572/4/6 575/4/6
f 575/4/6 572/4/6 576/4/6
f 573/4/6 574/4/6 579/4/6
f 579/4/6 574/4/6 580/4/6
f 576/4/6 577/4/6 581/4/6
f 581/4/6 577/4/6 582/4/6
f 578/4/6 579/4/6 583/4/6
f 583/4/6 579/4/6 584/4/6
f 582/4/6 583/4/6 585/4/6
f 585/4/6 583/4/6 586/4/6
f 587/4/6 588/4/6 591/4/6
f 591/4/6 588/4/6 592/4/6
f 589/4/6 590/4/6 593/4/6
f 593/4/6 590/4/6 594/4/6
f 592/4/6 593/4/6 595/4/6
f 595/4/6 593/4/6 596/4/6
f 597/4/6 598/4/6 599/4/6
f 599/4/6 598/4/6 600/4/6
f 597/4/6 599/4/6 601/4/6
f 601/4/6 599/4/6 602/4/6
f 600/4/6 598/4/6 603/4/6
f 603/4/6 598/4/6 604/4/6
f 605/3/6 606/3/6 607/3/6
f 607/3/6 606/3/6 608/3/6
