# MagicaVoxel @ Ephtracy

# group
o 

# material
mtllib Bull_Fire.mtl
usemtl palette

# normals
vn -1 0 0
vn 1 0 0
vn 0 0 1
vn 0 0 -1
vn 0 -1 0
vn 0 1 0

# texcoords
vt 0.0839844 0.5
vt 0.849609 0.5
vt 0.958984 0.5
vt 0.966797 0.5
vt 0.978516 0.5
vt 0.990234 0.5
vt 0.994141 0.5

# verts
v -0.9 1.6 0.3
v -0.9 1.6 0.2
v -0.9 1.9 0.3
v -0.9 1.9 0.2
v -0.9 2 0.3
v -0.9 2 0.2
v -0.7 1.5 0.2
v -0.7 1.5 0.0999999
v -0.7 1.6 0.2
v -0.7 1.6 0.0999999
v -0.6 0 0.3
v -0.6 0 -5.96046e-008
v -0.6 0 -0.7
v -0.6 0 -1
v -0.6 0.1 0.3
v -0.6 0.1 -5.96046e-008
v -0.6 0.1 -0.7
v -0.6 0.1 -1
v -0.6 0.5 -5.96046e-008
v -0.6 0.5 -0.7
v -0.6 0.9 0.3
v -0.6 0.9 -1
v -0.5 0.9 0.3
v -0.5 0.9 -0.9
v -0.5 1 0.3
v -0.5 1 -0.9
v -0.5 1.1 0.4
v -0.5 1.1 -0.2
v -0.5 1.5 0.2
v -0.5 1.5 0.0999999
v -0.5 1.6 0.3
v -0.5 1.6 0.2
v -0.5 1.6 0.0999999
v -0.5 1.7 0.3
v -0.5 1.7 0.2
v -0.5 1.8 0.4
v -0.5 1.8 -0.2
v -0.4 0.9 0.4
v -0.4 0.9 0.3
v -0.4 1 0.3
v -0.4 1 -0.8
v -0.4 1.1 0.4
v -0.4 1.1 -0.2
v -0.4 1.1 -0.8
v -0.4 1.8 0.4
v -0.4 1.8 0.3
v -0.4 1.9 0.4
v -0.4 1.9 0.3
v -0.3 1.2 0.5
v -0.3 1.2 0.4
v -0.3 1.5 0.5
v -0.3 1.5 0.4
v -0.2 1.1 0.6
v -0.2 1.1 0.5
v -0.2 1.2 0.5
v -0.2 1.3 0.6
v -0.2 1.3 0.5
v -0.1 1 -1
v -0.1 1 -1.1
v -0.1 1.1 -1.1
v -0.1 1.1 -1.2
v -0.1 1.2 -1
v -0.1 1.2 -1.1
v -0.1 1.2 -1.2
v -0.1 1.3 0.5
v -0.1 1.3 0.4
v -0.1 1.3 -1.1
v -0.1 1.3 -1.2
v -0.1 1.4 0.5
v -0.1 1.4 0.4
v 0 0.9 -0.9
v 0 0.9 -1
v 0 1 -0.9
v 0 1 -1
v 0 1.1 -0.9
v 0 1.1 -1
v 0.1 1.2 0.6
v 0.1 1.2 0.5
v 0.1 1.3 0.6
v 0.1 1.3 0.5
v 0.2 1.3 0.5
v 0.2 1.3 0.4
v 0.2 1.4 0.5
v 0.2 1.4 0.4
v 0.4 0 0.3
v 0.4 0 -5.96046e-008
v 0.4 0 -0.7
v 0.4 0 -1
v 0.4 0.1 0.3
v 0.4 0.1 -5.96046e-008
v 0.4 0.1 -0.7
v 0.4 0.1 -1
v 0.4 0.5 0.3
v 0.4 0.5 -5.96046e-008
v 0.4 0.5 -0.7
v 0.4 0.5 -1
v 0.8 1.7 0.3
v 0.8 1.7 0.2
v 0.8 1.9 0.3
v 0.8 1.9 0.2
v 0.8 2 0.3
v 0.8 2 0.2
v -0.8 1.7 0.3
v -0.8 1.7 0.2
v -0.8 1.9 0.3
v -0.8 1.9 0.2
v -0.8 2 0.3
v -0.8 2 0.2
v -0.4 0 0.3
v -0.4 0 -5.96046e-008
v -0.4 0 -0.7
v -0.4 0 -1
v -0.4 0.1 0.3
v -0.4 0.1 -5.96046e-008
v -0.4 0.1 -0.7
v -0.4 0.1 -1
v -0.4 0.5 0.3
v -0.4 0.5 -5.96046e-008
v -0.4 0.5 -0.7
v -0.4 0.5 -1
v -0.2 1.3 0.5
v -0.2 1.3 0.4
v -0.2 1.4 0.5
v -0.2 1.4 0.4
v -0.1 1.2 0.6
v -0.1 1.2 0.5
v -0.1 1.3 0.6
v -0.1 1.3 0.5
v 0 1.1 -1
v 0 1.1 -1.1
v 0 1.1 -1.2
v 0 1.2 -1
v 0 1.2 -1.1
v 0 1.2 -1.2
v 0 1.3 -1.1
v 0 1.3 -1.2
v 0.1 0.9 -0.9
v 0.1 0.9 -1
v 0.1 1 -0.9
v 0.1 1 -1
v 0.1 1 -1.1
v 0.1 1.1 -0.9
v 0.1 1.1 -1.1
v 0.1 1.3 0.5
v 0.1 1.3 0.4
v 0.1 1.4 0.5
v 0.1 1.4 0.4
v 0.2 1.1 0.6
v 0.2 1.1 0.5
v 0.2 1.2 0.5
v 0.2 1.3 0.6
v 0.2 1.3 0.5
v 0.3 1.2 0.5
v 0.3 1.2 0.4
v 0.3 1.5 0.5
v 0.3 1.5 0.4
v 0.4 0.9 0.4
v 0.4 0.9 0.3
v 0.4 1 0.3
v 0.4 1 -0.8
v 0.4 1.1 0.4
v 0.4 1.1 -0.2
v 0.4 1.1 -0.8
v 0.4 1.8 0.4
v 0.4 1.8 0.3
v 0.4 1.9 0.4
v 0.4 1.9 0.3
v 0.5 0.9 0.3
v 0.5 0.9 -0.9
v 0.5 1 0.3
v 0.5 1 -0.9
v 0.5 1.1 0.4
v 0.5 1.1 -0.2
v 0.5 1.5 0.2
v 0.5 1.5 0.0999999
v 0.5 1.6 0.3
v 0.5 1.6 0.2
v 0.5 1.6 0.0999999
v 0.5 1.7 0.3
v 0.5 1.7 0.2
v 0.5 1.8 0.4
v 0.5 1.8 -0.2
v 0.6 0 0.3
v 0.6 0 -5.96046e-008
v 0.6 0 -0.7
v 0.6 0 -1
v 0.6 0.1 0.3
v 0.6 0.1 -5.96046e-008
v 0.6 0.1 -0.7
v 0.6 0.1 -1
v 0.6 0.5 -5.96046e-008
v 0.6 0.5 -0.7
v 0.6 0.9 0.3
v 0.6 0.9 -1
v 0.7 1.5 0.2
v 0.7 1.5 0.0999999
v 0.7 1.6 0.2
v 0.7 1.6 0.0999999
v 0.9 1.6 0.3
v 0.9 1.6 0.2
v 0.9 1.9 0.3
v 0.9 1.9 0.2
v 0.9 2 0.3
v 0.9 2 0.2
v -0.2 1.1 0.6
v -0.2 1.3 0.6
v -0.1 1.2 0.6
v -0.1 1.3 0.6
v 0.1 1.2 0.6
v 0.1 1.3 0.6
v 0.2 1.1 0.6
v 0.2 1.3 0.6
v -0.3 1.2 0.5
v -0.3 1.5 0.5
v -0.2 1.2 0.5
v -0.2 1.3 0.5
v -0.2 1.4 0.5
v -0.1 1.2 0.5
v -0.1 1.3 0.5
v -0.1 1.4 0.5
v 0.1 1.2 0.5
v 0.1 1.3 0.5
v 0.1 1.4 0.5
v 0.2 1.2 0.5
v 0.2 1.3 0.5
v 0.2 1.4 0.5
v 0.3 1.2 0.5
v 0.3 1.5 0.5
v -0.5 1.1 0.4
v -0.5 1.8 0.4
v -0.4 0.9 0.4
v -0.4 1.1 0.4
v -0.4 1.8 0.4
v -0.4 1.9 0.4
v -0.3 1.2 0.4
v -0.3 1.5 0.4
v -0.3 1.7 0.4
v -0.3 1.8 0.4
v -0.2 1.2 0.4
v -0.2 1.3 0.4
v -0.2 1.4 0.4
v -0.2 1.5 0.4
v -0.2 1.6 0.4
v -0.1 1.2 0.4
v -0.1 1.3 0.4
v -0.1 1.4 0.4
v -0.1 1.5 0.4
v -0.1 1.6 0.4
v -0.1 1.7 0.4
v -0.1 1.8 0.4
v 0.1 1.2 0.4
v 0.1 1.3 0.4
v 0.1 1.4 0.4
v 0.1 1.5 0.4
v 0.1 1.6 0.4
v 0.1 1.7 0.4
v 0.1 1.8 0.4
v 0.2 1.2 0.4
v 0.2 1.3 0.4
v 0.2 1.4 0.4
v 0.2 1.5 0.4
v 0.2 1.6 0.4
v 0.3 1.2 0.4
v 0.3 1.5 0.4
v 0.3 1.7 0.4
v 0.3 1.8 0.4
v 0.4 0.9 0.4
v 0.4 1.1 0.4
v 0.4 1.8 0.4
v 0.4 1.9 0.4
v 0.5 1.1 0.4
v 0.5 1.8 0.4
v -0.9 1.6 0.3
v -0.9 1.9 0.3
v -0.9 2 0.3
v -0.8 1.7 0.3
v -0.8 1.9 0.3
v -0.8 2 0.3
v -0.6 0 0.3
v -0.6 0.1 0.3
v -0.6 0.9 0.3
v -0.5 0.9 0.3
v -0.5 1 0.3
v -0.5 1.6 0.3
v -0.5 1.7 0.3
v -0.4 0 0.3
v -0.4 0.1 0.3
v -0.4 0.5 0.3
v -0.4 0.9 0.3
v -0.4 1 0.3
v 0.4 0 0.3
v 0.4 0.1 0.3
v 0.4 0.5 0.3
v 0.4 0.9 0.3
v 0.4 1 0.3
v 0.5 0.9 0.3
v 0.5 1 0.3
v 0.5 1.6 0.3
v 0.5 1.7 0.3
v 0.6 0 0.3
v 0.6 0.1 0.3
v 0.6 0.9 0.3
v 0.8 1.7 0.3
v 0.8 1.9 0.3
v 0.8 2 0.3
v 0.9 1.6 0.3
v 0.9 1.9 0.3
v 0.9 2 0.3
v -0.7 1.5 0.2
v -0.7 1.6 0.2
v -0.5 1.5 0.2
v -0.5 1.6 0.2
v 0.5 1.5 0.2
v 0.5 1.6 0.2
v 0.7 1.5 0.2
v 0.7 1.6 0.2
v -0.6 0 -0.7
v -0.6 0.1 -0.7
v -0.6 0.5 -0.7
v -0.4 0 -0.7
v -0.4 0.1 -0.7
v -0.4 0.5 -0.7
v 0.4 0 -0.7
v 0.4 0.1 -0.7
v 0.4 0.5 -0.7
v 0.6 0 -0.7
v 0.6 0.1 -0.7
v 0.6 0.5 -0.7
v 0 1 -0.9
v 0 1.1 -0.9
v 0.1 1 -0.9
v 0.1 1.1 -0.9
v -0.1 1 -1
v -0.1 1.2 -1
v 0 1 -1
v 0 1.1 -1
v 0 1.2 -1
v -0.1 1.2 -1.1
v -0.1 1.3 -1.1
v 0 1.2 -1.1
v 0 1.3 -1.1
v -0.2 1.1 0.5
v -0.2 1.2 0.5
v -0.1 1.2 0.5
v 0.1 1.2 0.5
v 0.2 1.1 0.5
v 0.2 1.2 0.5
v -0.4 1.8 0.3
v -0.4 1.9 0.3
v 0.4 1.8 0.3
v 0.4 1.9 0.3
v -0.9 1.6 0.2
v -0.9 1.9 0.2
v -0.9 2 0.2
v -0.8 1.7 0.2
v -0.8 1.9 0.2
v -0.8 2 0.2
v -0.7 1.6 0.2
v -0.5 1.6 0.2
v -0.5 1.7 0.2
v 0.5 1.6 0.2
v 0.5 1.7 0.2
v 0.7 1.6 0.2
v 0.8 1.7 0.2
v 0.8 1.9 0.2
v 0.8 2 0.2
v 0.9 1.6 0.2
v 0.9 1.9 0.2
v 0.9 2 0.2
v -0.7 1.5 0.0999999
v -0.7 1.6 0.0999999
v -0.5 1.5 0.0999999
v -0.5 1.6 0.0999999
v 0.5 1.5 0.0999999
v 0.5 1.6 0.0999999
v 0.7 1.5 0.0999999
v 0.7 1.6 0.0999999
v -0.6 0 -5.96046e-008
v -0.6 0.1 -5.96046e-008
v -0.6 0.5 -5.96046e-008
v -0.4 0 -5.96046e-008
v -0.4 0.1 -5.96046e-008
v -0.4 0.5 -5.96046e-008
v 0.4 0 -5.96046e-008
v 0.4 0.1 -5.96046e-008
v 0.4 0.5 -5.96046e-008
v 0.6 0 -5.96046e-008
v 0.6 0.1 -5.96046e-008
v 0.6 0.5 -5.96046e-008
v -0.5 1.1 -0.2
v -0.5 1.8 -0.2
v -0.4 1.1 -0.2
v 0.4 1.1 -0.2
v 0.5 1.1 -0.2
v 0.5 1.8 -0.2
v -0.4 1 -0.8
v -0.4 1.1 -0.8
v 0.4 1 -0.8
v 0.4 1.1 -0.8
v -0.5 0.9 -0.9
v -0.5 1 -0.9
v 0 0.9 -0.9
v 0 1 -0.9
v 0.1 0.9 -0.9
v 0.1 1 -0.9
v 0.5 0.9 -0.9
v 0.5 1 -0.9
v -0.6 0 -1
v -0.6 0.1 -1
v -0.6 0.9 -1
v -0.4 0 -1
v -0.4 0.1 -1
v -0.4 0.5 -1
v 0 0.9 -1
v 0 1 -1
v 0.1 0.9 -1
v 0.1 1 -1
v 0.4 0 -1
v 0.4 0.1 -1
v 0.4 0.5 -1
v 0.6 0 -1
v 0.6 0.1 -1
v 0.6 0.9 -1
v -0.1 1 -1.1
v -0.1 1.1 -1.1
v 0 1.1 -1.1
v 0.1 1 -1.1
v 0.1 1.1 -1.1
v -0.1 1.1 -1.2
v -0.1 1.2 -1.2
v -0.1 1.3 -1.2
v 0 1.1 -1.2
v 0 1.2 -1.2
v 0 1.3 -1.2
v -0.6 0 0.3
v -0.4 0 0.3
v 0.4 0 0.3
v 0.6 0 0.3
v -0.6 0 -5.96046e-008
v -0.4 0 -5.96046e-008
v 0.4 0 -5.96046e-008
v 0.6 0 -5.96046e-008
v -0.6 0 -0.7
v -0.4 0 -0.7
v 0.4 0 -0.7
v 0.6 0 -0.7
v -0.6 0 -1
v -0.4 0 -1
v 0.4 0 -1
v 0.6 0 -1
v -0.4 0.5 0.3
v 0.4 0.5 0.3
v -0.6 0.5 -5.96046e-008
v -0.4 0.5 -5.96046e-008
v 0.4 0.5 -5.96046e-008
v 0.6 0.5 -5.96046e-008
v -0.6 0.5 -0.7
v -0.4 0.5 -0.7
v 0.4 0.5 -0.7
v 0.6 0.5 -0.7
v -0.4 0.5 -1
v 0.4 0.5 -1
v -0.4 0.9 0.4
v 0.4 0.9 0.4
v -0.4 0.9 0.3
v 0.4 0.9 0.3
v -0.1 1 -1
v 0 1 -1
v 0.1 1 -1
v -0.1 1 -1.1
v 0.1 1 -1.1
v -0.2 1.1 0.6
v 0.2 1.1 0.6
v -0.2 1.1 0.5
v 0.2 1.1 0.5
v -0.5 1.1 0.4
v -0.4 1.1 0.4
v 0.4 1.1 0.4
v 0.5 1.1 0.4
v -0.5 1.1 -0.2
v -0.4 1.1 -0.2
v 0.4 1.1 -0.2
v 0.5 1.1 -0.2
v -0.1 1.1 -1.1
v 0 1.1 -1.1
v -0.1 1.1 -1.2
v 0 1.1 -1.2
v -0.3 1.2 0.5
v -0.2 1.2 0.5
v -0.1 1.2 0.5
v 0.1 1.2 0.5
v 0.2 1.2 0.5
v 0.3 1.2 0.5
v -0.3 1.2 0.4
v -0.2 1.2 0.4
v -0.1 1.2 0.4
v 0.1 1.2 0.4
v 0.2 1.2 0.4
v 0.3 1.2 0.4
v -0.2 1.4 0.5
v -0.1 1.4 0.5
v 0.1 1.4 0.5
v 0.2 1.4 0.5
v -0.2 1.4 0.4
v -0.1 1.4 0.4
v 0.1 1.4 0.4
v 0.2 1.4 0.4
v -0.7 1.5 0.2
v -0.5 1.5 0.2
v 0.5 1.5 0.2
v 0.7 1.5 0.2
v -0.7 1.5 0.0999999
v -0.5 1.5 0.0999999
v 0.5 1.5 0.0999999
v 0.7 1.5 0.0999999
v -0.9 1.6 0.3
v -0.5 1.6 0.3
v 0.5 1.6 0.3
v 0.9 1.6 0.3
v -0.9 1.6 0.2
v -0.7 1.6 0.2
v -0.5 1.6 0.2
v 0.5 1.6 0.2
v 0.7 1.6 0.2
v 0.9 1.6 0.2
v -0.6 0.9 0.3
v -0.5 0.9 0.3
v 0.5 0.9 0.3
v 0.6 0.9 0.3
v -0.5 0.9 -0.9
v 0 0.9 -0.9
v 0.1 0.9 -0.9
v 0.5 0.9 -0.9
v -0.6 0.9 -1
v 0 0.9 -1
v 0.1 0.9 -1
v 0.6 0.9 -1
v -0.5 1 0.3
v -0.4 1 0.3
v 0.4 1 0.3
v 0.5 1 0.3
v -0.4 1 -0.8
v 0.4 1 -0.8
v -0.5 1 -0.9
v 0 1 -0.9
v 0.1 1 -0.9
v 0.5 1 -0.9
v -0.4 1.1 -0.2
v 0.4 1.1 -0.2
v -0.4 1.1 -0.8
v 0.4 1.1 -0.8
v 0 1.1 -0.9
v 0.1 1.1 -0.9
v 0 1.1 -1
v 0 1.1 -1.1
v 0.1 1.1 -1.1
v -0.1 1.2 0.6
v 0.1 1.2 0.6
v -0.1 1.2 0.5
v 0.1 1.2 0.5
v -0.1 1.2 -1
v 0 1.2 -1
v -0.1 1.2 -1.1
v 0 1.2 -1.1
v -0.2 1.3 0.6
v -0.1 1.3 0.6
v 0.1 1.3 0.6
v 0.2 1.3 0.6
v -0.2 1.3 0.5
v -0.1 1.3 0.5
v 0.1 1.3 0.5
v 0.2 1.3 0.5
v -0.2 1.3 0.4
v -0.1 1.3 0.4
v 0.1 1.3 0.4
v 0.2 1.3 0.4
v -0.1 1.3 -1.1
v 0 1.3 -1.1
v -0.1 1.3 -1.2
v 0 1.3 -1.2
v -0.3 1.5 0.5
v 0.3 1.5 0.5
v -0.3 1.5 0.4
v -0.2 1.5 0.4
v -0.1 1.5 0.4
v 0.1 1.5 0.4
v 0.2 1.5 0.4
v 0.3 1.5 0.4
v -0.7 1.6 0.2
v -0.5 1.6 0.2
v 0.5 1.6 0.2
v 0.7 1.6 0.2
v -0.7 1.6 0.0999999
v -0.5 1.6 0.0999999
v 0.5 1.6 0.0999999
v 0.7 1.6 0.0999999
v -0.8 1.7 0.3
v -0.5 1.7 0.3
v 0.5 1.7 0.3
v 0.8 1.7 0.3
v -0.8 1.7 0.2
v -0.5 1.7 0.2
v 0.5 1.7 0.2
v 0.8 1.7 0.2
v -0.5 1.8 0.4
v -0.4 1.8 0.4
v 0.4 1.8 0.4
v 0.5 1.8 0.4
v -0.4 1.8 0.3
v 0.4 1.8 0.3
v -0.5 1.8 -0.2
v 0.5 1.8 -0.2
v -0.4 1.9 0.4
v 0.4 1.9 0.4
v -0.4 1.9 0.3
v 0.4 1.9 0.3
v -0.9 2 0.3
v -0.8 2 0.3
v 0.8 2 0.3
v 0.9 2 0.3
v -0.9 2 0.2
v -0.8 2 0.2
v 0.8 2 0.2
v 0.9 2 0.2

# faces
f 3/4/1 2/4/1 1/4/1
f 4/4/1 2/4/1 3/4/1
f 5/2/1 4/2/1 3/2/1
f 6/2/1 4/2/1 5/2/1
f 9/6/1 8/6/1 7/6/1
f 10/6/1 8/6/1 9/6/1
f 15/3/1 12/3/1 11/3/1
f 16/3/1 12/3/1 15/3/1
f 17/3/1 14/3/1 13/3/1
f 18/3/1 14/3/1 17/3/1
f 19/6/1 16/6/1 15/6/1
f 20/6/1 18/6/1 17/6/1
f 21/6/1 19/6/1 15/6/1
f 21/6/1 20/6/1 19/6/1
f 22/6/1 18/6/1 20/6/1
f 22/6/1 20/6/1 21/6/1
f 25/6/1 24/6/1 23/6/1
f 26/6/1 24/6/1 25/6/1
f 29/6/1 28/6/1 27/6/1
f 30/6/1 28/6/1 29/6/1
f 31/6/1 29/6/1 27/6/1
f 32/6/1 29/6/1 31/6/1
f 33/6/1 28/6/1 30/6/1
f 34/6/1 31/6/1 27/6/1
f 35/6/1 33/6/1 32/6/1
f 36/6/1 34/6/1 27/6/1
f 36/6/1 35/6/1 34/6/1
f 37/6/1 33/6/1 35/6/1
f 37/6/1 35/6/1 36/6/1
f 37/6/1 28/6/1 33/6/1
f 40/6/1 39/6/1 38/6/1
f 42/6/1 40/6/1 38/6/1
f 42/6/1 41/6/1 40/6/1
f 43/6/1 41/6/1 42/6/1
f 44/6/1 41/6/1 43/6/1
f 47/6/1 46/6/1 45/6/1
f 48/6/1 46/6/1 47/6/1
f 51/1/1 50/1/1 49/1/1
f 52/1/1 50/1/1 51/1/1
f 55/3/1 54/3/1 53/3/1
f 56/3/1 55/3/1 53/3/1
f 57/3/1 55/3/1 56/3/1
f 60/6/1 59/6/1 58/6/1
f 62/6/1 60/6/1 58/6/1
f 62/6/1 61/6/1 60/6/1
f 63/6/1 61/6/1 62/6/1
f 64/6/1 61/6/1 63/6/1
f 67/3/1 64/3/1 63/3/1
f 68/3/1 64/3/1 67/3/1
f 69/1/1 66/1/1 65/1/1
f 70/1/1 66/1/1 69/1/1
f 73/6/1 72/6/1 71/6/1
f 74/6/1 72/6/1 73/6/1
f 75/6/1 74/6/1 73/6/1
f 76/6/1 74/6/1 75/6/1
f 79/3/1 78/3/1 77/3/1
f 80/3/1 78/3/1 79/3/1
f 83/1/1 82/1/1 81/1/1
f 84/1/1 82/1/1 83/1/1
f 89/3/1 86/3/1 85/3/1
f 90/3/1 86/3/1 89/3/1
f 91/3/1 88/3/1 87/3/1
f 92/3/1 88/3/1 91/3/1
f 93/6/1 90/6/1 89/6/1
f 94/6/1 90/6/1 93/6/1
f 95/6/1 92/6/1 91/6/1
f 96/6/1 92/6/1 95/6/1
f 99/4/1 98/4/1 97/4/1
f 100/4/1 98/4/1 99/4/1
f 101/2/1 100/2/1 99/2/1
f 102/2/1 100/2/1 101/2/1
f 103/4/2 104/4/2 105/4/2
f 105/4/2 104/4/2 106/4/2
f 105/2/2 106/2/2 107/2/2
f 107/2/2 106/2/2 108/2/2
f 109/3/2 110/3/2 113/3/2
f 113/3/2 110/3/2 114/3/2
f 111/3/2 112/3/2 115/3/2
f 115/3/2 112/3/2 116/3/2
f 113/6/2 114/6/2 117/6/2
f 117/6/2 114/6/2 118/6/2
f 115/6/2 116/6/2 119/6/2
f 119/6/2 116/6/2 120/6/2
f 121/1/2 122/1/2 123/1/2
f 123/1/2 122/1/2 124/1/2
f 125/3/2 126/3/2 127/3/2
f 127/3/2 126/3/2 128/3/2
f 129/6/2 130/6/2 132/6/2
f 130/6/2 131/6/2 132/6/2
f 132/6/2 131/6/2 133/6/2
f 133/6/2 131/6/2 134/6/2
f 133/3/2 134/3/2 135/3/2
f 135/3/2 134/3/2 136/3/2
f 137/6/2 138/6/2 139/6/2
f 139/6/2 138/6/2 140/6/2
f 139/6/2 140/6/2 142/6/2
f 140/6/2 141/6/2 142/6/2
f 142/6/2 141/6/2 143/6/2
f 144/1/2 145/1/2 146/1/2
f 146/1/2 145/1/2 147/1/2
f 148/3/2 149/3/2 150/3/2
f 148/3/2 150/3/2 151/3/2
f 151/3/2 150/3/2 152/3/2
f 153/1/2 154/1/2 155/1/2
f 155/1/2 154/1/2 156/1/2
f 157/6/2 158/6/2 159/6/2
f 157/6/2 159/6/2 161/6/2
f 159/6/2 160/6/2 161/6/2
f 161/6/2 160/6/2 162/6/2
f 162/6/2 160/6/2 163/6/2
f 164/6/2 165/6/2 166/6/2
f 166/6/2 165/6/2 167/6/2
f 168/6/2 169/6/2 170/6/2
f 170/6/2 169/6/2 171/6/2
f 172/6/2 173/6/2 174/6/2
f 174/6/2 173/6/2 175/6/2
f 172/6/2 174/6/2 176/6/2
f 176/6/2 174/6/2 177/6/2
f 175/6/2 173/6/2 178/6/2
f 172/6/2 176/6/2 179/6/2
f 177/6/2 178/6/2 180/6/2
f 172/6/2 179/6/2 181/6/2
f 179/6/2 180/6/2 181/6/2
f 180/6/2 178/6/2 182/6/2
f 181/6/2 180/6/2 182/6/2
f 178/6/2 173/6/2 182/6/2
f 183/3/2 184/3/2 187/3/2
f 187/3/2 184/3/2 188/3/2
f 185/3/2 186/3/2 189/3/2
f 189/3/2 186/3/2 190/3/2
f 187/6/2 188/6/2 191/6/2
f 189/6/2 190/6/2 192/6/2
f 187/6/2 191/6/2 193/6/2
f 191/6/2 192/6/2 193/6/2
f 192/6/2 190/6/2 194/6/2
f 193/6/2 192/6/2 194/6/2
f 195/6/2 196/6/2 197/6/2
f 197/6/2 196/6/2 198/6/2
f 199/4/2 200/4/2 201/4/2
f 201/4/2 200/4/2 202/4/2
f 201/2/2 202/2/2 203/2/2
f 203/2/2 202/2/2 204/2/2
f 207/3/3 206/3/3 205/3/3
f 208/3/3 206/3/3 207/3/3
f 209/3/3 207/3/3 205/3/3
f 211/3/3 209/3/3 205/3/3
f 211/3/3 210/3/3 209/3/3
f 212/3/3 210/3/3 211/3/3
f 215/1/3 214/1/3 213/1/3
f 216/1/3 214/1/3 215/1/3
f 217/1/3 214/1/3 216/1/3
f 220/1/3 214/1/3 217/1/3
f 221/1/3 219/1/3 218/1/3
f 221/1/3 220/1/3 219/1/3
f 222/1/3 220/1/3 221/1/3
f 223/1/3 214/1/3 220/1/3
f 223/1/3 220/1/3 222/1/3
f 226/1/3 214/1/3 223/1/3
f 227/1/3 225/1/3 224/1/3
f 227/1/3 226/1/3 225/1/3
f 228/1/3 214/1/3 226/1/3
f 228/1/3 226/1/3 227/1/3
f 232/6/3 230/6/3 229/6/3
f 233/6/3 230/6/3 232/6/3
f 235/6/3 232/6/3 231/6/3
f 235/6/3 234/6/3 233/6/3
f 235/6/3 233/6/3 232/6/3
f 236/6/3 234/6/3 235/6/3
f 237/6/3 234/6/3 236/6/3
f 238/6/3 234/6/3 237/6/3
f 239/6/3 235/6/3 231/6/3
f 242/3/3 237/3/3 236/3/3
f 243/3/3 237/3/3 242/3/3
f 244/6/3 239/6/3 231/6/3
f 245/6/3 241/6/3 240/6/3
f 246/6/3 241/6/3 245/6/3
f 247/5/3 243/5/3 242/5/3
f 248/3/3 237/3/3 243/3/3
f 248/5/3 243/5/3 247/5/3
f 249/7/3 238/7/3 237/7/3
f 249/3/3 237/3/3 248/3/3
f 250/6/3 234/6/3 238/6/3
f 250/7/3 238/7/3 249/7/3
f 251/6/3 244/6/3 231/6/3
f 254/6/3 248/6/3 247/6/3
f 255/7/3 249/7/3 248/7/3
f 255/6/3 248/6/3 254/6/3
f 256/6/3 250/6/3 249/6/3
f 256/7/3 249/7/3 255/7/3
f 257/6/3 234/6/3 250/6/3
f 257/6/3 250/6/3 256/6/3
f 258/6/3 251/6/3 231/6/3
f 259/6/3 253/6/3 252/6/3
f 260/6/3 253/6/3 259/6/3
f 261/5/3 255/5/3 254/5/3
f 262/3/3 256/3/3 255/3/3
f 262/5/3 255/5/3 261/5/3
f 263/6/3 258/6/3 231/6/3
f 264/3/3 262/3/3 261/3/3
f 265/3/3 256/3/3 262/3/3
f 265/7/3 257/7/3 256/7/3
f 265/3/3 262/3/3 264/3/3
f 266/6/3 234/6/3 257/6/3
f 266/7/3 257/7/3 265/7/3
f 267/6/3 264/6/3 263/6/3
f 267/6/3 263/6/3 231/6/3
f 267/6/3 266/6/3 265/6/3
f 267/6/3 265/6/3 264/6/3
f 268/6/3 266/6/3 267/6/3
f 269/6/3 234/6/3 266/6/3
f 269/6/3 266/6/3 268/6/3
f 270/6/3 234/6/3 269/6/3
f 271/6/3 269/6/3 268/6/3
f 272/6/3 269/6/3 271/6/3
f 276/4/3 274/4/3 273/4/3
f 277/2/3 275/2/3 274/2/3
f 277/4/3 274/4/3 276/4/3
f 278/2/3 275/2/3 277/2/3
f 282/6/3 281/6/3 280/6/3
f 284/4/3 276/4/3 273/4/3
f 285/4/3 276/4/3 284/4/3
f 286/3/3 280/3/3 279/3/3
f 287/6/3 283/6/3 282/6/3
f 287/3/3 280/3/3 286/3/3
f 287/6/3 282/6/3 280/6/3
f 288/6/3 283/6/3 287/6/3
f 289/6/3 283/6/3 288/6/3
f 290/6/3 283/6/3 289/6/3
f 293/6/3 289/6/3 288/6/3
f 294/6/3 289/6/3 293/6/3
f 296/6/3 293/6/3 292/6/3
f 296/6/3 295/6/3 294/6/3
f 296/6/3 294/6/3 293/6/3
f 297/6/3 295/6/3 296/6/3
f 300/3/3 292/3/3 291/3/3
f 301/6/3 296/6/3 292/6/3
f 301/3/3 292/3/3 300/3/3
f 302/6/3 296/6/3 301/6/3
f 303/4/3 299/4/3 298/4/3
f 306/4/3 303/4/3 298/4/3
f 306/4/3 304/4/3 303/4/3
f 307/2/3 305/2/3 304/2/3
f 307/4/3 304/4/3 306/4/3
f 308/2/3 305/2/3 307/2/3
f 311/6/3 310/6/3 309/6/3
f 312/6/3 310/6/3 311/6/3
f 315/6/3 314/6/3 313/6/3
f 316/6/3 314/6/3 315/6/3
f 320/3/3 318/3/3 317/3/3
f 321/6/3 319/6/3 318/6/3
f 321/3/3 318/3/3 320/3/3
f 322/6/3 319/6/3 321/6/3
f 326/3/3 324/3/3 323/3/3
f 327/6/3 325/6/3 324/6/3
f 327/3/3 324/3/3 326/3/3
f 328/6/3 325/6/3 327/6/3
f 331/6/3 330/6/3 329/6/3
f 332/6/3 330/6/3 331/6/3
f 335/6/3 334/6/3 333/6/3
f 336/6/3 334/6/3 335/6/3
f 337/6/3 334/6/3 336/6/3
f 340/3/3 339/3/3 338/3/3
f 341/3/3 339/3/3 340/3/3
f 342/3/4 343/3/4 344/3/4
f 342/3/4 344/3/4 345/3/4
f 342/3/4 345/3/4 346/3/4
f 346/3/4 345/3/4 347/3/4
f 348/6/4 349/6/4 350/6/4
f 350/6/4 349/6/4 351/6/4
f 352/4/4 353/4/4 355/4/4
f 353/2/4 354/2/4 356/2/4
f 355/4/4 353/4/4 356/4/4
f 356/2/4 354/2/4 357/2/4
f 352/4/4 355/4/4 358/4/4
f 358/4/4 355/4/4 359/4/4
f 359/4/4 355/4/4 360/4/4
f 361/4/4 362/4/4 363/4/4
f 363/4/4 362/4/4 364/4/4
f 363/4/4 364/4/4 367/4/4
f 364/4/4 365/4/4 367/4/4
f 365/2/4 366/2/4 368/2/4
f 367/4/4 365/4/4 368/4/4
f 368/2/4 366/2/4 369/2/4
f 370/6/4 371/6/4 372/6/4
f 372/6/4 371/6/4 373/6/4
f 374/6/4 375/6/4 376/6/4
f 376/6/4 375/6/4 377/6/4
f 378/3/4 379/3/4 381/3/4
f 379/6/4 380/6/4 382/6/4
f 381/3/4 379/3/4 382/3/4
f 382/6/4 380/6/4 383/6/4
f 384/3/4 385/3/4 387/3/4
f 385/6/4 386/6/4 388/6/4
f 387/3/4 385/3/4 388/3/4
f 388/6/4 386/6/4 389/6/4
f 390/6/4 391/6/4 392/6/4
f 392/6/4 391/6/4 393/6/4
f 393/6/4 391/6/4 394/6/4
f 394/6/4 391/6/4 395/6/4
f 396/6/4 397/6/4 398/6/4
f 398/6/4 397/6/4 399/6/4
f 400/6/4 401/6/4 402/6/4
f 402/6/4 401/6/4 403/6/4
f 404/6/4 405/6/4 406/6/4
f 406/6/4 405/6/4 407/6/4
f 408/3/4 409/3/4 411/3/4
f 409/6/4 410/6/4 412/6/4
f 411/3/4 409/3/4 412/3/4
f 412/6/4 410/6/4 413/6/4
f 413/6/4 410/6/4 414/6/4
f 413/6/4 414/6/4 416/6/4
f 414/6/4 415/6/4 416/6/4
f 416/6/4 415/6/4 417/6/4
f 413/6/4 416/6/4 420/6/4
f 418/3/4 419/3/4 421/3/4
f 419/6/4 420/6/4 422/6/4
f 421/3/4 419/3/4 422/3/4
f 420/6/4 416/6/4 423/6/4
f 422/6/4 420/6/4 423/6/4
f 424/6/4 425/6/4 426/6/4
f 424/6/4 426/6/4 427/6/4
f 427/6/4 426/6/4 428/6/4
f 429/6/4 430/6/4 432/6/4
f 430/3/4 431/3/4 433/3/4
f 432/6/4 430/6/4 433/6/4
f 433/3/4 431/3/4 434/3/4
f 439/3/5 436/3/5 435/3/5
f 440/3/5 436/3/5 439/3/5
f 441/3/5 438/3/5 437/3/5
f 442/3/5 438/3/5 441/3/5
f 447/3/5 444/3/5 443/3/5
f 448/3/5 444/3/5 447/3/5
f 449/3/5 446/3/5 445/3/5
f 450/3/5 446/3/5 449/3/5
f 454/6/5 452/6/5 451/6/5
f 455/6/5 452/6/5 454/6/5
f 457/6/5 454/6/5 453/6/5
f 457/6/5 456/6/5 455/6/5
f 457/6/5 455/6/5 454/6/5
f 458/6/5 456/6/5 457/6/5
f 459/6/5 456/6/5 458/6/5
f 460/6/5 456/6/5 459/6/5
f 461/6/5 459/6/5 458/6/5
f 462/6/5 459/6/5 461/6/5
f 465/6/5 464/6/5 463/6/5
f 466/6/5 464/6/5 465/6/5
f 470/6/5 468/6/5 467/6/5
f 470/6/5 469/6/5 468/6/5
f 471/6/5 469/6/5 470/6/5
f 474/3/5 473/3/5 472/3/5
f 475/3/5 473/3/5 474/3/5
f 480/6/5 477/6/5 476/6/5
f 481/6/5 477/6/5 480/6/5
f 482/6/5 479/6/5 478/6/5
f 483/6/5 479/6/5 482/6/5
f 486/6/5 485/6/5 484/6/5
f 487/6/5 485/6/5 486/6/5
f 494/1/5 489/1/5 488/1/5
f 495/3/5 490/3/5 489/3/5
f 495/1/5 489/1/5 494/1/5
f 496/1/5 491/1/5 490/1/5
f 496/3/5 490/3/5 495/3/5
f 497/3/5 492/3/5 491/3/5
f 497/1/5 491/1/5 496/1/5
f 498/1/5 493/1/5 492/1/5
f 498/3/5 492/3/5 497/3/5
f 499/1/5 493/1/5 498/1/5
f 504/1/5 501/1/5 500/1/5
f 505/1/5 501/1/5 504/1/5
f 506/1/5 503/1/5 502/1/5
f 507/1/5 503/1/5 506/1/5
f 512/6/5 509/6/5 508/6/5
f 513/6/5 509/6/5 512/6/5
f 514/6/5 511/6/5 510/6/5
f 515/6/5 511/6/5 514/6/5
f 520/4/5 517/4/5 516/4/5
f 521/4/5 517/4/5 520/4/5
f 522/4/5 517/4/5 521/4/5
f 523/4/5 519/4/5 518/4/5
f 524/4/5 519/4/5 523/4/5
f 525/4/5 519/4/5 524/4/5
f 526/6/6 527/6/6 530/6/6
f 528/6/6 529/6/6 533/6/6
f 530/6/6 531/6/6 534/6/6
f 526/6/6 530/6/6 534/6/6
f 534/6/6 531/6/6 535/6/6
f 532/6/6 533/6/6 536/6/6
f 533/6/6 529/6/6 537/6/6
f 536/6/6 533/6/6 537/6/6
f 538/6/6 539/6/6 542/6/6
f 540/6/6 541/6/6 543/6/6
f 538/6/6 542/6/6 544/6/6
f 542/6/6 543/6/6 544/6/6
f 544/6/6 543/6/6 545/6/6
f 545/6/6 543/6/6 546/6/6
f 543/6/6 541/6/6 547/6/6
f 546/6/6 543/6/6 547/6/6
f 548/6/6 549/6/6 550/6/6
f 550/6/6 549/6/6 551/6/6
f 552/6/6 553/6/6 554/6/6
f 554/6/6 553/6/6 555/6/6
f 555/6/6 553/6/6 556/6/6
f 557/3/6 558/3/6 559/3/6
f 559/3/6 558/3/6 560/3/6
f 561/6/6 562/6/6 563/6/6
f 563/6/6 562/6/6 564/6/6
f 565/3/6 566/3/6 569/3/6
f 569/3/6 566/3/6 570/3/6
f 567/3/6 568/3/6 571/3/6
f 571/3/6 568/3/6 572/3/6
f 569/3/6 570/3/6 573/3/6
f 573/3/6 570/3/6 574/3/6
f 571/3/6 572/3/6 575/3/6
f 575/3/6 572/3/6 576/3/6
f 577/3/6 578/3/6 579/3/6
f 579/3/6 578/3/6 580/3/6
f 581/1/6 582/1/6 583/1/6
f 583/1/6 582/1/6 584/1/6
f 584/1/6 582/1/6 585/1/6
f 585/1/6 582/1/6 586/1/6
f 586/1/6 582/1/6 587/1/6
f 587/1/6 582/1/6 588/1/6
f 589/6/6 590/6/6 593/6/6
f 593/6/6 590/6/6 594/6/6
f 591/6/6 592/6/6 595/6/6
f 595/6/6 592/6/6 596/6/6
f 597/4/6 598/4/6 601/4/6
f 601/4/6 598/4/6 602/4/6
f 599/4/6 600/4/6 603/4/6
f 603/4/6 600/4/6 604/4/6
f 605/6/6 606/6/6 609/6/6
f 607/6/6 608/6/6 610/6/6
f 605/6/6 609/6/6 611/6/6
f 609/6/6 610/6/6 611/6/6
f 610/6/6 608/6/6 612/6/6
f 611/6/6 610/6/6 612/6/6
f 613/6/6 614/6/6 615/6/6
f 615/6/6 614/6/6 616/6/6
f 617/2/6 618/2/6 621/2/6
f 621/2/6 618/2/6 622/2/6
f 619/2/6 620/2/6 623/2/6
f 623/2/6 620/2/6 624/2/6
