# MagicaVoxel @ Ephtracy

# group
o 

# material
mtllib Bull_Ice.mtl
usemtl palette

# normals
vn -1 0 0
vn 1 0 0
vn 0 0 1
vn 0 0 -1
vn 0 -1 0
vn 0 1 0

# texcoords
vt 0.0839844 0.5
vt 0.779297 0.5
vt 0.935547 0.5
vt 0.958984 0.5
vt 0.966797 0.5
vt 0.978516 0.5
vt 0.994141 0.5

# verts
v -0.9 1.6 0.3
v -0.9 1.6 0.2
v -0.9 1.9 0.3
v -0.9 1.9 0.2
v -0.9 2 0.3
v -0.9 2 0.2
v -0.7 1.5 0.2
v -0.7 1.5 0.0999999
v -0.7 1.6 0.2
v -0.7 1.6 0.0999999
v -0.6 0 0.3
v -0.6 0 -5.96046e-008
v -0.6 0 -0.7
v -0.6 0 -1
v -0.6 0.1 0.3
v -0.6 0.1 -5.96046e-008
v -0.6 0.1 -0.7
v -0.6 0.1 -1
v -0.6 0.5 -5.96046e-008
v -0.6 0.5 -0.7
v -0.6 0.9 0.3
v -0.6 0.9 -1
v -0.5 0.9 0.3
v -0.5 0.9 -0.9
v -0.5 1 0.3
v -0.5 1 -0.9
v -0.5 1.1 0.4
v -0.5 1.1 -0.2
v -0.5 1.5 0.2
v -0.5 1.5 0.0999999
v -0.5 1.6 0.3
v -0.5 1.6 0.2
v -0.5 1.6 0.0999999
v -0.5 1.7 0.3
v -0.5 1.7 0.2
v -0.5 1.8 0.4
v -0.5 1.8 -0.2
v -0.4 0.9 0.4
v -0.4 0.9 0.3
v -0.4 1 0.3
v -0.4 1 -0.8
v -0.4 1.1 0.4
v -0.4 1.1 -0.2
v -0.4 1.1 -0.8
v -0.4 1.8 0.4
v -0.4 1.8 0.3
v -0.4 1.9 0.4
v -0.4 1.9 0.3
v -0.3 1.2 0.5
v -0.3 1.2 0.4
v -0.3 1.5 0.5
v -0.3 1.5 0.4
v -0.2 1.1 0.6
v -0.2 1.1 0.5
v -0.2 1.2 0.5
v -0.2 1.3 0.6
v -0.2 1.3 0.5
v -0.1 1 -1
v -0.1 1 -1.1
v -0.1 1.1 -1.1
v -0.1 1.1 -1.2
v -0.1 1.2 -1
v -0.1 1.2 -1.1
v -0.1 1.2 -1.2
v -0.1 1.3 0.5
v -0.1 1.3 0.4
v -0.1 1.3 -1.1
v -0.1 1.3 -1.2
v -0.1 1.4 0.5
v -0.1 1.4 0.4
v 0 0.9 -0.9
v 0 0.9 -1
v 0 1 -0.9
v 0 1 -1
v 0 1.1 -0.9
v 0 1.1 -1
v 0.1 1.2 0.6
v 0.1 1.2 0.5
v 0.1 1.3 0.6
v 0.1 1.3 0.5
v 0.2 1.3 0.5
v 0.2 1.3 0.4
v 0.2 1.4 0.5
v 0.2 1.4 0.4
v 0.4 0 0.3
v 0.4 0 -5.96046e-008
v 0.4 0 -0.7
v 0.4 0 -1
v 0.4 0.1 0.3
v 0.4 0.1 -5.96046e-008
v 0.4 0.1 -0.7
v 0.4 0.1 -1
v 0.4 0.5 0.3
v 0.4 0.5 -5.96046e-008
v 0.4 0.5 -0.7
v 0.4 0.5 -1
v 0.8 1.7 0.3
v 0.8 1.7 0.2
v 0.8 1.9 0.3
v 0.8 1.9 0.2
v 0.8 2 0.3
v 0.8 2 0.2
v -0.8 1.7 0.3
v -0.8 1.7 0.2
v -0.8 1.9 0.3
v -0.8 1.9 0.2
v -0.8 2 0.3
v -0.8 2 0.2
v -0.4 0 0.3
v -0.4 0 -5.96046e-008
v -0.4 0 -0.7
v -0.4 0 -1
v -0.4 0.1 0.3
v -0.4 0.1 -5.96046e-008
v -0.4 0.1 -0.7
v -0.4 0.1 -1
v -0.4 0.5 0.3
v -0.4 0.5 -5.96046e-008
v -0.4 0.5 -0.7
v -0.4 0.5 -1
v -0.2 1.3 0.5
v -0.2 1.3 0.4
v -0.2 1.4 0.5
v -0.2 1.4 0.4
v -0.1 1.2 0.6
v -0.1 1.2 0.5
v -0.1 1.3 0.6
v -0.1 1.3 0.5
v 0 1.1 -1
v 0 1.1 -1.1
v 0 1.1 -1.2
v 0 1.2 -1
v 0 1.2 -1.1
v 0 1.2 -1.2
v 0 1.3 -1.1
v 0 1.3 -1.2
v 0.1 0.9 -0.9
v 0.1 0.9 -1
v 0.1 1 -0.9
v 0.1 1 -1
v 0.1 1 -1.1
v 0.1 1.1 -0.9
v 0.1 1.1 -1.1
v 0.1 1.3 0.5
v 0.1 1.3 0.4
v 0.1 1.4 0.5
v 0.1 1.4 0.4
v 0.2 1.1 0.6
v 0.2 1.1 0.5
v 0.2 1.2 0.5
v 0.2 1.3 0.6
v 0.2 1.3 0.5
v 0.3 1.2 0.5
v 0.3 1.2 0.4
v 0.3 1.5 0.5
v 0.3 1.5 0.4
v 0.4 0.9 0.4
v 0.4 0.9 0.3
v 0.4 1 0.3
v 0.4 1 -0.8
v 0.4 1.1 0.4
v 0.4 1.1 -0.2
v 0.4 1.1 -0.8
v 0.4 1.8 0.4
v 0.4 1.8 0.3
v 0.4 1.9 0.4
v 0.4 1.9 0.3
v 0.5 0.9 0.3
v 0.5 0.9 -0.9
v 0.5 1 0.3
v 0.5 1 -0.9
v 0.5 1.1 0.4
v 0.5 1.1 -0.2
v 0.5 1.5 0.2
v 0.5 1.5 0.0999999
v 0.5 1.6 0.3
v 0.5 1.6 0.2
v 0.5 1.6 0.0999999
v 0.5 1.7 0.3
v 0.5 1.7 0.2
v 0.5 1.8 0.4
v 0.5 1.8 -0.2
v 0.6 0 0.3
v 0.6 0 -5.96046e-008
v 0.6 0 -0.7
v 0.6 0 -1
v 0.6 0.1 0.3
v 0.6 0.1 -5.96046e-008
v 0.6 0.1 -0.7
v 0.6 0.1 -1
v 0.6 0.5 -5.96046e-008
v 0.6 0.5 -0.7
v 0.6 0.9 0.3
v 0.6 0.9 -1
v 0.7 1.5 0.2
v 0.7 1.5 0.0999999
v 0.7 1.6 0.2
v 0.7 1.6 0.0999999
v 0.9 1.6 0.3
v 0.9 1.6 0.2
v 0.9 1.9 0.3
v 0.9 1.9 0.2
v 0.9 2 0.3
v 0.9 2 0.2
v -0.2 1.1 0.6
v -0.2 1.3 0.6
v -0.1 1.2 0.6
v -0.1 1.3 0.6
v 0.1 1.2 0.6
v 0.1 1.3 0.6
v 0.2 1.1 0.6
v 0.2 1.3 0.6
v -0.3 1.2 0.5
v -0.3 1.5 0.5
v -0.2 1.2 0.5
v -0.2 1.3 0.5
v -0.2 1.4 0.5
v -0.1 1.2 0.5
v -0.1 1.3 0.5
v -0.1 1.4 0.5
v 0.1 1.2 0.5
v 0.1 1.3 0.5
v 0.1 1.4 0.5
v 0.2 1.2 0.5
v 0.2 1.3 0.5
v 0.2 1.4 0.5
v 0.3 1.2 0.5
v 0.3 1.5 0.5
v -0.5 1.1 0.4
v -0.5 1.8 0.4
v -0.4 0.9 0.4
v -0.4 1.1 0.4
v -0.4 1.8 0.4
v -0.4 1.9 0.4
v -0.3 1.2 0.4
v -0.3 1.5 0.4
v -0.3 1.7 0.4
v -0.3 1.8 0.4
v -0.2 1.2 0.4
v -0.2 1.3 0.4
v -0.2 1.4 0.4
v -0.2 1.5 0.4
v -0.2 1.6 0.4
v -0.1 1.2 0.4
v -0.1 1.3 0.4
v -0.1 1.4 0.4
v -0.1 1.5 0.4
v -0.1 1.6 0.4
v -0.1 1.7 0.4
v -0.1 1.8 0.4
v 0.1 1.2 0.4
v 0.1 1.3 0.4
v 0.1 1.4 0.4
v 0.1 1.5 0.4
v 0.1 1.6 0.4
v 0.1 1.7 0.4
v 0.1 1.8 0.4
v 0.2 1.2 0.4
v 0.2 1.3 0.4
v 0.2 1.4 0.4
v 0.2 1.5 0.4
v 0.2 1.6 0.4
v 0.3 1.2 0.4
v 0.3 1.5 0.4
v 0.3 1.7 0.4
v 0.3 1.8 0.4
v 0.4 0.9 0.4
v 0.4 1.1 0.4
v 0.4 1.8 0.4
v 0.4 1.9 0.4
v 0.5 1.1 0.4
v 0.5 1.8 0.4
v -0.9 1.6 0.3
v -0.9 1.9 0.3
v -0.9 2 0.3
v -0.8 1.7 0.3
v -0.8 1.9 0.3
v -0.8 2 0.3
v -0.6 0 0.3
v -0.6 0.1 0.3
v -0.6 0.9 0.3
v -0.5 0.9 0.3
v -0.5 1 0.3
v -0.5 1.6 0.3
v -0.5 1.7 0.3
v -0.4 0 0.3
v -0.4 0.1 0.3
v -0.4 0.5 0.3
v -0.4 0.9 0.3
v -0.4 1 0.3
v 0.4 0 0.3
v 0.4 0.1 0.3
v 0.4 0.5 0.3
v 0.4 0.9 0.3
v 0.4 1 0.3
v 0.5 0.9 0.3
v 0.5 1 0.3
v 0.5 1.6 0.3
v 0.5 1.7 0.3
v 0.6 0 0.3
v 0.6 0.1 0.3
v 0.6 0.9 0.3
v 0.8 1.7 0.3
v 0.8 1.9 0.3
v 0.8 2 0.3
v 0.9 1.6 0.3
v 0.9 1.9 0.3
v 0.9 2 0.3
v -0.7 1.5 0.2
v -0.7 1.6 0.2
v -0.5 1.5 0.2
v -0.5 1.6 0.2
v 0.5 1.5 0.2
v 0.5 1.6 0.2
v 0.7 1.5 0.2
v 0.7 1.6 0.2
v -0.6 0 -0.7
v -0.6 0.1 -0.7
v -0.6 0.5 -0.7
v -0.4 0 -0.7
v -0.4 0.1 -0.7
v -0.4 0.5 -0.7
v 0.4 0 -0.7
v 0.4 0.1 -0.7
v 0.4 0.5 -0.7
v 0.6 0 -0.7
v 0.6 0.1 -0.7
v 0.6 0.5 -0.7
v 0 1 -0.9
v 0 1.1 -0.9
v 0.1 1 -0.9
v 0.1 1.1 -0.9
v -0.1 1 -1
v -0.1 1.2 -1
v 0 1 -1
v 0 1.1 -1
v 0 1.2 -1
v -0.1 1.2 -1.1
v -0.1 1.3 -1.1
v 0 1.2 -1.1
v 0 1.3 -1.1
v -0.2 1.1 0.5
v -0.2 1.2 0.5
v -0.1 1.2 0.5
v 0.1 1.2 0.5
v 0.2 1.1 0.5
v 0.2 1.2 0.5
v -0.4 1.8 0.3
v -0.4 1.9 0.3
v 0.4 1.8 0.3
v 0.4 1.9 0.3
v -0.9 1.6 0.2
v -0.9 1.9 0.2
v -0.9 2 0.2
v -0.8 1.7 0.2
v -0.8 1.9 0.2
v -0.8 2 0.2
v -0.7 1.6 0.2
v -0.5 1.6 0.2
v -0.5 1.7 0.2
v 0.5 1.6 0.2
v 0.5 1.7 0.2
v 0.7 1.6 0.2
v 0.8 1.7 0.2
v 0.8 1.9 0.2
v 0.8 2 0.2
v 0.9 1.6 0.2
v 0.9 1.9 0.2
v 0.9 2 0.2
v -0.7 1.5 0.0999999
v -0.7 1.6 0.0999999
v -0.5 1.5 0.0999999
v -0.5 1.6 0.0999999
v 0.5 1.5 0.0999999
v 0.5 1.6 0.0999999
v 0.7 1.5 0.0999999
v 0.7 1.6 0.0999999
v -0.6 0 -5.96046e-008
v -0.6 0.1 -5.96046e-008
v -0.6 0.5 -5.96046e-008
v -0.4 0 -5.96046e-008
v -0.4 0.1 -5.96046e-008
v -0.4 0.5 -5.96046e-008
v 0.4 0 -5.96046e-008
v 0.4 0.1 -5.96046e-008
v 0.4 0.5 -5.96046e-008
v 0.6 0 -5.96046e-008
v 0.6 0.1 -5.96046e-008
v 0.6 0.5 -5.96046e-008
v -0.5 1.1 -0.2
v -0.5 1.8 -0.2
v -0.4 1.1 -0.2
v 0.4 1.1 -0.2
v 0.5 1.1 -0.2
v 0.5 1.8 -0.2
v -0.4 1 -0.8
v -0.4 1.1 -0.8
v 0.4 1 -0.8
v 0.4 1.1 -0.8
v -0.5 0.9 -0.9
v -0.5 1 -0.9
v 0 0.9 -0.9
v 0 1 -0.9
v 0.1 0.9 -0.9
v 0.1 1 -0.9
v 0.5 0.9 -0.9
v 0.5 1 -0.9
v -0.6 0 -1
v -0.6 0.1 -1
v -0.6 0.9 -1
v -0.4 0 -1
v -0.4 0.1 -1
v -0.4 0.5 -1
v 0 0.9 -1
v 0 1 -1
v 0.1 0.9 -1
v 0.1 1 -1
v 0.4 0 -1
v 0.4 0.1 -1
v 0.4 0.5 -1
v 0.6 0 -1
v 0.6 0.1 -1
v 0.6 0.9 -1
v -0.1 1 -1.1
v -0.1 1.1 -1.1
v 0 1.1 -1.1
v 0.1 1 -1.1
v 0.1 1.1 -1.1
v -0.1 1.1 -1.2
v -0.1 1.2 -1.2
v -0.1 1.3 -1.2
v 0 1.1 -1.2
v 0 1.2 -1.2
v 0 1.3 -1.2
v -0.6 0 0.3
v -0.4 0 0.3
v 0.4 0 0.3
v 0.6 0 0.3
v -0.6 0 -5.96046e-008
v -0.4 0 -5.96046e-008
v 0.4 0 -5.96046e-008
v 0.6 0 -5.96046e-008
v -0.6 0 -0.7
v -0.4 0 -0.7
v 0.4 0 -0.7
v 0.6 0 -0.7
v -0.6 0 -1
v -0.4 0 -1
v 0.4 0 -1
v 0.6 0 -1
v -0.4 0.5 0.3
v 0.4 0.5 0.3
v -0.6 0.5 -5.96046e-008
v -0.4 0.5 -5.96046e-008
v 0.4 0.5 -5.96046e-008
v 0.6 0.5 -5.96046e-008
v -0.6 0.5 -0.7
v -0.4 0.5 -0.7
v 0.4 0.5 -0.7
v 0.6 0.5 -0.7
v -0.4 0.5 -1
v 0.4 0.5 -1
v -0.4 0.9 0.4
v 0.4 0.9 0.4
v -0.4 0.9 0.3
v 0.4 0.9 0.3
v -0.1 1 -1
v 0 1 -1
v 0.1 1 -1
v -0.1 1 -1.1
v 0.1 1 -1.1
v -0.2 1.1 0.6
v 0.2 1.1 0.6
v -0.2 1.1 0.5
v 0.2 1.1 0.5
v -0.5 1.1 0.4
v -0.4 1.1 0.4
v 0.4 1.1 0.4
v 0.5 1.1 0.4
v -0.5 1.1 -0.2
v -0.4 1.1 -0.2
v 0.4 1.1 -0.2
v 0.5 1.1 -0.2
v -0.1 1.1 -1.1
v 0 1.1 -1.1
v -0.1 1.1 -1.2
v 0 1.1 -1.2
v -0.3 1.2 0.5
v -0.2 1.2 0.5
v -0.1 1.2 0.5
v 0.1 1.2 0.5
v 0.2 1.2 0.5
v 0.3 1.2 0.5
v -0.3 1.2 0.4
v -0.2 1.2 0.4
v -0.1 1.2 0.4
v 0.1 1.2 0.4
v 0.2 1.2 0.4
v 0.3 1.2 0.4
v -0.2 1.4 0.5
v -0.1 1.4 0.5
v 0.1 1.4 0.5
v 0.2 1.4 0.5
v -0.2 1.4 0.4
v -0.1 1.4 0.4
v 0.1 1.4 0.4
v 0.2 1.4 0.4
v -0.7 1.5 0.2
v -0.5 1.5 0.2
v 0.5 1.5 0.2
v 0.7 1.5 0.2
v -0.7 1.5 0.0999999
v -0.5 1.5 0.0999999
v 0.5 1.5 0.0999999
v 0.7 1.5 0.0999999
v -0.9 1.6 0.3
v -0.5 1.6 0.3
v 0.5 1.6 0.3
v 0.9 1.6 0.3
v -0.9 1.6 0.2
v -0.7 1.6 0.2
v -0.5 1.6 0.2
v 0.5 1.6 0.2
v 0.7 1.6 0.2
v 0.9 1.6 0.2
v -0.6 0.9 0.3
v -0.5 0.9 0.3
v 0.5 0.9 0.3
v 0.6 0.9 0.3
v -0.5 0.9 -0.9
v 0 0.9 -0.9
v 0.1 0.9 -0.9
v 0.5 0.9 -0.9
v -0.6 0.9 -1
v 0 0.9 -1
v 0.1 0.9 -1
v 0.6 0.9 -1
v -0.5 1 0.3
v -0.4 1 0.3
v 0.4 1 0.3
v 0.5 1 0.3
v -0.4 1 -0.8
v 0.4 1 -0.8
v -0.5 1 -0.9
v 0 1 -0.9
v 0.1 1 -0.9
v 0.5 1 -0.9
v -0.4 1.1 -0.2
v 0.4 1.1 -0.2
v -0.4 1.1 -0.8
v 0.4 1.1 -0.8
v 0 1.1 -0.9
v 0.1 1.1 -0.9
v 0 1.1 -1
v 0 1.1 -1.1
v 0.1 1.1 -1.1
v -0.1 1.2 0.6
v 0.1 1.2 0.6
v -0.1 1.2 0.5
v 0.1 1.2 0.5
v -0.1 1.2 -1
v 0 1.2 -1
v -0.1 1.2 -1.1
v 0 1.2 -1.1
v -0.2 1.3 0.6
v -0.1 1.3 0.6
v 0.1 1.3 0.6
v 0.2 1.3 0.6
v -0.2 1.3 0.5
v -0.1 1.3 0.5
v 0.1 1.3 0.5
v 0.2 1.3 0.5
v -0.2 1.3 0.4
v -0.1 1.3 0.4
v 0.1 1.3 0.4
v 0.2 1.3 0.4
v -0.1 1.3 -1.1
v 0 1.3 -1.1
v -0.1 1.3 -1.2
v 0 1.3 -1.2
v -0.3 1.5 0.5
v 0.3 1.5 0.5
v -0.3 1.5 0.4
v -0.2 1.5 0.4
v -0.1 1.5 0.4
v 0.1 1.5 0.4
v 0.2 1.5 0.4
v 0.3 1.5 0.4
v -0.7 1.6 0.2
v -0.5 1.6 0.2
v 0.5 1.6 0.2
v 0.7 1.6 0.2
v -0.7 1.6 0.0999999
v -0.5 1.6 0.0999999
v 0.5 1.6 0.0999999
v 0.7 1.6 0.0999999
v -0.8 1.7 0.3
v -0.5 1.7 0.3
v 0.5 1.7 0.3
v 0.8 1.7 0.3
v -0.8 1.7 0.2
v -0.5 1.7 0.2
v 0.5 1.7 0.2
v 0.8 1.7 0.2
v -0.5 1.8 0.4
v -0.4 1.8 0.4
v 0.4 1.8 0.4
v 0.5 1.8 0.4
v -0.4 1.8 0.3
v 0.4 1.8 0.3
v -0.5 1.8 -0.2
v 0.5 1.8 -0.2
v -0.4 1.9 0.4
v 0.4 1.9 0.4
v -0.4 1.9 0.3
v 0.4 1.9 0.3
v -0.9 2 0.3
v -0.8 2 0.3
v 0.8 2 0.3
v 0.9 2 0.3
v -0.9 2 0.2
v -0.8 2 0.2
v 0.8 2 0.2
v 0.9 2 0.2

# faces
f 3/5/1 2/5/1 1/5/1
f 4/5/1 2/5/1 3/5/1
f 5/2/1 4/2/1 3/2/1
f 6/2/1 4/2/1 5/2/1
f 9/3/1 8/3/1 7/3/1
f 10/3/1 8/3/1 9/3/1
f 15/4/1 12/4/1 11/4/1
f 16/4/1 12/4/1 15/4/1
f 17/4/1 14/4/1 13/4/1
f 18/4/1 14/4/1 17/4/1
f 19/3/1 16/3/1 15/3/1
f 20/3/1 18/3/1 17/3/1
f 21/3/1 19/3/1 15/3/1
f 21/3/1 20/3/1 19/3/1
f 22/3/1 18/3/1 20/3/1
f 22/3/1 20/3/1 21/3/1
f 25/3/1 24/3/1 23/3/1
f 26/3/1 24/3/1 25/3/1
f 29/3/1 28/3/1 27/3/1
f 30/3/1 28/3/1 29/3/1
f 31/3/1 29/3/1 27/3/1
f 32/3/1 29/3/1 31/3/1
f 33/3/1 28/3/1 30/3/1
f 34/3/1 31/3/1 27/3/1
f 35/3/1 33/3/1 32/3/1
f 36/3/1 34/3/1 27/3/1
f 36/3/1 35/3/1 34/3/1
f 37/3/1 33/3/1 35/3/1
f 37/3/1 35/3/1 36/3/1
f 37/3/1 28/3/1 33/3/1
f 40/3/1 39/3/1 38/3/1
f 42/3/1 40/3/1 38/3/1
f 42/3/1 41/3/1 40/3/1
f 43/3/1 41/3/1 42/3/1
f 44/3/1 41/3/1 43/3/1
f 47/3/1 46/3/1 45/3/1
f 48/3/1 46/3/1 47/3/1
f 51/1/1 50/1/1 49/1/1
f 52/1/1 50/1/1 51/1/1
f 55/4/1 54/4/1 53/4/1
f 56/4/1 55/4/1 53/4/1
f 57/4/1 55/4/1 56/4/1
f 60/3/1 59/3/1 58/3/1
f 62/3/1 60/3/1 58/3/1
f 62/3/1 61/3/1 60/3/1
f 63/3/1 61/3/1 62/3/1
f 64/3/1 61/3/1 63/3/1
f 67/4/1 64/4/1 63/4/1
f 68/4/1 64/4/1 67/4/1
f 69/1/1 66/1/1 65/1/1
f 70/1/1 66/1/1 69/1/1
f 73/3/1 72/3/1 71/3/1
f 74/3/1 72/3/1 73/3/1
f 75/3/1 74/3/1 73/3/1
f 76/3/1 74/3/1 75/3/1
f 79/4/1 78/4/1 77/4/1
f 80/4/1 78/4/1 79/4/1
f 83/1/1 82/1/1 81/1/1
f 84/1/1 82/1/1 83/1/1
f 89/4/1 86/4/1 85/4/1
f 90/4/1 86/4/1 89/4/1
f 91/4/1 88/4/1 87/4/1
f 92/4/1 88/4/1 91/4/1
f 93/3/1 90/3/1 89/3/1
f 94/3/1 90/3/1 93/3/1
f 95/3/1 92/3/1 91/3/1
f 96/3/1 92/3/1 95/3/1
f 99/5/1 98/5/1 97/5/1
f 100/5/1 98/5/1 99/5/1
f 101/2/1 100/2/1 99/2/1
f 102/2/1 100/2/1 101/2/1
f 103/5/2 104/5/2 105/5/2
f 105/5/2 104/5/2 106/5/2
f 105/2/2 106/2/2 107/2/2
f 107/2/2 106/2/2 108/2/2
f 109/4/2 110/4/2 113/4/2
f 113/4/2 110/4/2 114/4/2
f 111/4/2 112/4/2 115/4/2
f 115/4/2 112/4/2 116/4/2
f 113/3/2 114/3/2 117/3/2
f 117/3/2 114/3/2 118/3/2
f 115/3/2 116/3/2 119/3/2
f 119/3/2 116/3/2 120/3/2
f 121/1/2 122/1/2 123/1/2
f 123/1/2 122/1/2 124/1/2
f 125/4/2 126/4/2 127/4/2
f 127/4/2 126/4/2 128/4/2
f 129/3/2 130/3/2 132/3/2
f 130/3/2 131/3/2 132/3/2
f 132/3/2 131/3/2 133/3/2
f 133/3/2 131/3/2 134/3/2
f 133/4/2 134/4/2 135/4/2
f 135/4/2 134/4/2 136/4/2
f 137/3/2 138/3/2 139/3/2
f 139/3/2 138/3/2 140/3/2
f 139/3/2 140/3/2 142/3/2
f 140/3/2 141/3/2 142/3/2
f 142/3/2 141/3/2 143/3/2
f 144/1/2 145/1/2 146/1/2
f 146/1/2 145/1/2 147/1/2
f 148/4/2 149/4/2 150/4/2
f 148/4/2 150/4/2 151/4/2
f 151/4/2 150/4/2 152/4/2
f 153/1/2 154/1/2 155/1/2
f 155/1/2 154/1/2 156/1/2
f 157/3/2 158/3/2 159/3/2
f 157/3/2 159/3/2 161/3/2
f 159/3/2 160/3/2 161/3/2
f 161/3/2 160/3/2 162/3/2
f 162/3/2 160/3/2 163/3/2
f 164/3/2 165/3/2 166/3/2
f 166/3/2 165/3/2 167/3/2
f 168/3/2 169/3/2 170/3/2
f 170/3/2 169/3/2 171/3/2
f 172/3/2 173/3/2 174/3/2
f 174/3/2 173/3/2 175/3/2
f 172/3/2 174/3/2 176/3/2
f 176/3/2 174/3/2 177/3/2
f 175/3/2 173/3/2 178/3/2
f 172/3/2 176/3/2 179/3/2
f 177/3/2 178/3/2 180/3/2
f 172/3/2 179/3/2 181/3/2
f 179/3/2 180/3/2 181/3/2
f 180/3/2 178/3/2 182/3/2
f 181/3/2 180/3/2 182/3/2
f 178/3/2 173/3/2 182/3/2
f 183/4/2 184/4/2 187/4/2
f 187/4/2 184/4/2 188/4/2
f 185/4/2 186/4/2 189/4/2
f 189/4/2 186/4/2 190/4/2
f 187/3/2 188/3/2 191/3/2
f 189/3/2 190/3/2 192/3/2
f 187/3/2 191/3/2 193/3/2
f 191/3/2 192/3/2 193/3/2
f 192/3/2 190/3/2 194/3/2
f 193/3/2 192/3/2 194/3/2
f 195/3/2 196/3/2 197/3/2
f 197/3/2 196/3/2 198/3/2
f 199/5/2 200/5/2 201/5/2
f 201/5/2 200/5/2 202/5/2
f 201/2/2 202/2/2 203/2/2
f 203/2/2 202/2/2 204/2/2
f 207/4/3 206/4/3 205/4/3
f 208/4/3 206/4/3 207/4/3
f 209/4/3 207/4/3 205/4/3
f 211/4/3 209/4/3 205/4/3
f 211/4/3 210/4/3 209/4/3
f 212/4/3 210/4/3 211/4/3
f 215/1/3 214/1/3 213/1/3
f 216/1/3 214/1/3 215/1/3
f 217/1/3 214/1/3 216/1/3
f 220/1/3 214/1/3 217/1/3
f 221/1/3 219/1/3 218/1/3
f 221/1/3 220/1/3 219/1/3
f 222/1/3 220/1/3 221/1/3
f 223/1/3 214/1/3 220/1/3
f 223/1/3 220/1/3 222/1/3
f 226/1/3 214/1/3 223/1/3
f 227/1/3 225/1/3 224/1/3
f 227/1/3 226/1/3 225/1/3
f 228/1/3 214/1/3 226/1/3
f 228/1/3 226/1/3 227/1/3
f 232/3/3 230/3/3 229/3/3
f 233/3/3 230/3/3 232/3/3
f 235/3/3 232/3/3 231/3/3
f 235/3/3 234/3/3 233/3/3
f 235/3/3 233/3/3 232/3/3
f 236/3/3 234/3/3 235/3/3
f 237/3/3 234/3/3 236/3/3
f 238/3/3 234/3/3 237/3/3
f 239/3/3 235/3/3 231/3/3
f 242/4/3 237/4/3 236/4/3
f 243/4/3 237/4/3 242/4/3
f 244/3/3 239/3/3 231/3/3
f 245/3/3 241/3/3 240/3/3
f 246/3/3 241/3/3 245/3/3
f 247/6/3 243/6/3 242/6/3
f 248/4/3 237/4/3 243/4/3
f 248/6/3 243/6/3 247/6/3
f 249/7/3 238/7/3 237/7/3
f 249/4/3 237/4/3 248/4/3
f 250/3/3 234/3/3 238/3/3
f 250/7/3 238/7/3 249/7/3
f 251/3/3 244/3/3 231/3/3
f 254/3/3 248/3/3 247/3/3
f 255/7/3 249/7/3 248/7/3
f 255/3/3 248/3/3 254/3/3
f 256/3/3 250/3/3 249/3/3
f 256/7/3 249/7/3 255/7/3
f 257/3/3 234/3/3 250/3/3
f 257/3/3 250/3/3 256/3/3
f 258/3/3 251/3/3 231/3/3
f 259/3/3 253/3/3 252/3/3
f 260/3/3 253/3/3 259/3/3
f 261/6/3 255/6/3 254/6/3
f 262/4/3 256/4/3 255/4/3
f 262/6/3 255/6/3 261/6/3
f 263/3/3 258/3/3 231/3/3
f 264/4/3 262/4/3 261/4/3
f 265/4/3 256/4/3 262/4/3
f 265/7/3 257/7/3 256/7/3
f 265/4/3 262/4/3 264/4/3
f 266/3/3 234/3/3 257/3/3
f 266/7/3 257/7/3 265/7/3
f 267/3/3 264/3/3 263/3/3
f 267/3/3 263/3/3 231/3/3
f 267/3/3 266/3/3 265/3/3
f 267/3/3 265/3/3 264/3/3
f 268/3/3 266/3/3 267/3/3
f 269/3/3 234/3/3 266/3/3
f 269/3/3 266/3/3 268/3/3
f 270/3/3 234/3/3 269/3/3
f 271/3/3 269/3/3 268/3/3
f 272/3/3 269/3/3 271/3/3
f 276/5/3 274/5/3 273/5/3
f 277/2/3 275/2/3 274/2/3
f 277/5/3 274/5/3 276/5/3
f 278/2/3 275/2/3 277/2/3
f 282/3/3 281/3/3 280/3/3
f 284/5/3 276/5/3 273/5/3
f 285/5/3 276/5/3 284/5/3
f 286/4/3 280/4/3 279/4/3
f 287/3/3 283/3/3 282/3/3
f 287/4/3 280/4/3 286/4/3
f 287/3/3 282/3/3 280/3/3
f 288/3/3 283/3/3 287/3/3
f 289/3/3 283/3/3 288/3/3
f 290/3/3 283/3/3 289/3/3
f 293/3/3 289/3/3 288/3/3
f 294/3/3 289/3/3 293/3/3
f 296/3/3 293/3/3 292/3/3
f 296/3/3 295/3/3 294/3/3
f 296/3/3 294/3/3 293/3/3
f 297/3/3 295/3/3 296/3/3
f 300/4/3 292/4/3 291/4/3
f 301/3/3 296/3/3 292/3/3
f 301/4/3 292/4/3 300/4/3
f 302/3/3 296/3/3 301/3/3
f 303/5/3 299/5/3 298/5/3
f 306/5/3 303/5/3 298/5/3
f 306/5/3 304/5/3 303/5/3
f 307/2/3 305/2/3 304/2/3
f 307/5/3 304/5/3 306/5/3
f 308/2/3 305/2/3 307/2/3
f 311/3/3 310/3/3 309/3/3
f 312/3/3 310/3/3 311/3/3
f 315/3/3 314/3/3 313/3/3
f 316/3/3 314/3/3 315/3/3
f 320/4/3 318/4/3 317/4/3
f 321/3/3 319/3/3 318/3/3
f 321/4/3 318/4/3 320/4/3
f 322/3/3 319/3/3 321/3/3
f 326/4/3 324/4/3 323/4/3
f 327/3/3 325/3/3 324/3/3
f 327/4/3 324/4/3 326/4/3
f 328/3/3 325/3/3 327/3/3
f 331/3/3 330/3/3 329/3/3
f 332/3/3 330/3/3 331/3/3
f 335/3/3 334/3/3 333/3/3
f 336/3/3 334/3/3 335/3/3
f 337/3/3 334/3/3 336/3/3
f 340/4/3 339/4/3 338/4/3
f 341/4/3 339/4/3 340/4/3
f 342/4/4 343/4/4 344/4/4
f 342/4/4 344/4/4 345/4/4
f 342/4/4 345/4/4 346/4/4
f 346/4/4 345/4/4 347/4/4
f 348/3/4 349/3/4 350/3/4
f 350/3/4 349/3/4 351/3/4
f 352/5/4 353/5/4 355/5/4
f 353/2/4 354/2/4 356/2/4
f 355/5/4 353/5/4 356/5/4
f 356/2/4 354/2/4 357/2/4
f 352/5/4 355/5/4 358/5/4
f 358/5/4 355/5/4 359/5/4
f 359/5/4 355/5/4 360/5/4
f 361/5/4 362/5/4 363/5/4
f 363/5/4 362/5/4 364/5/4
f 363/5/4 364/5/4 367/5/4
f 364/5/4 365/5/4 367/5/4
f 365/2/4 366/2/4 368/2/4
f 367/5/4 365/5/4 368/5/4
f 368/2/4 366/2/4 369/2/4
f 370/3/4 371/3/4 372/3/4
f 372/3/4 371/3/4 373/3/4
f 374/3/4 375/3/4 376/3/4
f 376/3/4 375/3/4 377/3/4
f 378/4/4 379/4/4 381/4/4
f 379/3/4 380/3/4 382/3/4
f 381/4/4 379/4/4 382/4/4
f 382/3/4 380/3/4 383/3/4
f 384/4/4 385/4/4 387/4/4
f 385/3/4 386/3/4 388/3/4
f 387/4/4 385/4/4 388/4/4
f 388/3/4 386/3/4 389/3/4
f 390/3/4 391/3/4 392/3/4
f 392/3/4 391/3/4 393/3/4
f 393/3/4 391/3/4 394/3/4
f 394/3/4 391/3/4 395/3/4
f 396/3/4 397/3/4 398/3/4
f 398/3/4 397/3/4 399/3/4
f 400/3/4 401/3/4 402/3/4
f 402/3/4 401/3/4 403/3/4
f 404/3/4 405/3/4 406/3/4
f 406/3/4 405/3/4 407/3/4
f 408/4/4 409/4/4 411/4/4
f 409/3/4 410/3/4 412/3/4
f 411/4/4 409/4/4 412/4/4
f 412/3/4 410/3/4 413/3/4
f 413/3/4 410/3/4 414/3/4
f 413/3/4 414/3/4 416/3/4
f 414/3/4 415/3/4 416/3/4
f 416/3/4 415/3/4 417/3/4
f 413/3/4 416/3/4 420/3/4
f 418/4/4 419/4/4 421/4/4
f 419/3/4 420/3/4 422/3/4
f 421/4/4 419/4/4 422/4/4
f 420/3/4 416/3/4 423/3/4
f 422/3/4 420/3/4 423/3/4
f 424/3/4 425/3/4 426/3/4
f 424/3/4 426/3/4 427/3/4
f 427/3/4 426/3/4 428/3/4
f 429/3/4 430/3/4 432/3/4
f 430/4/4 431/4/4 433/4/4
f 432/3/4 430/3/4 433/3/4
f 433/4/4 431/4/4 434/4/4
f 439/4/5 436/4/5 435/4/5
f 440/4/5 436/4/5 439/4/5
f 441/4/5 438/4/5 437/4/5
f 442/4/5 438/4/5 441/4/5
f 447/4/5 444/4/5 443/4/5
f 448/4/5 444/4/5 447/4/5
f 449/4/5 446/4/5 445/4/5
f 450/4/5 446/4/5 449/4/5
f 454/3/5 452/3/5 451/3/5
f 455/3/5 452/3/5 454/3/5
f 457/3/5 454/3/5 453/3/5
f 457/3/5 456/3/5 455/3/5
f 457/3/5 455/3/5 454/3/5
f 458/3/5 456/3/5 457/3/5
f 459/3/5 456/3/5 458/3/5
f 460/3/5 456/3/5 459/3/5
f 461/3/5 459/3/5 458/3/5
f 462/3/5 459/3/5 461/3/5
f 465/3/5 464/3/5 463/3/5
f 466/3/5 464/3/5 465/3/5
f 470/3/5 468/3/5 467/3/5
f 470/3/5 469/3/5 468/3/5
f 471/3/5 469/3/5 470/3/5
f 474/4/5 473/4/5 472/4/5
f 475/4/5 473/4/5 474/4/5
f 480/3/5 477/3/5 476/3/5
f 481/3/5 477/3/5 480/3/5
f 482/3/5 479/3/5 478/3/5
f 483/3/5 479/3/5 482/3/5
f 486/3/5 485/3/5 484/3/5
f 487/3/5 485/3/5 486/3/5
f 494/1/5 489/1/5 488/1/5
f 495/4/5 490/4/5 489/4/5
f 495/1/5 489/1/5 494/1/5
f 496/1/5 491/1/5 490/1/5
f 496/4/5 490/4/5 495/4/5
f 497/4/5 492/4/5 491/4/5
f 497/1/5 491/1/5 496/1/5
f 498/1/5 493/1/5 492/1/5
f 498/4/5 492/4/5 497/4/5
f 499/1/5 493/1/5 498/1/5
f 504/1/5 501/1/5 500/1/5
f 505/1/5 501/1/5 504/1/5
f 506/1/5 503/1/5 502/1/5
f 507/1/5 503/1/5 506/1/5
f 512/3/5 509/3/5 508/3/5
f 513/3/5 509/3/5 512/3/5
f 514/3/5 511/3/5 510/3/5
f 515/3/5 511/3/5 514/3/5
f 520/5/5 517/5/5 516/5/5
f 521/5/5 517/5/5 520/5/5
f 522/5/5 517/5/5 521/5/5
f 523/5/5 519/5/5 518/5/5
f 524/5/5 519/5/5 523/5/5
f 525/5/5 519/5/5 524/5/5
f 526/3/6 527/3/6 530/3/6
f 528/3/6 529/3/6 533/3/6
f 530/3/6 531/3/6 534/3/6
f 526/3/6 530/3/6 534/3/6
f 534/3/6 531/3/6 535/3/6
f 532/3/6 533/3/6 536/3/6
f 533/3/6 529/3/6 537/3/6
f 536/3/6 533/3/6 537/3/6
f 538/3/6 539/3/6 542/3/6
f 540/3/6 541/3/6 543/3/6
f 538/3/6 542/3/6 544/3/6
f 542/3/6 543/3/6 544/3/6
f 544/3/6 543/3/6 545/3/6
f 545/3/6 543/3/6 546/3/6
f 543/3/6 541/3/6 547/3/6
f 546/3/6 543/3/6 547/3/6
f 548/3/6 549/3/6 550/3/6
f 550/3/6 549/3/6 551/3/6
f 552/3/6 553/3/6 554/3/6
f 554/3/6 553/3/6 555/3/6
f 555/3/6 553/3/6 556/3/6
f 557/4/6 558/4/6 559/4/6
f 559/4/6 558/4/6 560/4/6
f 561/3/6 562/3/6 563/3/6
f 563/3/6 562/3/6 564/3/6
f 565/4/6 566/4/6 569/4/6
f 569/4/6 566/4/6 570/4/6
f 567/4/6 568/4/6 571/4/6
f 571/4/6 568/4/6 572/4/6
f 569/4/6 570/4/6 573/4/6
f 573/4/6 570/4/6 574/4/6
f 571/4/6 572/4/6 575/4/6
f 575/4/6 572/4/6 576/4/6
f 577/4/6 578/4/6 579/4/6
f 579/4/6 578/4/6 580/4/6
f 581/1/6 582/1/6 583/1/6
f 583/1/6 582/1/6 584/1/6
f 584/1/6 582/1/6 585/1/6
f 585/1/6 582/1/6 586/1/6
f 586/1/6 582/1/6 587/1/6
f 587/1/6 582/1/6 588/1/6
f 589/3/6 590/3/6 593/3/6
f 593/3/6 590/3/6 594/3/6
f 591/3/6 592/3/6 595/3/6
f 595/3/6 592/3/6 596/3/6
f 597/5/6 598/5/6 601/5/6
f 601/5/6 598/5/6 602/5/6
f 599/5/6 600/5/6 603/5/6
f 603/5/6 600/5/6 604/5/6
f 605/3/6 606/3/6 609/3/6
f 607/3/6 608/3/6 610/3/6
f 605/3/6 609/3/6 611/3/6
f 609/3/6 610/3/6 611/3/6
f 610/3/6 608/3/6 612/3/6
f 611/3/6 610/3/6 612/3/6
f 613/3/6 614/3/6 615/3/6
f 615/3/6 614/3/6 616/3/6
f 617/2/6 618/2/6 621/2/6
f 621/2/6 618/2/6 622/2/6
f 619/2/6 620/2/6 623/2/6
f 623/2/6 620/2/6 624/2/6
