# MagicaVoxel @ Ephtracy

# group
o 

# material
mtllib Head.mtl
usemtl palette

# normals
vn -1 0 0
vn 1 0 0
vn 0 0 1
vn 0 0 -1
vn 0 -1 0
vn 0 1 0

# texcoords
vt 0.939453 0.5
vt 0.970703 0.5
vt 0.974609 0.5
vt 0.978516 0.5
vt 0.982422 0.5
vt 0.986328 0.5

# verts
v 0 2.4 -0.1
v 0 2.4 -1.6
v 0 3.1 -0.1
v 0 3.1 -1.2
v 0 3.2 0
v 0 3.2 -0.4
v 0 3.2 -0.9
v 0 3.2 -1
v 0 3.3 0
v 0 3.3 -0.1
v 0 3.5 -0.7
v 0 3.5 -0.9
v 0 3.6 -0.7
v 0 3.6 -1
v 0 3.7 -0.4
v 0 3.7 -1.2
v 0 3.8 -0.1
v 0 3.8 -1.6
v 0.1 2.2 0
v 0.1 2.2 -0.1
v 0.1 2.3 -0.1
v 0.1 2.3 -1.1
v 0.1 2.4 -0.1
v 0.1 2.4 -1.1
v 0.1 2.4 -1.6
v 0.1 2.4 -1.7
v 0.1 3.1 0
v 0.1 3.1 -0.1
v 0.1 3.1 -1.2
v 0.1 3.2 -0.1
v 0.1 3.2 -0.4
v 0.1 3.2 -0.9
v 0.1 3.2 -1
v 0.1 3.3 0
v 0.1 3.3 -0.1
v 0.1 3.5 -0.7
v 0.1 3.5 -0.9
v 0.1 3.6 -0.7
v 0.1 3.6 -1
v 0.1 3.7 -0.4
v 0.1 3.7 -1.2
v 0.1 3.8 0
v 0.1 3.8 -0.1
v 0.1 3.8 -1.6
v 0.1 3.8 -1.7
v 0.1 3.9 -0.1
v 0.1 3.9 -1.6
v 0.2 2.1 0
v 0.2 2.1 -0.1
v 0.2 2.2 0
v 0.2 2.2 -0.1
v 0.7 2 0
v 0.7 2 -0.1
v 0.7 2.3 -0.1
v 0.7 2.4 0
v 0.7 2.4 -0.1
v 0.7 2.5 0
v 0.7 2.5 -0.1
v 0.7 2.6 0
v 0.7 2.6 -0.1
v 0.7 3.1 -1.7
v 0.7 3.1 -1.9
v 0.7 3.8 -1.7
v 0.7 3.8 -1.9
v 0.7 3.9 -0.1
v 0.7 3.9 -1.6
v 0.7 3.9 -1.7
v 0.7 3.9 -1.8
v 0.7 3.9 -1.9
v 0.7 4 -0.1
v 0.7 4 -0.3
v 0.7 4.1 -0.3
v 0.7 4.1 -1.6
v 0.7 4.1 -1.7
v 0.7 4.1 -1.8
v 0.8 3.6 0
v 0.8 3.6 -0.1
v 0.8 3.7 0
v 0.8 3.7 -0.1
v 0.9 3.5 0
v 0.9 3.5 -0.1
v 0.9 3.6 0
v 0.9 3.6 -0.1
v 1.2 2.5 0
v 1.2 2.5 -0.1
v 1.2 2.6 0
v 1.2 2.6 -0.1
v 1.3 2.9 0
v 1.3 2.9 -0.1
v 1.3 3 0
v 1.3 3 -0.1
v 1.4 2.3 0
v 1.4 2.3 -0.1
v 1.4 2.4 0
v 1.4 2.4 -0.1
v 1.4 2.6 0
v 1.4 2.6 -0.1
v 1.4 2.8 0
v 1.4 2.8 -0.1
v 1.4 3 0
v 1.4 3 -0.1
v 1.4 3.1 0
v 1.4 3.1 -0.1
v 1.5 2.1 0
v 1.5 2.1 -0.1
v 1.5 2.3 0
v 1.5 2.3 -0.1
v 1.5 3.6 0
v 1.5 3.6 -0.1
v 1.5 3.7 0
v 1.5 3.7 -0.1
v 1.6 3.3 0
v 1.6 3.3 -0.1
v 1.6 3.6 0
v 1.6 3.6 -0.1
v 0.2 3.2 0
v 0.2 3.2 -0.1
v 0.2 3.5 0
v 0.2 3.5 -0.1
v 0.3 2.1 0
v 0.3 2.1 -0.1
v 0.3 2.3 0
v 0.3 2.3 -0.1
v 0.3 3.5 0
v 0.3 3.5 -0.1
v 0.3 3.6 0
v 0.3 3.6 -0.1
v 0.4 2.3 0
v 0.4 2.3 -0.1
v 0.4 2.4 0
v 0.4 2.4 -0.1
v 0.4 2.6 0
v 0.4 2.6 -0.1
v 0.4 2.8 0
v 0.4 2.8 -0.1
v 0.4 3 0
v 0.4 3 -0.1
v 0.4 3.1 0
v 0.4 3.1 -0.1
v 0.4 3.6 0
v 0.4 3.6 -0.1
v 0.4 3.7 0
v 0.4 3.7 -0.1
v 0.5 2.9 0
v 0.5 2.9 -0.1
v 0.5 3 0
v 0.5 3 -0.1
v 0.6 2.5 0
v 0.6 2.5 -0.1
v 0.6 2.6 0
v 0.6 2.6 -0.1
v 1 3.5 0
v 1 3.5 -0.1
v 1 3.7 0
v 1 3.7 -0.1
v 1.1 2 0
v 1.1 2 -0.1
v 1.1 2.3 -0.1
v 1.1 2.4 0
v 1.1 2.4 -0.1
v 1.1 2.5 0
v 1.1 2.5 -0.1
v 1.1 2.6 0
v 1.1 2.6 -0.1
v 1.1 3.1 -1.7
v 1.1 3.1 -1.9
v 1.1 3.8 -1.7
v 1.1 3.8 -1.9
v 1.1 3.9 -0.1
v 1.1 3.9 -1.6
v 1.1 3.9 -1.7
v 1.1 3.9 -1.8
v 1.1 3.9 -1.9
v 1.1 4 -0.1
v 1.1 4 -0.3
v 1.1 4.1 -0.3
v 1.1 4.1 -1.6
v 1.1 4.1 -1.7
v 1.1 4.1 -1.8
v 1.6 2.1 0
v 1.6 2.1 -0.1
v 1.6 2.2 0
v 1.6 2.2 -0.1
v 1.7 2.2 0
v 1.7 2.2 -0.1
v 1.7 2.3 -0.1
v 1.7 2.3 -1.1
v 1.7 2.4 -0.1
v 1.7 2.4 -1.1
v 1.7 2.4 -1.6
v 1.7 2.4 -1.7
v 1.7 3.1 0
v 1.7 3.1 -0.1
v 1.7 3.1 -1.2
v 1.7 3.2 -0.1
v 1.7 3.2 -0.4
v 1.7 3.2 -0.9
v 1.7 3.2 -1
v 1.7 3.3 0
v 1.7 3.3 -0.1
v 1.7 3.5 -0.7
v 1.7 3.5 -0.9
v 1.7 3.6 -0.7
v 1.7 3.6 -1
v 1.7 3.7 -0.4
v 1.7 3.7 -1.2
v 1.7 3.8 0
v 1.7 3.8 -0.1
v 1.7 3.8 -1.6
v 1.7 3.8 -1.7
v 1.7 3.9 -0.1
v 1.7 3.9 -1.6
v 1.8 2.4 -0.1
v 1.8 2.4 -1.6
v 1.8 3.1 -0.1
v 1.8 3.1 -1.2
v 1.8 3.2 -0.1
v 1.8 3.2 -0.4
v 1.8 3.2 -0.9
v 1.8 3.2 -1
v 1.8 3.5 -0.7
v 1.8 3.5 -0.9
v 1.8 3.6 -0.7
v 1.8 3.6 -1
v 1.8 3.7 -0.4
v 1.8 3.7 -1.2
v 1.8 3.8 -0.1
v 1.8 3.8 -1.6
v 0 3.2 0
v 0 3.3 0
v 0.1 2.2 0
v 0.1 3.1 0
v 0.1 3.3 0
v 0.1 3.8 0
v 0.2 2.1 0
v 0.2 2.2 0
v 0.2 3.2 0
v 0.2 3.5 0
v 0.3 2.1 0
v 0.3 2.3 0
v 0.3 3.5 0
v 0.3 3.6 0
v 0.4 2.3 0
v 0.4 2.4 0
v 0.4 2.6 0
v 0.4 2.8 0
v 0.4 3 0
v 0.4 3.1 0
v 0.4 3.6 0
v 0.4 3.7 0
v 0.5 2.9 0
v 0.5 3 0
v 0.6 2.5 0
v 0.6 2.6 0
v 0.7 2 0
v 0.7 2.4 0
v 0.7 2.5 0
v 0.7 2.6 0
v 0.8 3.6 0
v 0.8 3.7 0
v 0.9 3.5 0
v 0.9 3.6 0
v 1 3.5 0
v 1 3.7 0
v 1.1 2 0
v 1.1 2.4 0
v 1.1 2.5 0
v 1.1 2.6 0
v 1.2 2.5 0
v 1.2 2.6 0
v 1.3 2.9 0
v 1.3 3 0
v 1.4 2.3 0
v 1.4 2.4 0
v 1.4 2.6 0
v 1.4 2.8 0
v 1.4 3 0
v 1.4 3.1 0
v 1.5 2.1 0
v 1.5 2.3 0
v 1.5 3.6 0
v 1.5 3.7 0
v 1.6 2.1 0
v 1.6 2.2 0
v 1.6 3.3 0
v 1.6 3.6 0
v 1.7 2.2 0
v 1.7 3.1 0
v 1.7 3.3 0
v 1.7 3.8 0
v 0 2.4 -0.1
v 0 3.1 -0.1
v 0 3.3 -0.1
v 0 3.8 -0.1
v 0.1 2.4 -0.1
v 0.1 3.1 -0.1
v 0.1 3.2 -0.1
v 0.1 3.3 -0.1
v 0.1 3.8 -0.1
v 0.1 3.9 -0.1
v 0.2 3.2 -0.1
v 0.2 3.5 -0.1
v 0.3 3.5 -0.1
v 0.3 3.6 -0.1
v 0.4 2.3 -0.1
v 0.4 2.4 -0.1
v 0.4 2.6 -0.1
v 0.4 2.8 -0.1
v 0.4 3 -0.1
v 0.4 3.1 -0.1
v 0.4 3.5 -0.1
v 0.4 3.6 -0.1
v 0.4 3.7 -0.1
v 0.5 2.9 -0.1
v 0.5 3 -0.1
v 0.5 3.2 -0.1
v 0.5 3.4 -0.1
v 0.6 2.5 -0.1
v 0.6 2.6 -0.1
v 0.6 2.7 -0.1
v 0.6 2.8 -0.1
v 0.6 3.2 -0.1
v 0.6 3.3 -0.1
v 0.6 3.4 -0.1
v 0.6 3.5 -0.1
v 0.7 2.3 -0.1
v 0.7 2.4 -0.1
v 0.7 2.5 -0.1
v 0.7 2.6 -0.1
v 0.7 2.7 -0.1
v 0.7 3.2 -0.1
v 0.7 3.3 -0.1
v 0.7 3.4 -0.1
v 0.7 3.5 -0.1
v 0.7 3.6 -0.1
v 0.7 3.9 -0.1
v 0.7 4 -0.1
v 0.8 3.4 -0.1
v 0.8 3.5 -0.1
v 0.8 3.6 -0.1
v 0.8 3.7 -0.1
v 0.9 3.5 -0.1
v 0.9 3.6 -0.1
v 1 3.4 -0.1
v 1 3.5 -0.1
v 1 3.7 -0.1
v 1.1 2.3 -0.1
v 1.1 2.4 -0.1
v 1.1 2.5 -0.1
v 1.1 2.6 -0.1
v 1.1 2.7 -0.1
v 1.1 3.2 -0.1
v 1.1 3.3 -0.1
v 1.1 3.4 -0.1
v 1.1 3.5 -0.1
v 1.1 3.6 -0.1
v 1.1 3.9 -0.1
v 1.1 4 -0.1
v 1.2 2.5 -0.1
v 1.2 2.6 -0.1
v 1.2 2.7 -0.1
v 1.2 2.8 -0.1
v 1.2 3.2 -0.1
v 1.2 3.3 -0.1
v 1.2 3.4 -0.1
v 1.2 3.5 -0.1
v 1.3 2.9 -0.1
v 1.3 3 -0.1
v 1.3 3.2 -0.1
v 1.3 3.4 -0.1
v 1.4 2.3 -0.1
v 1.4 2.4 -0.1
v 1.4 2.6 -0.1
v 1.4 2.8 -0.1
v 1.4 3 -0.1
v 1.4 3.1 -0.1
v 1.4 3.5 -0.1
v 1.4 3.6 -0.1
v 1.5 3.6 -0.1
v 1.5 3.7 -0.1
v 1.6 3.3 -0.1
v 1.6 3.6 -0.1
v 1.7 2.4 -0.1
v 1.7 3.1 -0.1
v 1.7 3.2 -0.1
v 1.7 3.3 -0.1
v 1.7 3.8 -0.1
v 1.7 3.9 -0.1
v 1.8 2.4 -0.1
v 1.8 3.1 -0.1
v 1.8 3.2 -0.1
v 1.8 3.8 -0.1
v 0.7 4 -0.3
v 0.7 4.1 -0.3
v 1.1 4 -0.3
v 1.1 4.1 -0.3
v 0 3.5 -0.7
v 0 3.6 -0.7
v 0.1 3.5 -0.7
v 0.1 3.6 -0.7
v 1.7 3.5 -0.7
v 1.7 3.6 -0.7
v 1.8 3.5 -0.7
v 1.8 3.6 -0.7
v 0 3.2 -0.9
v 0 3.5 -0.9
v 0.1 3.2 -0.9
v 0.1 3.5 -0.9
v 1.7 3.2 -0.9
v 1.7 3.5 -0.9
v 1.8 3.2 -0.9
v 1.8 3.5 -0.9
v 0 3.1 -1.2
v 0 3.7 -1.2
v 0.1 3.1 -1.2
v 0.1 3.7 -1.2
v 1.7 3.1 -1.2
v 1.7 3.7 -1.2
v 1.8 3.1 -1.2
v 1.8 3.7 -1.2
v 0.7 3.8 -1.7
v 0.7 3.9 -1.7
v 1.1 3.8 -1.7
v 1.1 3.9 -1.7
v 0.1 2.2 -0.1
v 0.1 2.3 -0.1
v 0.2 2.1 -0.1
v 0.2 2.2 -0.1
v 0.3 2.1 -0.1
v 0.3 2.3 -0.1
v 0.7 2 -0.1
v 0.7 2.3 -0.1
v 1.1 2 -0.1
v 1.1 2.3 -0.1
v 1.5 2.1 -0.1
v 1.5 2.3 -0.1
v 1.6 2.1 -0.1
v 1.6 2.2 -0.1
v 1.7 2.2 -0.1
v 1.7 2.3 -0.1
v 0 3.2 -0.4
v 0 3.7 -0.4
v 0.1 3.2 -0.4
v 0.1 3.7 -0.4
v 1.7 3.2 -0.4
v 1.7 3.7 -0.4
v 1.8 3.2 -0.4
v 1.8 3.7 -0.4
v 0 3.2 -1
v 0 3.6 -1
v 0.1 3.2 -1
v 0.1 3.6 -1
v 1.7 3.2 -1
v 1.7 3.6 -1
v 1.8 3.2 -1
v 1.8 3.6 -1
v 0.1 2.3 -1.1
v 0.1 2.4 -1.1
v 1.7 2.3 -1.1
v 1.7 2.4 -1.1
v 0 2.4 -1.6
v 0 3.8 -1.6
v 0.1 2.4 -1.6
v 0.1 3.8 -1.6
v 0.1 3.9 -1.6
v 0.7 3.9 -1.6
v 1.1 3.9 -1.6
v 1.7 2.4 -1.6
v 1.7 3.8 -1.6
v 1.7 3.9 -1.6
v 1.8 2.4 -1.6
v 1.8 3.8 -1.6
v 0.1 2.4 -1.7
v 0.1 3.8 -1.7
v 0.7 3.1 -1.7
v 0.7 3.8 -1.7
v 1.1 3.1 -1.7
v 1.1 3.8 -1.7
v 1.7 2.4 -1.7
v 1.7 3.8 -1.7
v 0.7 3.9 -1.8
v 0.7 4.1 -1.8
v 1.1 3.9 -1.8
v 1.1 4.1 -1.8
v 0.7 3.1 -1.9
v 0.7 3.8 -1.9
v 0.7 3.9 -1.9
v 1.1 3.1 -1.9
v 1.1 3.8 -1.9
v 1.1 3.9 -1.9
v 0.7 2 0
v 1.1 2 0
v 0.7 2 -0.1
v 1.1 2 -0.1
v 0.2 2.1 0
v 0.3 2.1 0
v 1.5 2.1 0
v 1.6 2.1 0
v 0.2 2.1 -0.1
v 0.3 2.1 -0.1
v 1.5 2.1 -0.1
v 1.6 2.1 -0.1
v 0.1 2.2 0
v 0.2 2.2 0
v 1.6 2.2 0
v 1.7 2.2 0
v 0.1 2.2 -0.1
v 0.2 2.2 -0.1
v 1.6 2.2 -0.1
v 1.7 2.2 -0.1
v 0.3 2.3 0
v 0.4 2.3 0
v 1.4 2.3 0
v 1.5 2.3 0
v 0.1 2.3 -0.1
v 0.3 2.3 -0.1
v 0.4 2.3 -0.1
v 0.7 2.3 -0.1
v 1.1 2.3 -0.1
v 1.4 2.3 -0.1
v 1.5 2.3 -0.1
v 1.7 2.3 -0.1
v 0.1 2.3 -1.1
v 1.7 2.3 -1.1
v 0.4 2.4 0
v 0.7 2.4 0
v 1.1 2.4 0
v 1.4 2.4 0
v 0 2.4 -0.1
v 0.1 2.4 -0.1
v 0.4 2.4 -0.1
v 0.7 2.4 -0.1
v 1.1 2.4 -0.1
v 1.4 2.4 -0.1
v 1.7 2.4 -0.1
v 1.8 2.4 -0.1
v 0.1 2.4 -1.1
v 1.7 2.4 -1.1
v 0 2.4 -1.6
v 0.1 2.4 -1.6
v 1.7 2.4 -1.6
v 1.8 2.4 -1.6
v 0.1 2.4 -1.7
v 1.7 2.4 -1.7
v 0.4 2.8 0
v 1.4 2.8 0
v 0.4 2.8 -0.1
v 0.6 2.8 -0.1
v 1.2 2.8 -0.1
v 1.4 2.8 -0.1
v 0.7 3.1 -1.7
v 1.1 3.1 -1.7
v 0.7 3.1 -1.9
v 1.1 3.1 -1.9
v 0 3.2 0
v 0.2 3.2 0
v 0.1 3.2 -0.1
v 0.2 3.2 -0.1
v 1.7 3.2 -0.1
v 1.8 3.2 -0.1
v 0 3.2 -0.4
v 0.1 3.2 -0.4
v 1.7 3.2 -0.4
v 1.8 3.2 -0.4
v 0 3.2 -0.9
v 0.1 3.2 -0.9
v 1.7 3.2 -0.9
v 1.8 3.2 -0.9
v 0 3.2 -1
v 0.1 3.2 -1
v 1.7 3.2 -1
v 1.8 3.2 -1
v 1.6 3.3 0
v 1.7 3.3 0
v 1.6 3.3 -0.1
v 1.7 3.3 -0.1
v 0.2 3.5 0
v 0.3 3.5 0
v 0.9 3.5 0
v 1 3.5 0
v 0.2 3.5 -0.1
v 0.3 3.5 -0.1
v 0.9 3.5 -0.1
v 1 3.5 -0.1
v 0 3.5 -0.7
v 0.1 3.5 -0.7
v 1.7 3.5 -0.7
v 1.8 3.5 -0.7
v 0 3.5 -0.9
v 0.1 3.5 -0.9
v 1.7 3.5 -0.9
v 1.8 3.5 -0.9
v 0.3 3.6 0
v 0.4 3.6 0
v 0.8 3.6 0
v 0.9 3.6 0
v 1.5 3.6 0
v 1.6 3.6 0
v 0.3 3.6 -0.1
v 0.4 3.6 -0.1
v 0.8 3.6 -0.1
v 0.9 3.6 -0.1
v 1.5 3.6 -0.1
v 1.6 3.6 -0.1
v 0.4 3.7 0
v 0.8 3.7 0
v 1 3.7 0
v 1.5 3.7 0
v 0.4 3.7 -0.1
v 0.8 3.7 -0.1
v 1 3.7 -0.1
v 1.5 3.7 -0.1
v 0 3.7 -0.4
v 0.1 3.7 -0.4
v 1.7 3.7 -0.4
v 1.8 3.7 -0.4
v 0 3.7 -1.2
v 0.1 3.7 -1.2
v 1.7 3.7 -1.2
v 1.8 3.7 -1.2
v 0.7 3.9 -1.6
v 1.1 3.9 -1.6
v 0.7 3.9 -1.7
v 1.1 3.9 -1.7
v 0.6 2.5 0
v 0.7 2.5 0
v 1.1 2.5 0
v 1.2 2.5 0
v 0.6 2.5 -0.1
v 0.7 2.5 -0.1
v 1.1 2.5 -0.1
v 1.2 2.5 -0.1
v 0.4 2.6 0
v 0.6 2.6 0
v 0.7 2.6 0
v 1.1 2.6 0
v 1.2 2.6 0
v 1.4 2.6 0
v 0.4 2.6 -0.1
v 0.6 2.6 -0.1
v 0.7 2.6 -0.1
v 1.1 2.6 -0.1
v 1.2 2.6 -0.1
v 1.4 2.6 -0.1
v 0.5 2.9 0
v 1.3 2.9 0
v 0.5 2.9 -0.1
v 1.3 2.9 -0.1
v 0.4 3 0
v 0.5 3 0
v 1.3 3 0
v 1.4 3 0
v 0.4 3 -0.1
v 0.5 3 -0.1
v 1.3 3 -0.1
v 1.4 3 -0.1
v 0.1 3.1 0
v 0.4 3.1 0
v 1.4 3.1 0
v 1.7 3.1 0
v 0 3.1 -0.1
v 0.1 3.1 -0.1
v 0.4 3.1 -0.1
v 1.4 3.1 -0.1
v 1.7 3.1 -0.1
v 1.8 3.1 -0.1
v 0 3.1 -1.2
v 0.1 3.1 -1.2
v 1.7 3.1 -1.2
v 1.8 3.1 -1.2
v 0 3.3 0
v 0.1 3.3 0
v 0 3.3 -0.1
v 0.1 3.3 -0.1
v 0 3.6 -0.7
v 0.1 3.6 -0.7
v 1.7 3.6 -0.7
v 1.8 3.6 -0.7
v 0 3.6 -1
v 0.1 3.6 -1
v 1.7 3.6 -1
v 1.8 3.6 -1
v 0.1 3.8 0
v 1.7 3.8 0
v 0 3.8 -0.1
v 0.1 3.8 -0.1
v 1.7 3.8 -0.1
v 1.8 3.8 -0.1
v 0 3.8 -1.6
v 0.1 3.8 -1.6
v 1.7 3.8 -1.6
v 1.8 3.8 -1.6
v 0.1 3.8 -1.7
v 0.7 3.8 -1.7
v 1.1 3.8 -1.7
v 1.7 3.8 -1.7
v 0.1 3.9 -0.1
v 0.7 3.9 -0.1
v 1.1 3.9 -0.1
v 1.7 3.9 -0.1
v 0.1 3.9 -1.6
v 0.7 3.9 -1.6
v 1.1 3.9 -1.6
v 1.7 3.9 -1.6
v 0.7 3.9 -1.8
v 1.1 3.9 -1.8
v 0.7 3.9 -1.9
v 1.1 3.9 -1.9
v 0.7 4 -0.1
v 1.1 4 -0.1
v 0.7 4 -0.3
v 1.1 4 -0.3
v 0.7 4.1 -0.3
v 1.1 4.1 -0.3
v 0.7 4.1 -1.6
v 1.1 4.1 -1.6
v 0.7 4.1 -1.7
v 1.1 4.1 -1.7
v 0.7 4.1 -1.8
v 1.1 4.1 -1.8

# faces
f 3/3/1 2/3/1 1/3/1
f 4/3/1 2/3/1 3/3/1
f 9/3/1 6/3/1 5/3/1
f 10/3/1 6/3/1 9/3/1
f 12/2/1 8/2/1 7/2/1
f 13/2/1 12/2/1 11/2/1
f 14/2/1 8/2/1 12/2/1
f 14/2/1 12/2/1 13/2/1
f 15/3/1 6/3/1 10/3/1
f 16/3/1 2/3/1 4/3/1
f 17/3/1 15/3/1 10/3/1
f 17/3/1 16/3/1 15/3/1
f 18/3/1 2/3/1 16/3/1
f 18/3/1 16/3/1 17/3/1
f 21/3/1 20/3/1 19/3/1
f 23/3/1 21/3/1 19/3/1
f 23/3/1 22/3/1 21/3/1
f 24/3/1 22/3/1 23/3/1
f 27/3/1 23/3/1 19/3/1
f 28/3/1 23/3/1 27/3/1
f 30/2/1 29/2/1 28/2/1
f 31/2/1 29/2/1 30/2/1
f 32/2/1 29/2/1 31/2/1
f 33/2/1 29/2/1 32/2/1
f 36/2/1 32/2/1 31/2/1
f 37/2/1 32/2/1 36/2/1
f 38/2/1 36/2/1 31/2/1
f 39/2/1 29/2/1 33/2/1
f 40/2/1 38/2/1 31/2/1
f 40/2/1 39/2/1 38/2/1
f 41/2/1 29/2/1 39/2/1
f 41/2/1 39/2/1 40/2/1
f 42/3/1 35/3/1 34/3/1
f 43/3/1 35/3/1 42/3/1
f 44/3/1 26/3/1 25/3/1
f 45/3/1 26/3/1 44/3/1
f 46/3/1 44/3/1 43/3/1
f 47/3/1 44/3/1 46/3/1
f 50/3/1 49/3/1 48/3/1
f 51/3/1 49/3/1 50/3/1
f 54/3/1 53/3/1 52/3/1
f 55/3/1 54/3/1 52/3/1
f 56/3/1 54/3/1 55/3/1
f 59/3/1 58/3/1 57/3/1
f 60/3/1 58/3/1 59/3/1
f 63/3/1 62/3/1 61/3/1
f 64/3/1 62/3/1 63/3/1
f 67/6/1 64/6/1 63/6/1
f 68/6/1 64/6/1 67/6/1
f 69/6/1 64/6/1 68/6/1
f 70/3/1 66/3/1 65/3/1
f 71/3/1 66/3/1 70/3/1
f 72/3/1 66/3/1 71/3/1
f 73/6/1 67/6/1 66/6/1
f 73/3/1 66/3/1 72/3/1
f 74/3/1 68/3/1 67/3/1
f 74/6/1 67/6/1 73/6/1
f 75/3/1 68/3/1 74/3/1
f 78/3/1 77/3/1 76/3/1
f 79/3/1 77/3/1 78/3/1
f 82/3/1 81/3/1 80/3/1
f 83/3/1 81/3/1 82/3/1
f 86/3/1 85/3/1 84/3/1
f 87/3/1 85/3/1 86/3/1
f 90/3/1 89/3/1 88/3/1
f 91/3/1 89/3/1 90/3/1
f 94/3/1 93/3/1 92/3/1
f 95/3/1 93/3/1 94/3/1
f 98/3/1 97/3/1 96/3/1
f 99/3/1 97/3/1 98/3/1
f 102/3/1 101/3/1 100/3/1
f 103/3/1 101/3/1 102/3/1
f 106/3/1 105/3/1 104/3/1
f 107/3/1 105/3/1 106/3/1
f 110/3/1 109/3/1 108/3/1
f 111/3/1 109/3/1 110/3/1
f 114/3/1 113/3/1 112/3/1
f 115/3/1 113/3/1 114/3/1
f 116/3/2 117/3/2 118/3/2
f 118/3/2 117/3/2 119/3/2
f 120/3/2 121/3/2 122/3/2
f 122/3/2 121/3/2 123/3/2
f 124/3/2 125/3/2 126/3/2
f 126/3/2 125/3/2 127/3/2
f 128/3/2 129/3/2 130/3/2
f 130/3/2 129/3/2 131/3/2
f 132/3/2 133/3/2 134/3/2
f 134/3/2 133/3/2 135/3/2
f 136/3/2 137/3/2 138/3/2
f 138/3/2 137/3/2 139/3/2
f 140/3/2 141/3/2 142/3/2
f 142/3/2 141/3/2 143/3/2
f 144/3/2 145/3/2 146/3/2
f 146/3/2 145/3/2 147/3/2
f 148/3/2 149/3/2 150/3/2
f 150/3/2 149/3/2 151/3/2
f 152/3/2 153/3/2 154/3/2
f 154/3/2 153/3/2 155/3/2
f 156/3/2 157/3/2 158/3/2
f 156/3/2 158/3/2 159/3/2
f 159/3/2 158/3/2 160/3/2
f 161/3/2 162/3/2 163/3/2
f 163/3/2 162/3/2 164/3/2
f 165/3/2 166/3/2 167/3/2
f 167/3/2 166/3/2 168/3/2
f 167/6/2 168/6/2 171/6/2
f 171/6/2 168/6/2 172/6/2
f 172/6/2 168/6/2 173/6/2
f 169/3/2 170/3/2 174/3/2
f 174/3/2 170/3/2 175/3/2
f 175/3/2 170/3/2 176/3/2
f 170/6/2 171/6/2 177/6/2
f 176/3/2 170/3/2 177/3/2
f 171/3/2 172/3/2 178/3/2
f 177/6/2 171/6/2 178/6/2
f 178/3/2 172/3/2 179/3/2
f 180/3/2 181/3/2 182/3/2
f 182/3/2 181/3/2 183/3/2
f 184/3/2 185/3/2 186/3/2
f 184/3/2 186/3/2 188/3/2
f 186/3/2 187/3/2 188/3/2
f 188/3/2 187/3/2 189/3/2
f 184/3/2 188/3/2 192/3/2
f 192/3/2 188/3/2 193/3/2
f 193/2/2 194/2/2 195/2/2
f 195/2/2 194/2/2 196/2/2
f 196/2/2 194/2/2 197/2/2
f 197/2/2 194/2/2 198/2/2
f 196/2/2 197/2/2 201/2/2
f 201/2/2 197/2/2 202/2/2
f 196/2/2 201/2/2 203/2/2
f 198/2/2 194/2/2 204/2/2
f 196/2/2 203/2/2 205/2/2
f 203/2/2 204/2/2 205/2/2
f 204/2/2 194/2/2 206/2/2
f 205/2/2 204/2/2 206/2/2
f 199/3/2 200/3/2 207/3/2
f 207/3/2 200/3/2 208/3/2
f 190/3/2 191/3/2 209/3/2
f 209/3/2 191/3/2 210/3/2
f 208/3/2 209/3/2 211/3/2
f 211/3/2 209/3/2 212/3/2
f 213/3/2 214/3/2 215/3/2
f 215/3/2 214/3/2 216/3/2
f 219/2/2 220/2/2 222/2/2
f 221/2/2 222/2/2 223/2/2
f 222/2/2 220/2/2 224/2/2
f 223/2/2 222/2/2 224/2/2
f 217/3/2 218/3/2 225/3/2
f 216/3/2 214/3/2 226/3/2
f 217/3/2 225/3/2 227/3/2
f 225/3/2 226/3/2 227/3/2
f 226/3/2 214/3/2 228/3/2
f 227/3/2 226/3/2 228/3/2
f 233/3/3 230/3/3 229/3/3
f 236/3/3 232/3/3 231/3/3
f 237/3/3 234/3/3 233/3/3
f 237/3/3 233/3/3 229/3/3
f 238/3/3 234/3/3 237/3/3
f 239/3/3 236/3/3 235/3/3
f 240/3/3 232/3/3 236/3/3
f 240/3/3 236/3/3 239/3/3
f 241/3/3 234/3/3 238/3/3
f 242/3/3 234/3/3 241/3/3
f 243/3/3 232/3/3 240/3/3
f 244/3/3 232/3/3 243/3/3
f 245/3/3 232/3/3 244/3/3
f 246/3/3 232/3/3 245/3/3
f 247/3/3 232/3/3 246/3/3
f 248/3/3 232/3/3 247/3/3
f 249/3/3 234/3/3 242/3/3
f 250/3/3 234/3/3 249/3/3
f 251/3/3 247/3/3 246/3/3
f 252/3/3 247/3/3 251/3/3
f 253/3/3 245/3/3 244/3/3
f 254/3/3 245/3/3 253/3/3
f 256/3/3 253/3/3 244/3/3
f 257/3/3 253/3/3 256/3/3
f 260/3/3 234/3/3 250/3/3
f 262/3/3 260/3/3 259/3/3
f 263/3/3 262/3/3 261/3/3
f 264/3/3 234/3/3 260/3/3
f 264/3/3 262/3/3 263/3/3
f 264/3/3 260/3/3 262/3/3
f 265/3/3 256/3/3 255/3/3
f 265/3/3 258/3/3 257/3/3
f 265/3/3 257/3/3 256/3/3
f 266/3/3 258/3/3 265/3/3
f 267/3/3 258/3/3 266/3/3
f 268/3/3 258/3/3 267/3/3
f 269/3/3 267/3/3 266/3/3
f 271/3/3 251/3/3 246/3/3
f 274/3/3 270/3/3 269/3/3
f 274/3/3 269/3/3 266/3/3
f 275/3/3 270/3/3 274/3/3
f 276/3/3 272/3/3 271/3/3
f 276/3/3 271/3/3 246/3/3
f 277/3/3 272/3/3 276/3/3
f 280/3/3 275/3/3 274/3/3
f 280/3/3 278/3/3 277/3/3
f 280/3/3 277/3/3 276/3/3
f 280/3/3 276/3/3 275/3/3
f 280/3/3 274/3/3 273/3/3
f 282/3/3 234/3/3 264/3/3
f 283/3/3 280/3/3 279/3/3
f 284/3/3 280/3/3 283/3/3
f 286/3/3 282/3/3 281/3/3
f 287/3/3 280/3/3 284/3/3
f 288/3/3 278/3/3 280/3/3
f 288/3/3 280/3/3 287/3/3
f 289/3/3 286/3/3 285/3/3
f 290/3/3 234/3/3 282/3/3
f 290/3/3 286/3/3 289/3/3
f 290/3/3 282/3/3 286/3/3
f 295/3/3 292/3/3 291/3/3
f 296/3/3 292/3/3 295/3/3
f 298/3/3 294/3/3 293/3/3
f 299/3/3 294/3/3 298/3/3
f 301/2/3 297/2/3 296/2/3
f 303/2/3 302/2/3 301/2/3
f 310/2/3 301/2/3 296/2/3
f 310/2/3 303/2/3 301/2/3
f 310/2/3 304/2/3 303/2/3
f 311/2/3 304/2/3 310/2/3
f 312/2/3 304/2/3 311/2/3
f 315/2/3 310/2/3 309/2/3
f 315/2/3 311/2/3 310/2/3
f 316/2/3 311/2/3 315/2/3
f 317/2/3 311/2/3 316/2/3
f 319/2/3 308/2/3 307/2/3
f 320/2/3 308/2/3 319/2/3
f 321/2/3 308/2/3 320/2/3
f 322/2/3 315/2/3 314/2/3
f 322/2/3 316/2/3 315/2/3
f 322/4/3 317/4/3 316/4/3
f 323/4/3 317/4/3 322/4/3
f 324/2/3 311/2/3 317/2/3
f 324/4/3 317/4/3 323/4/3
f 325/3/3 312/3/3 311/3/3
f 325/2/3 311/2/3 324/2/3
f 326/3/3 306/3/3 305/3/3
f 327/3/3 306/3/3 326/3/3
f 328/2/3 320/2/3 319/2/3
f 328/2/3 319/2/3 318/2/3
f 329/2/3 320/2/3 328/2/3
f 330/1/3 321/1/3 320/1/3
f 330/2/3 320/2/3 329/2/3
f 331/3/3 323/3/3 322/3/3
f 331/2/3 322/2/3 314/2/3
f 332/5/3 324/5/3 323/5/3
f 332/3/3 323/3/3 331/3/3
f 333/4/3 325/4/3 324/4/3
f 333/5/3 324/5/3 332/5/3
f 334/3/3 312/3/3 325/3/3
f 334/4/3 325/4/3 333/4/3
f 335/2/3 313/2/3 312/2/3
f 335/3/3 312/3/3 334/3/3
f 336/3/3 300/3/3 299/3/3
f 338/2/3 333/2/3 332/2/3
f 338/3/3 334/3/3 333/3/3
f 338/2/3 332/2/3 331/2/3
f 339/2/3 335/2/3 334/2/3
f 339/3/3 334/3/3 338/3/3
f 340/2/3 313/2/3 335/2/3
f 340/2/3 335/2/3 339/2/3
f 341/2/3 313/2/3 340/2/3
f 342/2/3 339/2/3 338/2/3
f 342/2/3 340/2/3 339/2/3
f 343/2/3 340/2/3 342/2/3
f 344/2/3 338/2/3 331/2/3
f 344/2/3 342/2/3 338/2/3
f 345/2/3 342/2/3 344/2/3
f 350/1/3 330/1/3 329/1/3
f 351/1/3 321/1/3 330/1/3
f 351/1/3 330/1/3 350/1/3
f 352/2/3 331/2/3 314/2/3
f 352/2/3 344/2/3 331/2/3
f 353/2/3 344/2/3 352/2/3
f 354/3/3 345/3/3 344/3/3
f 354/2/3 344/2/3 353/2/3
f 355/2/3 346/2/3 345/2/3
f 355/3/3 345/3/3 354/3/3
f 356/2/3 346/2/3 355/2/3
f 357/3/3 337/3/3 336/3/3
f 357/3/3 336/3/3 299/3/3
f 358/3/3 337/3/3 357/3/3
f 359/2/3 350/2/3 349/2/3
f 359/2/3 351/2/3 350/2/3
f 360/2/3 351/2/3 359/2/3
f 361/1/3 321/1/3 351/1/3
f 361/2/3 351/2/3 360/2/3
f 362/1/3 321/1/3 361/1/3
f 363/3/3 353/3/3 352/3/3
f 363/2/3 352/2/3 314/2/3
f 364/5/3 354/5/3 353/5/3
f 364/3/3 353/3/3 363/3/3
f 365/4/3 355/4/3 354/4/3
f 365/5/3 354/5/3 364/5/3
f 366/3/3 356/3/3 355/3/3
f 366/4/3 355/4/3 365/4/3
f 367/2/3 363/2/3 314/2/3
f 368/2/3 363/2/3 367/2/3
f 369/4/3 365/4/3 364/4/3
f 369/2/3 363/2/3 368/2/3
f 369/4/3 364/4/3 363/4/3
f 370/2/3 366/2/3 365/2/3
f 370/4/3 365/4/3 369/4/3
f 371/3/3 348/3/3 347/3/3
f 372/3/3 348/3/3 371/3/3
f 373/2/3 362/2/3 361/2/3
f 373/2/3 361/2/3 360/2/3
f 374/2/3 362/2/3 373/2/3
f 375/2/3 370/2/3 369/2/3
f 375/2/3 369/2/3 368/2/3
f 376/2/3 370/2/3 375/2/3
f 377/2/3 366/2/3 370/2/3
f 377/2/3 370/2/3 376/2/3
f 377/3/3 356/3/3 366/3/3
f 378/2/3 346/2/3 356/2/3
f 378/3/3 356/3/3 377/3/3
f 379/2/3 377/2/3 376/2/3
f 379/2/3 346/2/3 378/2/3
f 379/2/3 378/2/3 377/2/3
f 380/2/3 346/2/3 379/2/3
f 381/2/3 379/2/3 376/2/3
f 382/2/3 379/2/3 381/2/3
f 384/2/3 381/2/3 376/2/3
f 385/2/3 381/2/3 384/2/3
f 386/2/3 381/2/3 385/2/3
f 387/3/3 357/3/3 299/3/3
f 388/3/3 357/3/3 387/3/3
f 389/3/3 384/3/3 383/3/3
f 390/3/3 384/3/3 389/3/3
f 391/3/3 386/3/3 385/3/3
f 391/3/3 387/3/3 386/3/3
f 392/3/3 387/3/3 391/3/3
f 395/3/3 394/3/3 393/3/3
f 396/3/3 394/3/3 395/3/3
f 399/2/3 398/2/3 397/2/3
f 400/2/3 398/2/3 399/2/3
f 403/2/3 402/2/3 401/2/3
f 404/2/3 402/2/3 403/2/3
f 407/2/3 406/2/3 405/2/3
f 408/2/3 406/2/3 407/2/3
f 411/2/3 410/2/3 409/2/3
f 412/2/3 410/2/3 411/2/3
f 415/3/3 414/3/3 413/3/3
f 416/3/3 414/3/3 415/3/3
f 419/3/3 418/3/3 417/3/3
f 420/3/3 418/3/3 419/3/3
f 423/6/3 422/6/3 421/6/3
f 424/6/3 422/6/3 423/6/3
f 425/3/4 426/3/4 428/3/4
f 427/3/4 428/3/4 429/3/4
f 428/3/4 426/3/4 430/3/4
f 429/3/4 428/3/4 430/3/4
f 431/3/4 432/3/4 433/3/4
f 433/3/4 432/3/4 434/3/4
f 435/3/4 436/3/4 437/3/4
f 437/3/4 436/3/4 438/3/4
f 438/3/4 436/3/4 439/3/4
f 439/3/4 436/3/4 440/3/4
f 441/3/4 442/3/4 443/3/4
f 443/3/4 442/3/4 444/3/4
f 445/3/4 446/3/4 447/3/4
f 447/3/4 446/3/4 448/3/4
f 449/2/4 450/2/4 451/2/4
f 451/2/4 450/2/4 452/2/4
f 453/2/4 454/2/4 455/2/4
f 455/2/4 454/2/4 456/2/4
f 457/3/4 458/3/4 459/3/4
f 459/3/4 458/3/4 460/3/4
f 461/3/4 462/3/4 463/3/4
f 463/3/4 462/3/4 464/3/4
f 464/3/4 465/3/4 466/3/4
f 464/3/4 466/3/4 467/3/4
f 464/3/4 467/3/4 469/3/4
f 469/3/4 467/3/4 470/3/4
f 468/3/4 469/3/4 471/3/4
f 471/3/4 469/3/4 472/3/4
f 473/3/4 474/3/4 475/3/4
f 475/3/4 474/3/4 476/3/4
f 473/3/4 475/3/4 477/3/4
f 473/3/4 477/3/4 479/3/4
f 477/3/4 478/3/4 479/3/4
f 479/3/4 478/3/4 480/3/4
f 481/3/4 482/3/4 483/3/4
f 483/3/4 482/3/4 484/3/4
f 485/3/4 486/3/4 488/3/4
f 486/6/4 487/6/4 489/6/4
f 488/3/4 486/3/4 489/3/4
f 489/6/4 487/6/4 490/6/4
f 493/3/5 492/3/5 491/3/5
f 494/3/5 492/3/5 493/3/5
f 499/3/5 496/3/5 495/3/5
f 500/3/5 496/3/5 499/3/5
f 501/3/5 498/3/5 497/3/5
f 502/3/5 498/3/5 501/3/5
f 507/3/5 504/3/5 503/3/5
f 508/3/5 504/3/5 507/3/5
f 509/3/5 506/3/5 505/3/5
f 510/3/5 506/3/5 509/3/5
f 516/3/5 512/3/5 511/3/5
f 517/3/5 512/3/5 516/3/5
f 520/3/5 514/3/5 513/3/5
f 521/3/5 514/3/5 520/3/5
f 523/3/5 519/3/5 518/3/5
f 523/3/5 522/3/5 521/3/5
f 523/3/5 521/3/5 520/3/5
f 523/3/5 520/3/5 519/3/5
f 523/3/5 516/3/5 515/3/5
f 523/3/5 518/3/5 517/3/5
f 523/3/5 517/3/5 516/3/5
f 524/3/5 522/3/5 523/3/5
f 531/3/5 526/3/5 525/3/5
f 532/3/5 526/3/5 531/3/5
f 533/3/5 528/3/5 527/3/5
f 534/3/5 528/3/5 533/3/5
f 537/3/5 530/3/5 529/3/5
f 538/3/5 536/3/5 535/3/5
f 539/3/5 537/3/5 529/3/5
f 540/2/5 538/2/5 537/2/5
f 540/3/5 537/3/5 539/3/5
f 541/3/5 536/3/5 538/3/5
f 541/2/5 538/2/5 540/2/5
f 542/3/5 536/3/5 541/3/5
f 543/3/5 541/3/5 540/3/5
f 544/3/5 541/3/5 543/3/5
f 547/3/5 546/3/5 545/3/5
f 548/3/5 546/3/5 547/3/5
f 549/3/5 546/3/5 548/3/5
f 550/3/5 546/3/5 549/3/5
f 553/3/5 552/3/5 551/3/5
f 554/3/5 552/3/5 553/3/5
f 557/3/5 556/3/5 555/3/5
f 558/3/5 556/3/5 557/3/5
f 561/3/5 557/3/5 555/3/5
f 562/3/5 557/3/5 561/3/5
f 563/3/5 560/3/5 559/3/5
f 564/3/5 560/3/5 563/3/5
f 569/2/5 566/2/5 565/2/5
f 570/2/5 566/2/5 569/2/5
f 571/2/5 568/2/5 567/2/5
f 572/2/5 568/2/5 571/2/5
f 575/3/5 574/3/5 573/3/5
f 576/3/5 574/3/5 575/3/5
f 581/3/5 578/3/5 577/3/5
f 582/3/5 578/3/5 581/3/5
f 583/3/5 580/3/5 579/3/5
f 584/3/5 580/3/5 583/3/5
f 589/2/5 586/2/5 585/2/5
f 590/2/5 586/2/5 589/2/5
f 591/2/5 588/2/5 587/2/5
f 592/2/5 588/2/5 591/2/5
f 599/3/5 594/3/5 593/3/5
f 600/3/5 594/3/5 599/3/5
f 601/3/5 596/3/5 595/3/5
f 602/3/5 596/3/5 601/3/5
f 603/3/5 598/3/5 597/3/5
f 604/3/5 598/3/5 603/3/5
f 609/3/5 606/3/5 605/3/5
f 610/3/5 606/3/5 609/3/5
f 611/3/5 608/3/5 607/3/5
f 612/3/5 608/3/5 611/3/5
f 617/3/5 614/3/5 613/3/5
f 618/3/5 614/3/5 617/3/5
f 619/3/5 616/3/5 615/3/5
f 620/3/5 616/3/5 619/3/5
f 623/6/5 622/6/5 621/6/5
f 624/6/5 622/6/5 623/6/5
f 625/3/6 626/3/6 629/3/6
f 629/3/6 626/3/6 630/3/6
f 627/3/6 628/3/6 631/3/6
f 631/3/6 628/3/6 632/3/6
f 633/3/6 634/3/6 639/3/6
f 639/3/6 634/3/6 640/3/6
f 635/3/6 636/3/6 641/3/6
f 641/3/6 636/3/6 642/3/6
f 637/3/6 638/3/6 643/3/6
f 643/3/6 638/3/6 644/3/6
f 645/3/6 646/3/6 647/3/6
f 647/3/6 646/3/6 648/3/6
f 649/3/6 650/3/6 653/3/6
f 653/3/6 650/3/6 654/3/6
f 651/3/6 652/3/6 655/3/6
f 655/3/6 652/3/6 656/3/6
f 657/3/6 658/3/6 662/3/6
f 662/3/6 658/3/6 663/3/6
f 659/3/6 660/3/6 664/3/6
f 664/3/6 660/3/6 665/3/6
f 661/3/6 662/3/6 667/3/6
f 667/3/6 662/3/6 668/3/6
f 665/3/6 666/3/6 669/3/6
f 669/3/6 666/3/6 670/3/6
f 671/3/6 672/3/6 673/3/6
f 673/3/6 672/3/6 674/3/6
f 675/2/6 676/2/6 679/2/6
f 679/2/6 676/2/6 680/2/6
f 677/2/6 678/2/6 681/2/6
f 681/2/6 678/2/6 682/2/6
f 683/3/6 684/3/6 686/3/6
f 686/3/6 684/3/6 687/3/6
f 685/3/6 686/3/6 689/3/6
f 689/3/6 686/3/6 690/3/6
f 687/3/6 688/3/6 691/3/6
f 691/3/6 688/3/6 692/3/6
f 690/3/6 691/3/6 693/3/6
f 693/3/6 691/3/6 694/3/6
f 694/3/6 691/3/6 695/3/6
f 695/3/6 691/3/6 696/3/6
f 697/3/6 698/3/6 701/3/6
f 701/3/6 698/3/6 702/3/6
f 699/3/6 700/3/6 703/3/6
f 703/3/6 700/3/6 704/3/6
f 705/6/6 706/6/6 707/6/6
f 707/6/6 706/6/6 708/6/6
f 709/3/6 710/3/6 711/3/6
f 711/3/6 710/3/6 712/3/6
f 713/3/6 714/3/6 715/3/6
f 715/3/6 714/3/6 716/3/6
f 715/6/6 716/6/6 717/6/6
f 717/6/6 716/6/6 718/6/6
f 717/3/6 718/3/6 719/3/6
f 719/3/6 718/3/6 720/3/6
