# MagicaVoxel @ Ephtracy

# group
o 

# material
mtllib Agent_Vanilla.mtl
usemtl palette

# normals
vn -1 0 0
vn 1 0 0
vn 0 0 1
vn 0 0 -1
vn 0 -1 0
vn 0 1 0

# texcoords
vt 0.0605469 0.5
vt 0.845703 0.5
vt 0.908203 0.5
vt 0.962891 0.5
vt 0.982422 0.5
vt 0.986328 0.5
vt 0.990234 0.5
vt 0.994141 0.5

# verts
v -0.5 0.7 0
v -0.5 0.7 -0.1
v -0.5 0.8 0
v -0.5 0.8 -0.1
v -0.5 1.2 0
v -0.5 1.2 -0.1
v -0.4 0 0.2
v -0.4 0 -0.2
v -0.4 0.1 0.2
v -0.4 0.1 0.1
v -0.4 0.1 -0.2
v -0.4 0.7 0.1
v -0.4 0.7 0
v -0.4 0.7 -0.1
v -0.4 0.7 -0.2
v -0.4 0.8 0
v -0.4 0.8 -0.1
v -0.4 1.1 0.1
v -0.4 1.1 0
v -0.4 1.1 -0.1
v -0.4 1.1 -0.2
v -0.4 1.4 0
v -0.4 1.4 -0.1
v -0.4 1.5 0
v -0.4 1.5 -0.1
v -0.3 1.1 0.1
v -0.3 1.1 0
v -0.3 1.1 -0.1
v -0.3 1.1 -0.2
v -0.3 1.2 0.1
v -0.3 1.2 0
v -0.3 1.2 -0.1
v -0.3 1.2 -0.2
v -0.3 1.3 0.1
v -0.3 1.3 -0.2
v -0.3 1.4 0.1
v -0.3 1.4 0
v -0.3 1.4 -0.1
v -0.3 1.5 0
v -0.3 1.5 -0.1
v -0.3 1.5 -0.2
v -0.3 1.6 0.1
v -0.3 1.6 -0.2
v -0.3 1.7 0.1
v -0.3 1.7 -0.2
v -0.2 1.2 0.1
v -0.2 1.2 -0.2
v -0.2 1.3 0.1
v -0.2 1.3 -0.2
v -0.2 1.7 0.1
v -0.2 1.7 -0.2
v -0.2 2 0.1
v -0.2 2 -0.2
v 0.1 0 0.2
v 0.1 0 -0.2
v 0.1 0.1 0.2
v 0.1 0.1 0.1
v 0.1 0.1 -0.2
v 0.1 0.5 0.1
v 0.1 0.5 -0.2
v 0.1 1.1 0
v 0.1 1.1 -0.1
v 0.1 1.2 0
v 0.1 1.2 -0.1
v 0.1 1.3 0
v 0.1 1.3 -0.1
v 0.1 1.4 0
v 0.1 1.5 0
v 0.1 1.5 -0.1
v 0.2 0.7 0
v 0.2 0.7 -0.1
v 0.2 1.1 0
v 0.2 1.1 -0.1
v 0.4 1.1 0.4
v 0.4 1.1 0.3
v 0.4 1.1 0.2
v 0.4 1.1 0
v 0.4 1.2 0.5
v 0.4 1.2 0.4
v 0.4 1.2 0.3
v 0.4 1.2 0.2
v 0.4 1.2 0
v 0.4 1.3 0.5
v 0.4 1.3 0.3
v -0.3 0.7 0
v -0.3 0.7 -0.1
v -0.3 1.1 0
v -0.3 1.1 -0.1
v -0.2 0 0.2
v -0.2 0 -0.2
v -0.2 0.1 0.2
v -0.2 0.1 0.1
v -0.2 0.1 -0.2
v -0.2 0.5 0.1
v -0.2 0.5 -0.2
v -0.2 1.1 0
v -0.2 1.1 -0.1
v -0.2 1.2 0
v -0.2 1.2 -0.1
v -0.2 1.3 0
v -0.2 1.3 -0.1
v -0.2 1.4 0
v -0.2 1.5 0
v -0.2 1.5 -0.1
v 0.1 1.2 0.1
v 0.1 1.2 -0.2
v 0.1 1.3 0.1
v 0.1 1.3 -0.2
v 0.1 1.7 0.1
v 0.1 1.7 -0.2
v 0.1 1.8 0
v 0.1 1.8 -0.1
v 0.1 2 0.1
v 0.1 2 0
v 0.1 2 -0.1
v 0.1 2 -0.2
v 0.2 1.1 0.1
v 0.2 1.1 0
v 0.2 1.1 -0.1
v 0.2 1.1 -0.2
v 0.2 1.2 0.1
v 0.2 1.2 0
v 0.2 1.2 -0.1
v 0.2 1.2 -0.2
v 0.2 1.3 0.1
v 0.2 1.3 -0.2
v 0.2 1.4 0.1
v 0.2 1.4 0
v 0.2 1.4 -0.1
v 0.2 1.5 0
v 0.2 1.5 -0.1
v 0.2 1.5 -0.2
v 0.2 1.6 0.1
v 0.2 1.6 -0.2
v 0.2 1.7 0.1
v 0.2 1.7 -0.2
v 0.3 0 0.2
v 0.3 0 -0.2
v 0.3 0.1 0.2
v 0.3 0.1 0.1
v 0.3 0.1 -0.2
v 0.3 0.7 0.1
v 0.3 0.7 -0.2
v 0.3 1.1 0.1
v 0.3 1.1 0
v 0.3 1.1 -0.1
v 0.3 1.1 -0.2
v 0.3 1.4 0
v 0.3 1.4 -0.1
v 0.3 1.5 0
v 0.3 1.5 -0.1
v 0.5 1.1 0.4
v 0.5 1.1 0.3
v 0.5 1.1 0.2
v 0.5 1.1 -0.1
v 0.5 1.2 0.5
v 0.5 1.2 0.4
v 0.5 1.2 0.3
v 0.5 1.2 0.2
v 0.5 1.2 -0.1
v 0.5 1.3 0.5
v 0.5 1.3 0.3
v 0.4 1.2 0.5
v 0.4 1.3 0.5
v 0.5 1.2 0.5
v 0.5 1.3 0.5
v 0.4 1.1 0.4
v 0.4 1.2 0.4
v 0.5 1.1 0.4
v 0.5 1.2 0.4
v -0.4 0 0.2
v -0.4 0.1 0.2
v -0.2 0 0.2
v -0.2 0.1 0.2
v 0.1 0 0.2
v 0.1 0.1 0.2
v 0.3 0 0.2
v 0.3 0.1 0.2
v -0.4 0.1 0.1
v -0.4 0.7 0.1
v -0.4 1.1 0.1
v -0.3 1.1 0.1
v -0.3 1.2 0.1
v -0.3 1.3 0.1
v -0.3 1.4 0.1
v -0.3 1.6 0.1
v -0.3 1.7 0.1
v -0.2 0.1 0.1
v -0.2 0.5 0.1
v -0.2 0.7 0.1
v -0.2 1.2 0.1
v -0.2 1.3 0.1
v -0.2 1.7 0.1
v -0.2 2 0.1
v -0.1 0.8 0.1
v -0.1 1.2 0.1
v -0.1 1.4 0.1
v -0.1 1.5 0.1
v 0 0.8 0.1
v 0 1.2 0.1
v 0 1.4 0.1
v 0 1.5 0.1
v 0.1 0.1 0.1
v 0.1 0.5 0.1
v 0.1 0.7 0.1
v 0.1 1.2 0.1
v 0.1 1.3 0.1
v 0.1 1.7 0.1
v 0.1 2 0.1
v 0.2 1.1 0.1
v 0.2 1.2 0.1
v 0.2 1.3 0.1
v 0.2 1.4 0.1
v 0.2 1.6 0.1
v 0.2 1.7 0.1
v 0.3 0.1 0.1
v 0.3 0.7 0.1
v 0.3 1.1 0.1
v -0.5 0.7 0
v -0.5 0.8 0
v -0.5 1.2 0
v -0.4 0.7 0
v -0.4 0.8 0
v -0.4 1.1 0
v -0.4 1.4 0
v -0.4 1.5 0
v -0.3 1.1 0
v -0.3 1.2 0
v -0.3 1.4 0
v -0.3 1.5 0
v 0.2 1.1 0
v 0.2 1.2 0
v 0.2 1.4 0
v 0.2 1.5 0
v 0.3 1.1 0
v 0.3 1.4 0
v 0.3 1.5 0
v 0.4 1.1 0
v 0.4 1.2 0
v -0.3 0.7 -0.1
v -0.3 1.1 -0.1
v -0.2 1.1 -0.1
v -0.2 1.2 -0.1
v -0.2 1.3 -0.1
v -0.2 1.5 -0.1
v 0.1 1.1 -0.1
v 0.1 1.2 -0.1
v 0.1 1.3 -0.1
v 0.1 1.5 -0.1
v 0.2 0.7 -0.1
v 0.2 1.1 -0.1
v 0.4 1.2 0.3
v 0.4 1.3 0.3
v 0.5 1.2 0.3
v 0.5 1.3 0.3
v -0.3 0.7 0
v -0.3 1.1 0
v -0.2 0.7 0
v -0.2 1.1 0
v -0.2 1.2 0
v -0.2 1.3 0
v -0.2 1.4 0
v -0.2 1.5 0
v -0.1 0.8 0
v -0.1 1.2 0
v -0.1 1.4 0
v -0.1 1.5 0
v 0 0.8 0
v 0 1.2 0
v 0 1.4 0
v 0 1.5 0
v 0.1 0.7 0
v 0.1 1.1 0
v 0.1 1.2 0
v 0.1 1.3 0
v 0.1 1.4 0
v 0.1 1.5 0
v 0.2 0.7 0
v 0.2 1.1 0
v -0.5 0.7 -0.1
v -0.5 0.8 -0.1
v -0.5 1.2 -0.1
v -0.4 0.7 -0.1
v -0.4 0.8 -0.1
v -0.4 1.1 -0.1
v -0.4 1.4 -0.1
v -0.4 1.5 -0.1
v -0.3 1.1 -0.1
v -0.3 1.2 -0.1
v -0.3 1.4 -0.1
v -0.3 1.5 -0.1
v 0.2 1.1 -0.1
v 0.2 1.2 -0.1
v 0.2 1.4 -0.1
v 0.2 1.5 -0.1
v 0.3 1.1 -0.1
v 0.3 1.4 -0.1
v 0.3 1.5 -0.1
v 0.5 1.1 -0.1
v 0.5 1.2 -0.1
v -0.4 0 -0.2
v -0.4 0.1 -0.2
v -0.4 0.7 -0.2
v -0.4 1.1 -0.2
v -0.3 1.1 -0.2
v -0.3 1.2 -0.2
v -0.3 1.3 -0.2
v -0.3 1.5 -0.2
v -0.3 1.6 -0.2
v -0.3 1.7 -0.2
v -0.2 0 -0.2
v -0.2 0.1 -0.2
v -0.2 0.5 -0.2
v -0.2 1.2 -0.2
v -0.2 1.3 -0.2
v -0.2 1.5 -0.2
v -0.2 1.6 -0.2
v -0.2 1.7 -0.2
v -0.2 2 -0.2
v 0.1 0 -0.2
v 0.1 0.1 -0.2
v 0.1 0.5 -0.2
v 0.1 1.2 -0.2
v 0.1 1.3 -0.2
v 0.1 1.5 -0.2
v 0.1 1.6 -0.2
v 0.1 1.7 -0.2
v 0.1 2 -0.2
v 0.2 1.1 -0.2
v 0.2 1.2 -0.2
v 0.2 1.3 -0.2
v 0.2 1.5 -0.2
v 0.2 1.6 -0.2
v 0.2 1.7 -0.2
v 0.3 0 -0.2
v 0.3 0.1 -0.2
v 0.3 0.7 -0.2
v 0.3 1.1 -0.2
v -0.4 0 0.2
v -0.2 0 0.2
v 0.1 0 0.2
v 0.3 0 0.2
v -0.4 0 -0.2
v -0.2 0 -0.2
v 0.1 0 -0.2
v 0.3 0 -0.2
v -0.2 0.5 0.1
v 0.1 0.5 0.1
v -0.2 0.5 -0.2
v 0.1 0.5 -0.2
v -0.5 0.7 0
v -0.4 0.7 0
v -0.5 0.7 -0.1
v -0.4 0.7 -0.1
v 0.4 1.1 0.4
v 0.5 1.1 0.4
v 0.4 1.1 0.3
v 0.5 1.1 0.3
v 0.4 1.1 0.2
v 0.5 1.1 0.2
v -0.3 1.1 0
v -0.2 1.1 0
v 0.1 1.1 0
v 0.2 1.1 0
v 0.3 1.1 0
v 0.4 1.1 0
v -0.3 1.1 -0.1
v -0.2 1.1 -0.1
v 0.1 1.1 -0.1
v 0.2 1.1 -0.1
v 0.3 1.1 -0.1
v 0.5 1.1 -0.1
v 0.4 1.2 0.5
v 0.5 1.2 0.5
v 0.4 1.2 0.4
v 0.5 1.2 0.4
v -0.2 1.2 0
v -0.1 1.2 0
v 0 1.2 0
v 0.1 1.2 0
v -0.2 1.2 -0.1
v 0.1 1.2 -0.1
v -0.3 1.3 0.1
v -0.2 1.3 0.1
v 0.1 1.3 0.1
v 0.2 1.3 0.1
v -0.3 1.3 -0.2
v -0.2 1.3 -0.2
v 0.1 1.3 -0.2
v 0.2 1.3 -0.2
v -0.4 1.4 0
v -0.3 1.4 0
v 0.2 1.4 0
v 0.3 1.4 0
v -0.4 1.4 -0.1
v -0.3 1.4 -0.1
v 0.2 1.4 -0.1
v 0.3 1.4 -0.1
v -0.2 1.5 0
v -0.1 1.5 0
v 0 1.5 0
v 0.1 1.5 0
v -0.2 1.5 -0.1
v 0.1 1.5 -0.1
v -0.4 0.1 0.2
v -0.2 0.1 0.2
v 0.1 0.1 0.2
v 0.3 0.1 0.2
v -0.4 0.1 0.1
v -0.2 0.1 0.1
v 0.1 0.1 0.1
v 0.3 0.1 0.1
v -0.3 0.7 0
v -0.2 0.7 0
v 0.1 0.7 0
v 0.2 0.7 0
v -0.3 0.7 -0.1
v 0.2 0.7 -0.1
v -0.4 1.1 0.1
v -0.3 1.1 0.1
v 0.2 1.1 0.1
v 0.3 1.1 0.1
v -0.4 1.1 0
v -0.3 1.1 0
v 0.2 1.1 0
v 0.3 1.1 0
v -0.4 1.1 -0.1
v -0.3 1.1 -0.1
v 0.2 1.1 -0.1
v 0.3 1.1 -0.1
v -0.4 1.1 -0.2
v -0.3 1.1 -0.2
v 0.2 1.1 -0.2
v 0.3 1.1 -0.2
v 0.4 1.2 0.3
v 0.5 1.2 0.3
v 0.4 1.2 0.2
v 0.5 1.2 0.2
v -0.3 1.2 0.1
v -0.2 1.2 0.1
v 0.1 1.2 0.1
v 0.2 1.2 0.1
v -0.5 1.2 0
v -0.3 1.2 0
v 0.2 1.2 0
v 0.4 1.2 0
v -0.5 1.2 -0.1
v -0.3 1.2 -0.1
v 0.2 1.2 -0.1
v 0.5 1.2 -0.1
v -0.3 1.2 -0.2
v -0.2 1.2 -0.2
v 0.1 1.2 -0.2
v 0.2 1.2 -0.2
v 0.4 1.3 0.5
v 0.5 1.3 0.5
v 0.4 1.3 0.3
v 0.5 1.3 0.3
v -0.2 1.3 0
v 0.1 1.3 0
v -0.2 1.3 -0.1
v 0.1 1.3 -0.1
v -0.4 1.5 0
v -0.3 1.5 0
v 0.2 1.5 0
v 0.3 1.5 0
v -0.4 1.5 -0.1
v -0.3 1.5 -0.1
v 0.2 1.5 -0.1
v 0.3 1.5 -0.1
v -0.3 1.7 0.1
v -0.2 1.7 0.1
v 0.1 1.7 0.1
v 0.2 1.7 0.1
v -0.3 1.7 -0.2
v -0.2 1.7 -0.2
v 0.1 1.7 -0.2
v 0.2 1.7 -0.2
v -0.2 2 0.1
v 0.1 2 0.1
v -0.1 2 0
v 0.1 2 0
v -0.1 2 -0.1
v 0.1 2 -0.1
v -0.2 2 -0.2
v 0.1 2 -0.2

# faces
f 3/1/1 2/1/1 1/1/1
f 4/1/1 2/1/1 3/1/1
f 5/6/1 4/6/1 3/6/1
f 6/6/1 4/6/1 5/6/1
f 9/8/1 8/8/1 7/8/1
f 10/8/1 8/8/1 9/8/1
f 11/8/1 8/8/1 10/8/1
f 12/7/1 11/7/1 10/7/1
f 13/7/1 11/7/1 12/7/1
f 14/7/1 11/7/1 13/7/1
f 15/7/1 11/7/1 14/7/1
f 16/6/1 13/6/1 12/6/1
f 17/6/1 15/6/1 14/6/1
f 18/6/1 16/6/1 12/6/1
f 19/6/1 16/6/1 18/6/1
f 20/6/1 15/6/1 17/6/1
f 21/6/1 15/6/1 20/6/1
f 24/1/1 23/1/1 22/1/1
f 25/1/1 23/1/1 24/1/1
f 30/6/1 27/6/1 26/6/1
f 31/6/1 27/6/1 30/6/1
f 32/6/1 29/6/1 28/6/1
f 33/6/1 29/6/1 32/6/1
f 36/1/1 35/1/1 34/1/1
f 37/1/1 35/1/1 36/1/1
f 38/1/1 35/1/1 37/1/1
f 39/7/1 37/7/1 36/7/1
f 40/1/1 35/1/1 38/1/1
f 41/1/1 35/1/1 40/1/1
f 42/7/1 39/7/1 36/7/1
f 42/7/1 40/7/1 39/7/1
f 42/7/1 41/7/1 40/7/1
f 43/7/1 41/7/1 42/7/1
f 44/1/1 43/1/1 42/1/1
f 45/1/1 43/1/1 44/1/1
f 48/1/1 47/1/1 46/1/1
f 49/1/1 47/1/1 48/1/1
f 52/3/1 51/3/1 50/3/1
f 53/3/1 51/3/1 52/3/1
f 56/8/1 55/8/1 54/8/1
f 57/8/1 55/8/1 56/8/1
f 58/8/1 55/8/1 57/8/1
f 59/7/1 58/7/1 57/7/1
f 60/7/1 58/7/1 59/7/1
f 63/6/1 62/6/1 61/6/1
f 64/6/1 62/6/1 63/6/1
f 67/1/1 66/1/1 65/1/1
f 68/1/1 66/1/1 67/1/1
f 69/1/1 66/1/1 68/1/1
f 72/6/1 71/6/1 70/6/1
f 73/6/1 71/6/1 72/6/1
f 79/5/1 75/5/1 74/5/1
f 80/1/1 76/1/1 75/1/1
f 80/5/1 75/5/1 79/5/1
f 81/6/1 77/6/1 76/6/1
f 81/1/1 76/1/1 80/1/1
f 82/6/1 77/6/1 81/6/1
f 83/5/1 80/5/1 79/5/1
f 83/5/1 79/5/1 78/5/1
f 84/5/1 80/5/1 83/5/1
f 85/6/2 86/6/2 87/6/2
f 87/6/2 86/6/2 88/6/2
f 89/8/2 90/8/2 91/8/2
f 91/8/2 90/8/2 92/8/2
f 92/8/2 90/8/2 93/8/2
f 92/7/2 93/7/2 94/7/2
f 94/7/2 93/7/2 95/7/2
f 96/6/2 97/6/2 98/6/2
f 98/6/2 97/6/2 99/6/2
f 100/1/2 101/1/2 102/1/2
f 102/1/2 101/1/2 103/1/2
f 103/1/2 101/1/2 104/1/2
f 105/1/2 106/1/2 107/1/2
f 107/1/2 106/1/2 108/1/2
f 109/3/2 110/3/2 111/3/2
f 111/3/2 110/3/2 112/3/2
f 109/3/2 111/3/2 113/3/2
f 111/2/2 112/2/2 114/2/2
f 113/3/2 111/3/2 114/3/2
f 112/3/2 110/3/2 115/3/2
f 114/2/2 112/2/2 115/2/2
f 115/3/2 110/3/2 116/3/2
f 117/6/2 118/6/2 121/6/2
f 121/6/2 118/6/2 122/6/2
f 119/6/2 120/6/2 123/6/2
f 123/6/2 120/6/2 124/6/2
f 125/1/2 126/1/2 127/1/2
f 127/1/2 126/1/2 128/1/2
f 128/1/2 126/1/2 129/1/2
f 127/7/2 128/7/2 130/7/2
f 129/1/2 126/1/2 131/1/2
f 131/1/2 126/1/2 132/1/2
f 127/7/2 130/7/2 133/7/2
f 130/7/2 131/7/2 133/7/2
f 131/7/2 132/7/2 133/7/2
f 133/7/2 132/7/2 134/7/2
f 133/1/2 134/1/2 135/1/2
f 135/1/2 134/1/2 136/1/2
f 137/8/2 138/8/2 139/8/2
f 139/8/2 138/8/2 140/8/2
f 140/8/2 138/8/2 141/8/2
f 140/7/2 141/7/2 142/7/2
f 142/7/2 141/7/2 143/7/2
f 142/6/2 143/6/2 144/6/2
f 144/6/2 143/6/2 145/6/2
f 145/6/2 143/6/2 146/6/2
f 146/6/2 143/6/2 147/6/2
f 148/1/2 149/1/2 150/1/2
f 150/1/2 149/1/2 151/1/2
f 152/5/2 153/5/2 157/5/2
f 153/1/2 154/1/2 158/1/2
f 157/5/2 153/5/2 158/5/2
f 154/6/2 155/6/2 159/6/2
f 158/1/2 154/1/2 159/1/2
f 159/6/2 155/6/2 160/6/2
f 157/5/2 158/5/2 161/5/2
f 156/5/2 157/5/2 161/5/2
f 161/5/2 158/5/2 162/5/2
f 165/5/3 164/5/3 163/5/3
f 166/5/3 164/5/3 165/5/3
f 169/5/3 168/5/3 167/5/3
f 170/5/3 168/5/3 169/5/3
f 173/8/3 172/8/3 171/8/3
f 174/8/3 172/8/3 173/8/3
f 177/8/3 176/8/3 175/8/3
f 178/8/3 176/8/3 177/8/3
f 182/6/3 181/6/3 180/6/3
f 188/7/3 180/7/3 179/7/3
f 189/7/3 180/7/3 188/7/3
f 190/6/3 182/6/3 180/6/3
f 190/7/3 180/7/3 189/7/3
f 190/6/3 183/6/3 182/6/3
f 191/6/3 183/6/3 190/6/3
f 192/1/3 185/1/3 184/1/3
f 193/1/3 187/1/3 186/1/3
f 195/4/3 191/4/3 190/4/3
f 196/1/3 192/1/3 191/1/3
f 196/4/3 191/4/3 195/4/3
f 197/7/3 186/7/3 185/7/3
f 197/1/3 192/1/3 196/1/3
f 197/1/3 185/1/3 192/1/3
f 198/7/3 186/7/3 197/7/3
f 199/4/3 195/4/3 190/4/3
f 199/3/3 196/3/3 195/3/3
f 200/1/3 198/1/3 197/1/3
f 200/3/3 196/3/3 199/3/3
f 200/1/3 197/1/3 196/1/3
f 201/1/3 198/1/3 200/1/3
f 202/7/3 186/7/3 198/7/3
f 202/1/3 198/1/3 201/1/3
f 204/7/3 190/7/3 189/7/3
f 205/4/3 199/4/3 190/4/3
f 205/4/3 200/4/3 199/4/3
f 205/7/3 190/7/3 204/7/3
f 206/1/3 201/1/3 200/1/3
f 206/4/3 200/4/3 205/4/3
f 207/1/3 201/1/3 206/1/3
f 208/3/3 194/3/3 193/3/3
f 208/1/3 193/1/3 186/1/3
f 209/3/3 194/3/3 208/3/3
f 210/6/3 206/6/3 205/6/3
f 211/6/3 206/6/3 210/6/3
f 212/1/3 201/1/3 207/1/3
f 213/7/3 202/7/3 201/7/3
f 213/1/3 201/1/3 212/1/3
f 214/7/3 186/7/3 202/7/3
f 214/7/3 202/7/3 213/7/3
f 214/1/3 208/1/3 186/1/3
f 215/1/3 208/1/3 214/1/3
f 216/7/3 205/7/3 204/7/3
f 216/7/3 204/7/3 203/7/3
f 217/6/3 210/6/3 205/6/3
f 217/7/3 205/7/3 216/7/3
f 218/6/3 210/6/3 217/6/3
f 222/1/3 220/1/3 219/1/3
f 223/6/3 221/6/3 220/6/3
f 223/1/3 220/1/3 222/1/3
f 224/6/3 221/6/3 223/6/3
f 227/6/3 221/6/3 224/6/3
f 228/6/3 221/6/3 227/6/3
f 229/1/3 226/1/3 225/1/3
f 230/1/3 226/1/3 229/1/3
f 235/6/3 232/6/3 231/6/3
f 236/1/3 234/1/3 233/1/3
f 237/1/3 234/1/3 236/1/3
f 238/6/3 232/6/3 235/6/3
f 239/6/3 232/6/3 238/6/3
f 242/6/3 241/6/3 240/6/3
f 246/6/3 242/6/3 240/6/3
f 246/6/3 243/6/3 242/6/3
f 247/6/3 243/6/3 246/6/3
f 248/1/3 245/1/3 244/1/3
f 249/1/3 245/1/3 248/1/3
f 250/6/3 246/6/3 240/6/3
f 251/6/3 246/6/3 250/6/3
f 252/5/4 253/5/4 254/5/4
f 254/5/4 253/5/4 255/5/4
f 256/6/4 257/6/4 258/6/4
f 258/6/4 257/6/4 259/6/4
f 258/4/4 259/4/4 264/4/4
f 259/4/4 260/4/4 264/4/4
f 264/4/4 260/4/4 265/4/4
f 262/7/4 263/7/4 266/7/4
f 261/1/4 262/1/4 266/1/4
f 266/7/4 263/7/4 267/7/4
f 264/3/4 265/3/4 268/3/4
f 258/4/4 264/4/4 268/4/4
f 268/3/4 265/3/4 269/3/4
f 266/1/4 267/1/4 270/1/4
f 261/1/4 266/1/4 270/1/4
f 270/1/4 267/1/4 271/1/4
f 268/4/4 269/4/4 272/4/4
f 258/4/4 268/4/4 272/4/4
f 272/4/4 269/4/4 273/4/4
f 273/4/4 269/4/4 274/4/4
f 261/1/4 270/1/4 275/1/4
f 270/7/4 271/7/4 276/7/4
f 275/1/4 270/1/4 276/1/4
f 276/7/4 271/7/4 277/7/4
f 272/6/4 273/6/4 278/6/4
f 278/6/4 273/6/4 279/6/4
f 280/1/4 281/1/4 283/1/4
f 281/6/4 282/6/4 284/6/4
f 283/1/4 281/1/4 284/1/4
f 284/6/4 282/6/4 285/6/4
f 285/6/4 282/6/4 288/6/4
f 288/6/4 282/6/4 289/6/4
f 286/1/4 287/1/4 290/1/4
f 290/1/4 287/1/4 291/1/4
f 292/6/4 293/6/4 296/6/4
f 294/1/4 295/1/4 297/1/4
f 297/1/4 295/1/4 298/1/4
f 296/6/4 293/6/4 299/6/4
f 299/6/4 293/6/4 300/6/4
f 303/6/4 304/6/4 305/6/4
f 301/8/4 302/8/4 311/8/4
f 302/7/4 303/7/4 312/7/4
f 311/8/4 302/8/4 312/8/4
f 312/7/4 303/7/4 313/7/4
f 305/6/4 306/6/4 314/6/4
f 307/1/4 308/1/4 315/1/4
f 308/7/4 309/7/4 316/7/4
f 315/1/4 308/1/4 316/1/4
f 309/1/4 310/1/4 317/1/4
f 316/7/4 309/7/4 317/7/4
f 317/1/4 310/1/4 318/1/4
f 313/7/4 303/7/4 322/7/4
f 315/1/4 316/1/4 323/1/4
f 305/6/4 314/6/4 323/6/4
f 314/1/4 315/1/4 323/1/4
f 317/1/4 318/1/4 323/1/4
f 316/1/4 317/1/4 323/1/4
f 323/1/4 318/1/4 324/1/4
f 324/1/4 318/1/4 325/1/4
f 325/1/4 318/1/4 326/1/4
f 318/3/4 319/3/4 327/3/4
f 326/1/4 318/1/4 327/1/4
f 327/3/4 319/3/4 328/3/4
f 303/6/4 305/6/4 329/6/4
f 305/6/4 323/6/4 329/6/4
f 329/6/4 323/6/4 330/6/4
f 324/1/4 325/1/4 331/1/4
f 325/7/4 326/7/4 332/7/4
f 331/1/4 325/1/4 332/1/4
f 326/1/4 327/1/4 333/1/4
f 332/7/4 326/7/4 333/7/4
f 333/1/4 327/1/4 334/1/4
f 320/8/4 321/8/4 335/8/4
f 321/7/4 322/7/4 336/7/4
f 335/8/4 321/8/4 336/8/4
f 322/7/4 303/7/4 337/7/4
f 336/7/4 322/7/4 337/7/4
f 303/6/4 329/6/4 337/6/4
f 337/6/4 329/6/4 338/6/4
f 343/8/5 340/8/5 339/8/5
f 344/8/5 340/8/5 343/8/5
f 345/8/5 342/8/5 341/8/5
f 346/8/5 342/8/5 345/8/5
f 349/7/5 348/7/5 347/7/5
f 350/7/5 348/7/5 349/7/5
f 353/1/5 352/1/5 351/1/5
f 354/1/5 352/1/5 353/1/5
f 357/5/5 356/5/5 355/5/5
f 358/5/5 356/5/5 357/5/5
f 359/1/5 358/1/5 357/1/5
f 360/1/5 358/1/5 359/1/5
f 366/6/5 360/6/5 359/6/5
f 367/6/5 362/6/5 361/6/5
f 368/6/5 362/6/5 367/6/5
f 369/6/5 364/6/5 363/6/5
f 370/6/5 364/6/5 369/6/5
f 371/6/5 366/6/5 365/6/5
f 372/6/5 360/6/5 366/6/5
f 372/6/5 366/6/5 371/6/5
f 375/5/5 374/5/5 373/5/5
f 376/5/5 374/5/5 375/5/5
f 381/1/5 378/1/5 377/1/5
f 381/1/5 380/1/5 379/1/5
f 381/1/5 379/1/5 378/1/5
f 382/1/5 380/1/5 381/1/5
f 387/1/5 384/1/5 383/1/5
f 388/1/5 384/1/5 387/1/5
f 389/1/5 386/1/5 385/1/5
f 390/1/5 386/1/5 389/1/5
f 395/1/5 392/1/5 391/1/5
f 396/1/5 392/1/5 395/1/5
f 397/1/5 394/1/5 393/1/5
f 398/1/5 394/1/5 397/1/5
f 403/1/5 400/1/5 399/1/5
f 403/1/5 402/1/5 401/1/5
f 403/1/5 401/1/5 400/1/5
f 404/1/5 402/1/5 403/1/5
f 405/8/6 406/8/6 409/8/6
f 409/8/6 406/8/6 410/8/6
f 407/8/6 408/8/6 411/8/6
f 411/8/6 408/8/6 412/8/6
f 413/7/6 414/7/6 417/7/6
f 415/7/6 416/7/6 417/7/6
f 414/7/6 415/7/6 417/7/6
f 417/7/6 416/7/6 418/7/6
f 419/6/6 420/6/6 423/6/6
f 423/6/6 420/6/6 424/6/6
f 421/6/6 422/6/6 425/6/6
f 425/6/6 422/6/6 426/6/6
f 427/6/6 428/6/6 431/6/6
f 431/6/6 428/6/6 432/6/6
f 429/6/6 430/6/6 433/6/6
f 433/6/6 430/6/6 434/6/6
f 435/1/6 436/1/6 437/1/6
f 437/1/6 436/1/6 438/1/6
f 439/6/6 440/6/6 444/6/6
f 441/6/6 442/6/6 445/6/6
f 437/6/6 438/6/6 446/6/6
f 443/6/6 444/6/6 447/6/6
f 444/6/6 440/6/6 448/6/6
f 447/6/6 444/6/6 448/6/6
f 441/6/6 445/6/6 449/6/6
f 445/6/6 446/6/6 449/6/6
f 446/6/6 438/6/6 450/6/6
f 449/6/6 446/6/6 450/6/6
f 448/6/6 440/6/6 451/6/6
f 451/6/6 440/6/6 452/6/6
f 441/6/6 449/6/6 453/6/6
f 453/6/6 449/6/6 454/6/6
f 455/5/6 456/5/6 457/5/6
f 457/5/6 456/5/6 458/5/6
f 459/1/6 460/1/6 461/1/6
f 461/1/6 460/1/6 462/1/6
f 463/1/6 464/1/6 467/1/6
f 467/1/6 464/1/6 468/1/6
f 465/1/6 466/1/6 469/1/6
f 469/1/6 466/1/6 470/1/6
f 471/1/6 472/1/6 475/1/6
f 475/1/6 472/1/6 476/1/6
f 473/1/6 474/1/6 477/1/6
f 477/1/6 474/1/6 478/1/6
f 479/3/6 480/3/6 481/3/6
f 481/3/6 480/3/6 482/3/6
f 479/3/6 481/3/6 483/3/6
f 481/2/6 482/2/6 483/2/6
f 483/2/6 482/2/6 484/2/6
f 479/3/6 483/3/6 485/3/6
f 483/3/6 484/3/6 485/3/6
f 485/3/6 484/3/6 486/3/6
