# MagicaVoxel @ Ephtracy

# group
o 

# material
mtllib icy window 2.mtl
usemtl palette

# normals
vn -1 0 0
vn 1 0 0
vn 0 0 1
vn 0 0 -1
vn 0 -1 0
vn 0 1 0

# texcoords
vt 0.755859 0.5
vt 0.775391 0.5
vt 0.810547 0.5

# verts
v 0 2 0
v 0 2 -4
v 0 2.1 0
v 0 2.1 -4
v 0.1 2.1 0
v 0.1 2.1 -4
v 0.1 2.3 0
v 0.1 2.3 -4
v 0.2 2.3 0
v 0.2 2.3 -4
v 0.2 2.5 0
v 0.2 2.5 -4
v 0.3 2.5 0
v 0.3 2.5 -4
v 0.3 2.7 0
v 0.3 2.7 -4
v 0.4 2.7 0
v 0.4 2.7 -4
v 0.4 3.3 -1.7
v 0.4 3.3 -2.1
v 0.4 3.4 -1.6
v 0.4 3.4 -1.7
v 0.4 3.4 -1.8
v 0.4 3.4 -2
v 0.4 3.4 -2.1
v 0.4 3.4 -2.2
v 0.4 3.5 -1.5
v 0.4 3.5 -1.6
v 0.4 3.5 -1.7
v 0.4 3.5 -1.8
v 0.4 3.5 -2
v 0.4 3.5 -2.1
v 0.4 3.5 -2.2
v 0.4 3.5 -2.3
v 0.4 3.6 -1.4
v 0.4 3.6 -1.5
v 0.4 3.6 -1.6
v 0.4 3.6 -1.7
v 0.4 3.6 -2.1
v 0.4 3.6 -2.2
v 0.4 3.7 -1.5
v 0.4 3.7 -1.6
v 0.4 3.7 -2.3
v 0.4 3.7 -2.5
v 0.4 3.8 -2.2
v 0.4 3.8 -2.4
v 0.4 3.8 -2.5
v 0.4 3.8 -2.6
v 0.4 3.9 -2.4
v 0.4 3.9 -2.5
v 0.4 4 -2.4
v 0.4 4 -2.5
v 0.4 4.1 -1.3
v 0.4 4.1 -1.4
v 0.4 4.1 -2.5
v 0.4 4.1 -2.6
v 0.4 4.2 -1.4
v 0.4 4.2 -1.5
v 0.4 4.2 -2.5
v 0.4 4.2 -2.6
v 0.4 4.3 -2.4
v 0.4 4.3 -2.5
v 0.4 4.4 -1.4
v 0.4 4.4 -1.5
v 0.4 4.5 -1.3
v 0.4 4.5 -1.4
v 0.4 4.6 -1.5
v 0.4 4.6 -1.6
v 0.4 4.6 -2.4
v 0.4 4.6 -2.5
v 0.4 4.7 -1.4
v 0.4 4.7 -1.5
v 0.4 4.7 -1.6
v 0.4 4.7 -1.8
v 0.4 4.7 -2.3
v 0.4 4.7 -2.4
v 0.4 4.7 -2.5
v 0.4 4.7 -2.6
v 0.4 4.8 -1.5
v 0.4 4.8 -1.7
v 0.4 4.8 -2.4
v 0.4 4.8 -2.5
v 0.4 4.9 -1.8
v 0.4 4.9 -1.9
v 0.4 4.9 -2.2
v 0.4 4.9 -2.3
v 0.4 5 -1.7
v 0.4 5 -1.8
v 0.4 5 -1.9
v 0.4 5 -2
v 0.4 5 -2.1
v 0.4 5 -2.2
v 0.4 5 -2.3
v 0.4 5 -2.4
v 0.4 5.1 -1.8
v 0.4 5.1 -1.9
v 0.4 5.1 -2
v 0.4 5.1 -2.1
v 0.4 5.1 -2.2
v 0.4 5.1 -2.3
v 0.4 5.2 -1.9
v 0.4 5.2 -2.2
v 0.4 5.9 0
v 0.4 5.9 -4
v 0.8 2.7 0
v 0.8 2.7 -4
v 0.8 3.3 -1.7
v 0.8 3.3 -2.1
v 0.8 3.4 -1.6
v 0.8 3.4 -1.7
v 0.8 3.4 -1.8
v 0.8 3.4 -2
v 0.8 3.4 -2.1
v 0.8 3.4 -2.2
v 0.8 3.5 -1.5
v 0.8 3.5 -1.6
v 0.8 3.5 -1.7
v 0.8 3.5 -1.8
v 0.8 3.5 -2
v 0.8 3.5 -2.1
v 0.8 3.5 -2.2
v 0.8 3.5 -2.3
v 0.8 3.6 -1.4
v 0.8 3.6 -1.5
v 0.8 3.6 -1.6
v 0.8 3.6 -1.7
v 0.8 3.6 -2.1
v 0.8 3.6 -2.2
v 0.8 3.7 -1.5
v 0.8 3.7 -1.6
v 0.8 3.7 -2.3
v 0.8 3.7 -2.5
v 0.8 3.8 -2.2
v 0.8 3.8 -2.4
v 0.8 3.8 -2.5
v 0.8 3.8 -2.6
v 0.8 3.9 -2.4
v 0.8 3.9 -2.5
v 0.8 4 -2.4
v 0.8 4 -2.5
v 0.8 4.1 -1.3
v 0.8 4.1 -1.4
v 0.8 4.1 -2.5
v 0.8 4.1 -2.6
v 0.8 4.2 -1.4
v 0.8 4.2 -1.5
v 0.8 4.2 -2.5
v 0.8 4.2 -2.6
v 0.8 4.3 -2.4
v 0.8 4.3 -2.5
v 0.8 4.4 -1.4
v 0.8 4.4 -1.5
v 0.8 4.5 -1.3
v 0.8 4.5 -1.4
v 0.8 4.6 -1.5
v 0.8 4.6 -1.6
v 0.8 4.6 -2.4
v 0.8 4.6 -2.5
v 0.8 4.7 -1.4
v 0.8 4.7 -1.5
v 0.8 4.7 -1.6
v 0.8 4.7 -1.8
v 0.8 4.7 -2.3
v 0.8 4.7 -2.4
v 0.8 4.7 -2.5
v 0.8 4.7 -2.6
v 0.8 4.8 -1.5
v 0.8 4.8 -1.7
v 0.8 4.8 -2.4
v 0.8 4.8 -2.5
v 0.8 4.9 -1.8
v 0.8 4.9 -1.9
v 0.8 4.9 -2.2
v 0.8 4.9 -2.3
v 0.8 5 -1.7
v 0.8 5 -1.8
v 0.8 5 -1.9
v 0.8 5 -2
v 0.8 5 -2.1
v 0.8 5 -2.2
v 0.8 5 -2.3
v 0.8 5 -2.4
v 0.8 5.1 -1.8
v 0.8 5.1 -1.9
v 0.8 5.1 -2
v 0.8 5.1 -2.1
v 0.8 5.1 -2.2
v 0.8 5.1 -2.3
v 0.8 5.2 -1.9
v 0.8 5.2 -2.2
v 0.8 5.9 0
v 0.8 5.9 -4
v 0.9 2.5 0
v 0.9 2.5 -4
v 0.9 2.7 0
v 0.9 2.7 -4
v 1 2.3 0
v 1 2.3 -4
v 1 2.5 0
v 1 2.5 -4
v 1.1 2.1 0
v 1.1 2.1 -4
v 1.1 2.3 0
v 1.1 2.3 -4
v 1.2 2 0
v 1.2 2 -4
v 1.2 2.1 0
v 1.2 2.1 -4
v 0 2 0
v 0 2.1 0
v 0.1 2.1 0
v 0.1 2.3 0
v 0.2 2.3 0
v 0.2 2.5 0
v 0.3 2.5 0
v 0.3 2.7 0
v 0.4 2.7 0
v 0.4 5.9 0
v 0.5 2 0
v 0.5 5.9 0
v 0.7 2 0
v 0.7 5.9 0
v 0.8 2.7 0
v 0.8 5.9 0
v 0.9 2.5 0
v 0.9 2.7 0
v 1 2.3 0
v 1 2.5 0
v 1.1 2.1 0
v 1.1 2.3 0
v 1.2 2 0
v 1.2 2.1 0
v 0.4 3.4 -2
v 0.4 3.5 -2
v 0.5 3.4 -2
v 0.5 3.5 -2
v 0.7 3.4 -2
v 0.7 3.5 -2
v 0.8 3.4 -2
v 0.8 3.5 -2
v 0.4 3.5 -2.1
v 0.4 3.6 -2.1
v 0.4 5 -2.1
v 0.4 5.1 -2.1
v 0.5 3.5 -2.1
v 0.5 3.6 -2.1
v 0.5 5 -2.1
v 0.5 5.1 -2.1
v 0.7 3.5 -2.1
v 0.7 3.6 -2.1
v 0.7 5 -2.1
v 0.7 5.1 -2.1
v 0.8 3.5 -2.1
v 0.8 3.6 -2.1
v 0.8 5 -2.1
v 0.8 5.1 -2.1
v 0.4 3.6 -2.2
v 0.4 3.8 -2.2
v 0.4 4.9 -2.2
v 0.4 5 -2.2
v 0.5 3.6 -2.2
v 0.5 3.8 -2.2
v 0.5 4.9 -2.2
v 0.5 5 -2.2
v 0.7 3.6 -2.2
v 0.7 3.8 -2.2
v 0.7 4.9 -2.2
v 0.7 5 -2.2
v 0.8 3.6 -2.2
v 0.8 3.8 -2.2
v 0.8 4.9 -2.2
v 0.8 5 -2.2
v 0.4 4.7 -2.3
v 0.4 4.9 -2.3
v 0.5 4.7 -2.3
v 0.5 4.9 -2.3
v 0.7 4.7 -2.3
v 0.7 4.9 -2.3
v 0.8 4.7 -2.3
v 0.8 4.9 -2.3
v 0.4 3.8 -2.4
v 0.4 3.9 -2.4
v 0.4 4 -2.4
v 0.4 4.3 -2.4
v 0.4 4.6 -2.4
v 0.4 4.7 -2.4
v 0.5 3.8 -2.4
v 0.5 3.9 -2.4
v 0.5 4 -2.4
v 0.5 4.3 -2.4
v 0.5 4.6 -2.4
v 0.5 4.7 -2.4
v 0.7 3.8 -2.4
v 0.7 3.9 -2.4
v 0.7 4 -2.4
v 0.7 4.3 -2.4
v 0.7 4.6 -2.4
v 0.7 4.7 -2.4
v 0.8 3.8 -2.4
v 0.8 3.9 -2.4
v 0.8 4 -2.4
v 0.8 4.3 -2.4
v 0.8 4.6 -2.4
v 0.8 4.7 -2.4
v 0.4 3.9 -2.5
v 0.4 4 -2.5
v 0.4 4.3 -2.5
v 0.4 4.6 -2.5
v 0.5 3.9 -2.5
v 0.5 4 -2.5
v 0.5 4.3 -2.5
v 0.5 4.6 -2.5
v 0.7 3.9 -2.5
v 0.7 4 -2.5
v 0.7 4.3 -2.5
v 0.7 4.6 -2.5
v 0.8 3.9 -2.5
v 0.8 4 -2.5
v 0.8 4.3 -2.5
v 0.8 4.6 -2.5
v 0.4 4.2 -1.4
v 0.4 4.4 -1.4
v 0.5 4.2 -1.4
v 0.5 4.4 -1.4
v 0.7 4.2 -1.4
v 0.7 4.4 -1.4
v 0.8 4.2 -1.4
v 0.8 4.4 -1.4
v 0.4 3.7 -1.5
v 0.4 4.2 -1.5
v 0.4 4.4 -1.5
v 0.4 4.6 -1.5
v 0.5 3.7 -1.5
v 0.5 4.2 -1.5
v 0.5 4.4 -1.5
v 0.5 4.6 -1.5
v 0.7 3.7 -1.5
v 0.7 4.2 -1.5
v 0.7 4.4 -1.5
v 0.7 4.6 -1.5
v 0.8 3.7 -1.5
v 0.8 4.2 -1.5
v 0.8 4.4 -1.5
v 0.8 4.6 -1.5
v 0.4 3.6 -1.6
v 0.4 3.7 -1.6
v 0.4 4.6 -1.6
v 0.4 4.7 -1.6
v 0.5 3.6 -1.6
v 0.5 3.7 -1.6
v 0.5 4.6 -1.6
v 0.5 4.7 -1.6
v 0.7 3.6 -1.6
v 0.7 3.7 -1.6
v 0.7 4.6 -1.6
v 0.7 4.7 -1.6
v 0.8 3.6 -1.6
v 0.8 3.7 -1.6
v 0.8 4.6 -1.6
v 0.8 4.7 -1.6
v 0.4 3.5 -1.7
v 0.4 3.6 -1.7
v 0.5 3.5 -1.7
v 0.5 3.6 -1.7
v 0.7 3.5 -1.7
v 0.7 3.6 -1.7
v 0.8 3.5 -1.7
v 0.8 3.6 -1.7
v 0.4 3.4 -1.8
v 0.4 3.5 -1.8
v 0.4 4.7 -1.8
v 0.4 4.9 -1.8
v 0.5 3.4 -1.8
v 0.5 3.5 -1.8
v 0.5 4.7 -1.8
v 0.5 4.9 -1.8
v 0.7 3.4 -1.8
v 0.7 3.5 -1.8
v 0.7 4.7 -1.8
v 0.7 4.9 -1.8
v 0.8 3.4 -1.8
v 0.8 3.5 -1.8
v 0.8 4.7 -1.8
v 0.8 4.9 -1.8
v 0.4 4.9 -1.9
v 0.4 5 -1.9
v 0.5 4.9 -1.9
v 0.5 5 -1.9
v 0.7 4.9 -1.9
v 0.7 5 -1.9
v 0.8 4.9 -1.9
v 0.8 5 -1.9
v 0.4 5 -2
v 0.4 5.1 -2
v 0.5 5 -2
v 0.5 5.1 -2
v 0.7 5 -2
v 0.7 5.1 -2
v 0.8 5 -2
v 0.8 5.1 -2
v 0 2 -4
v 0 2.1 -4
v 0.1 2.1 -4
v 0.1 2.3 -4
v 0.2 2.3 -4
v 0.2 2.5 -4
v 0.3 2.5 -4
v 0.3 2.7 -4
v 0.4 2.7 -4
v 0.4 5.9 -4
v 0.5 2 -4
v 0.5 5.9 -4
v 0.7 2 -4
v 0.7 5.9 -4
v 0.8 2.7 -4
v 0.8 5.9 -4
v 0.9 2.5 -4
v 0.9 2.7 -4
v 1 2.3 -4
v 1 2.5 -4
v 1.1 2.1 -4
v 1.1 2.3 -4
v 1.2 2 -4
v 1.2 2.1 -4
v 0 2 0
v 0.5 2 0
v 0.7 2 0
v 1.2 2 0
v 0 2 -4
v 0.5 2 -4
v 0.7 2 -4
v 1.2 2 -4
v 0.4 4 -2.4
v 0.5 4 -2.4
v 0.7 4 -2.4
v 0.8 4 -2.4
v 0.4 4 -2.5
v 0.5 4 -2.5
v 0.7 4 -2.5
v 0.8 4 -2.5
v 0.4 4.4 -1.4
v 0.5 4.4 -1.4
v 0.7 4.4 -1.4
v 0.8 4.4 -1.4
v 0.4 4.4 -1.5
v 0.5 4.4 -1.5
v 0.7 4.4 -1.5
v 0.8 4.4 -1.5
v 0.4 4.6 -1.5
v 0.5 4.6 -1.5
v 0.7 4.6 -1.5
v 0.8 4.6 -1.5
v 0.4 4.6 -1.6
v 0.5 4.6 -1.6
v 0.7 4.6 -1.6
v 0.8 4.6 -1.6
v 0.4 4.6 -2.4
v 0.5 4.6 -2.4
v 0.7 4.6 -2.4
v 0.8 4.6 -2.4
v 0.4 4.6 -2.5
v 0.5 4.6 -2.5
v 0.7 4.6 -2.5
v 0.8 4.6 -2.5
v 0.4 4.7 -1.6
v 0.5 4.7 -1.6
v 0.7 4.7 -1.6
v 0.8 4.7 -1.6
v 0.4 4.7 -1.8
v 0.5 4.7 -1.8
v 0.7 4.7 -1.8
v 0.8 4.7 -1.8
v 0.4 4.7 -2.3
v 0.5 4.7 -2.3
v 0.7 4.7 -2.3
v 0.8 4.7 -2.3
v 0.4 4.7 -2.4
v 0.5 4.7 -2.4
v 0.7 4.7 -2.4
v 0.8 4.7 -2.4
v 0.4 4.9 -1.8
v 0.5 4.9 -1.8
v 0.7 4.9 -1.8
v 0.8 4.9 -1.8
v 0.4 4.9 -1.9
v 0.5 4.9 -1.9
v 0.7 4.9 -1.9
v 0.8 4.9 -1.9
v 0.4 4.9 -2.2
v 0.5 4.9 -2.2
v 0.7 4.9 -2.2
v 0.8 4.9 -2.2
v 0.4 4.9 -2.3
v 0.5 4.9 -2.3
v 0.7 4.9 -2.3
v 0.8 4.9 -2.3
v 0.4 5 -1.9
v 0.5 5 -1.9
v 0.7 5 -1.9
v 0.8 5 -1.9
v 0.4 5 -2
v 0.5 5 -2
v 0.7 5 -2
v 0.8 5 -2
v 0.4 5 -2.1
v 0.5 5 -2.1
v 0.7 5 -2.1
v 0.8 5 -2.1
v 0.4 5 -2.2
v 0.5 5 -2.2
v 0.7 5 -2.2
v 0.8 5 -2.2
v 0.4 5.1 -2
v 0.5 5.1 -2
v 0.7 5.1 -2
v 0.8 5.1 -2
v 0.4 5.1 -2.1
v 0.5 5.1 -2.1
v 0.7 5.1 -2.1
v 0.8 5.1 -2.1
v 0 2.1 0
v 0.1 2.1 0
v 1.1 2.1 0
v 1.2 2.1 0
v 0 2.1 -4
v 0.1 2.1 -4
v 1.1 2.1 -4
v 1.2 2.1 -4
v 0.1 2.3 0
v 0.2 2.3 0
v 1 2.3 0
v 1.1 2.3 0
v 0.1 2.3 -4
v 0.2 2.3 -4
v 1 2.3 -4
v 1.1 2.3 -4
v 0.2 2.5 0
v 0.3 2.5 0
v 0.9 2.5 0
v 1 2.5 0
v 0.2 2.5 -4
v 0.3 2.5 -4
v 0.9 2.5 -4
v 1 2.5 -4
v 0.3 2.7 0
v 0.4 2.7 0
v 0.8 2.7 0
v 0.9 2.7 0
v 0.3 2.7 -4
v 0.4 2.7 -4
v 0.8 2.7 -4
v 0.9 2.7 -4
v 0.4 3.4 -1.8
v 0.5 3.4 -1.8
v 0.7 3.4 -1.8
v 0.8 3.4 -1.8
v 0.4 3.4 -2
v 0.5 3.4 -2
v 0.7 3.4 -2
v 0.8 3.4 -2
v 0.4 3.5 -1.7
v 0.5 3.5 -1.7
v 0.7 3.5 -1.7
v 0.8 3.5 -1.7
v 0.4 3.5 -1.8
v 0.5 3.5 -1.8
v 0.7 3.5 -1.8
v 0.8 3.5 -1.8
v 0.4 3.5 -2
v 0.5 3.5 -2
v 0.7 3.5 -2
v 0.8 3.5 -2
v 0.4 3.5 -2.1
v 0.5 3.5 -2.1
v 0.7 3.5 -2.1
v 0.8 3.5 -2.1
v 0.4 3.6 -1.6
v 0.5 3.6 -1.6
v 0.7 3.6 -1.6
v 0.8 3.6 -1.6
v 0.4 3.6 -1.7
v 0.5 3.6 -1.7
v 0.7 3.6 -1.7
v 0.8 3.6 -1.7
v 0.4 3.6 -2.1
v 0.5 3.6 -2.1
v 0.7 3.6 -2.1
v 0.8 3.6 -2.1
v 0.4 3.6 -2.2
v 0.5 3.6 -2.2
v 0.7 3.6 -2.2
v 0.8 3.6 -2.2
v 0.4 3.7 -1.5
v 0.5 3.7 -1.5
v 0.7 3.7 -1.5
v 0.8 3.7 -1.5
v 0.4 3.7 -1.6
v 0.5 3.7 -1.6
v 0.7 3.7 -1.6
v 0.8 3.7 -1.6
v 0.4 3.8 -2.2
v 0.5 3.8 -2.2
v 0.7 3.8 -2.2
v 0.8 3.8 -2.2
v 0.4 3.8 -2.4
v 0.5 3.8 -2.4
v 0.7 3.8 -2.4
v 0.8 3.8 -2.4
v 0.4 3.9 -2.4
v 0.5 3.9 -2.4
v 0.7 3.9 -2.4
v 0.8 3.9 -2.4
v 0.4 3.9 -2.5
v 0.5 3.9 -2.5
v 0.7 3.9 -2.5
v 0.8 3.9 -2.5
v 0.4 4.2 -1.4
v 0.5 4.2 -1.4
v 0.7 4.2 -1.4
v 0.8 4.2 -1.4
v 0.4 4.2 -1.5
v 0.5 4.2 -1.5
v 0.7 4.2 -1.5
v 0.8 4.2 -1.5
v 0.4 4.3 -2.4
v 0.5 4.3 -2.4
v 0.7 4.3 -2.4
v 0.8 4.3 -2.4
v 0.4 4.3 -2.5
v 0.5 4.3 -2.5
v 0.7 4.3 -2.5
v 0.8 4.3 -2.5
v 0.4 5.9 0
v 0.5 5.9 0
v 0.7 5.9 0
v 0.8 5.9 0
v 0.4 5.9 -4
v 0.5 5.9 -4
v 0.7 5.9 -4
v 0.8 5.9 -4

# faces
f 3/1/1 2/1/1 1/1/1
f 4/1/1 2/1/1 3/1/1
f 7/1/1 6/1/1 5/1/1
f 8/1/1 6/1/1 7/1/1
f 11/1/1 10/1/1 9/1/1
f 12/1/1 10/1/1 11/1/1
f 15/1/1 14/1/1 13/1/1
f 16/1/1 14/1/1 15/1/1
f 19/1/1 18/1/1 17/1/1
f 20/1/1 18/1/1 19/1/1
f 21/1/1 19/1/1 17/1/1
f 22/3/1 20/3/1 19/3/1
f 22/1/1 19/1/1 21/1/1
f 23/3/1 20/3/1 22/3/1
f 24/3/1 20/3/1 23/3/1
f 25/1/1 18/1/1 20/1/1
f 25/3/1 20/3/1 24/3/1
f 26/1/1 18/1/1 25/1/1
f 27/1/1 21/1/1 17/1/1
f 28/3/1 22/3/1 21/3/1
f 28/1/1 21/1/1 27/1/1
f 28/3/1 23/3/1 22/3/1
f 29/3/1 23/3/1 28/3/1
f 30/3/1 23/3/1 29/3/1
f 31/3/1 26/3/1 25/3/1
f 31/3/1 25/3/1 24/3/1
f 32/3/1 26/3/1 31/3/1
f 33/1/1 18/1/1 26/1/1
f 33/3/1 26/3/1 32/3/1
f 34/1/1 18/1/1 33/1/1
f 35/1/1 27/1/1 17/1/1
f 36/3/1 29/3/1 28/3/1
f 36/1/1 27/1/1 35/1/1
f 36/3/1 28/3/1 27/3/1
f 37/3/1 29/3/1 36/3/1
f 38/3/1 29/3/1 37/3/1
f 39/3/1 34/3/1 33/3/1
f 39/3/1 33/3/1 32/3/1
f 40/3/1 34/3/1 39/3/1
f 41/3/1 37/3/1 36/3/1
f 41/3/1 36/3/1 35/3/1
f 42/3/1 37/3/1 41/3/1
f 43/1/1 18/1/1 34/1/1
f 43/3/1 34/3/1 40/3/1
f 44/1/1 18/1/1 43/1/1
f 45/3/1 43/3/1 40/3/1
f 45/3/1 44/3/1 43/3/1
f 46/3/1 44/3/1 45/3/1
f 47/1/1 18/1/1 44/1/1
f 47/3/1 44/3/1 46/3/1
f 48/1/1 18/1/1 47/1/1
f 49/3/1 47/3/1 46/3/1
f 49/3/1 48/3/1 47/3/1
f 50/3/1 48/3/1 49/3/1
f 52/3/1 48/3/1 50/3/1
f 53/1/1 35/1/1 17/1/1
f 54/3/1 41/3/1 35/3/1
f 54/1/1 35/1/1 53/1/1
f 55/3/1 52/3/1 51/3/1
f 55/3/1 48/3/1 52/3/1
f 56/1/1 18/1/1 48/1/1
f 56/3/1 48/3/1 55/3/1
f 57/3/1 41/3/1 54/3/1
f 57/3/1 54/3/1 53/3/1
f 58/3/1 41/3/1 57/3/1
f 59/3/1 55/3/1 51/3/1
f 59/1/1 56/1/1 55/1/1
f 60/1/1 18/1/1 56/1/1
f 60/1/1 56/1/1 59/1/1
f 61/3/1 59/3/1 51/3/1
f 61/3/1 60/3/1 59/3/1
f 62/3/1 60/3/1 61/3/1
f 63/3/1 57/3/1 53/3/1
f 65/1/1 53/1/1 17/1/1
f 65/3/1 64/3/1 63/3/1
f 65/3/1 63/3/1 53/3/1
f 66/3/1 64/3/1 65/3/1
f 67/3/1 64/3/1 66/3/1
f 70/3/1 60/3/1 62/3/1
f 71/3/1 68/3/1 67/3/1
f 71/1/1 66/1/1 65/1/1
f 71/3/1 67/3/1 66/3/1
f 72/3/1 68/3/1 71/3/1
f 73/3/1 68/3/1 72/3/1
f 76/3/1 70/3/1 69/3/1
f 77/3/1 60/3/1 70/3/1
f 77/3/1 70/3/1 76/3/1
f 78/1/1 18/1/1 60/1/1
f 78/3/1 60/3/1 77/3/1
f 79/3/1 74/3/1 73/3/1
f 79/1/1 72/1/1 71/1/1
f 79/3/1 73/3/1 72/3/1
f 80/3/1 74/3/1 79/3/1
f 81/3/1 77/3/1 76/3/1
f 81/3/1 76/3/1 75/3/1
f 82/1/1 78/1/1 77/1/1
f 82/3/1 77/3/1 81/3/1
f 83/3/1 74/3/1 80/3/1
f 86/3/1 81/3/1 75/3/1
f 87/1/1 80/1/1 79/1/1
f 87/3/1 84/3/1 83/3/1
f 87/3/1 83/3/1 80/3/1
f 88/3/1 84/3/1 87/3/1
f 89/3/1 84/3/1 88/3/1
f 92/3/1 86/3/1 85/3/1
f 93/3/1 81/3/1 86/3/1
f 93/3/1 86/3/1 92/3/1
f 94/1/1 82/1/1 81/1/1
f 94/3/1 81/3/1 93/3/1
f 95/3/1 90/3/1 89/3/1
f 95/1/1 88/1/1 87/1/1
f 95/3/1 89/3/1 88/3/1
f 96/3/1 90/3/1 95/3/1
f 97/3/1 90/3/1 96/3/1
f 98/3/1 92/3/1 91/3/1
f 98/3/1 93/3/1 92/3/1
f 99/3/1 93/3/1 98/3/1
f 100/1/1 94/1/1 93/1/1
f 100/3/1 93/3/1 99/3/1
f 101/3/1 97/3/1 96/3/1
f 101/1/1 96/1/1 95/1/1
f 101/3/1 99/3/1 98/3/1
f 101/3/1 98/3/1 97/3/1
f 102/1/1 100/1/1 99/1/1
f 102/3/1 99/3/1 101/3/1
f 103/1/1 65/1/1 17/1/1
f 103/1/1 71/1/1 65/1/1
f 103/1/1 102/1/1 101/1/1
f 103/1/1 95/1/1 87/1/1
f 103/1/1 79/1/1 71/1/1
f 103/1/1 101/1/1 95/1/1
f 103/1/1 87/1/1 79/1/1
f 104/1/1 78/1/1 82/1/1
f 104/1/1 102/1/1 103/1/1
f 104/1/1 18/1/1 78/1/1
f 104/1/1 100/1/1 102/1/1
f 104/1/1 82/1/1 94/1/1
f 104/1/1 94/1/1 100/1/1
f 105/1/2 106/1/2 107/1/2
f 107/1/2 106/1/2 108/1/2
f 105/1/2 107/1/2 109/1/2
f 107/3/2 108/3/2 110/3/2
f 109/1/2 107/1/2 110/1/2
f 110/3/2 108/3/2 111/3/2
f 111/3/2 108/3/2 112/3/2
f 108/1/2 106/1/2 113/1/2
f 112/3/2 108/3/2 113/3/2
f 113/1/2 106/1/2 114/1/2
f 105/1/2 109/1/2 115/1/2
f 109/3/2 110/3/2 116/3/2
f 115/1/2 109/1/2 116/1/2
f 110/3/2 111/3/2 116/3/2
f 116/3/2 111/3/2 117/3/2
f 117/3/2 111/3/2 118/3/2
f 113/3/2 114/3/2 119/3/2
f 112/3/2 113/3/2 119/3/2
f 119/3/2 114/3/2 120/3/2
f 114/1/2 106/1/2 121/1/2
f 120/3/2 114/3/2 121/3/2
f 121/1/2 106/1/2 122/1/2
f 105/1/2 115/1/2 123/1/2
f 116/3/2 117/3/2 124/3/2
f 123/1/2 115/1/2 124/1/2
f 115/3/2 116/3/2 124/3/2
f 124/3/2 117/3/2 125/3/2
f 125/3/2 117/3/2 126/3/2
f 121/3/2 122/3/2 127/3/2
f 120/3/2 121/3/2 127/3/2
f 127/3/2 122/3/2 128/3/2
f 124/3/2 125/3/2 129/3/2
f 123/3/2 124/3/2 129/3/2
f 129/3/2 125/3/2 130/3/2
f 122/1/2 106/1/2 131/1/2
f 128/3/2 122/3/2 131/3/2
f 131/1/2 106/1/2 132/1/2
f 128/3/2 131/3/2 133/3/2
f 131/3/2 132/3/2 133/3/2
f 133/3/2 132/3/2 134/3/2
f 132/1/2 106/1/2 135/1/2
f 134/3/2 132/3/2 135/3/2
f 135/1/2 106/1/2 136/1/2
f 134/3/2 135/3/2 137/3/2
f 135/3/2 136/3/2 137/3/2
f 137/3/2 136/3/2 138/3/2
f 138/3/2 136/3/2 140/3/2
f 105/1/2 123/1/2 141/1/2
f 123/3/2 129/3/2 142/3/2
f 141/1/2 123/1/2 142/1/2
f 139/3/2 140/3/2 143/3/2
f 140/3/2 136/3/2 143/3/2
f 136/1/2 106/1/2 144/1/2
f 143/3/2 136/3/2 144/3/2
f 142/3/2 129/3/2 145/3/2
f 141/3/2 142/3/2 145/3/2
f 145/3/2 129/3/2 146/3/2
f 139/3/2 143/3/2 147/3/2
f 143/1/2 144/1/2 147/1/2
f 144/1/2 106/1/2 148/1/2
f 147/1/2 144/1/2 148/1/2
f 139/3/2 147/3/2 149/3/2
f 147/3/2 148/3/2 149/3/2
f 149/3/2 148/3/2 150/3/2
f 141/3/2 145/3/2 151/3/2
f 105/1/2 141/1/2 153/1/2
f 151/3/2 152/3/2 153/3/2
f 141/3/2 151/3/2 153/3/2
f 153/3/2 152/3/2 154/3/2
f 154/3/2 152/3/2 155/3/2
f 150/3/2 148/3/2 158/3/2
f 155/3/2 156/3/2 159/3/2
f 153/1/2 154/1/2 159/1/2
f 154/3/2 155/3/2 159/3/2
f 159/3/2 156/3/2 160/3/2
f 160/3/2 156/3/2 161/3/2
f 157/3/2 158/3/2 164/3/2
f 158/3/2 148/3/2 165/3/2
f 164/3/2 158/3/2 165/3/2
f 148/1/2 106/1/2 166/1/2
f 165/3/2 148/3/2 166/3/2
f 161/3/2 162/3/2 167/3/2
f 159/1/2 160/1/2 167/1/2
f 160/3/2 161/3/2 167/3/2
f 167/3/2 162/3/2 168/3/2
f 164/3/2 165/3/2 169/3/2
f 163/3/2 164/3/2 169/3/2
f 165/1/2 166/1/2 170/1/2
f 169/3/2 165/3/2 170/3/2
f 168/3/2 162/3/2 171/3/2
f 163/3/2 169/3/2 174/3/2
f 167/1/2 168/1/2 175/1/2
f 171/3/2 172/3/2 175/3/2
f 168/3/2 171/3/2 175/3/2
f 175/3/2 172/3/2 176/3/2
f 176/3/2 172/3/2 177/3/2
f 173/3/2 174/3/2 180/3/2
f 174/3/2 169/3/2 181/3/2
f 180/3/2 174/3/2 181/3/2
f 169/1/2 170/1/2 182/1/2
f 181/3/2 169/3/2 182/3/2
f 177/3/2 178/3/2 183/3/2
f 175/1/2 176/1/2 183/1/2
f 176/3/2 177/3/2 183/3/2
f 183/3/2 178/3/2 184/3/2
f 184/3/2 178/3/2 185/3/2
f 179/3/2 180/3/2 186/3/2
f 180/3/2 181/3/2 186/3/2
f 186/3/2 181/3/2 187/3/2
f 181/1/2 182/1/2 188/1/2
f 187/3/2 181/3/2 188/3/2
f 184/3/2 185/3/2 189/3/2
f 183/1/2 184/1/2 189/1/2
f 186/3/2 187/3/2 189/3/2
f 185/3/2 186/3/2 189/3/2
f 187/1/2 188/1/2 190/1/2
f 189/3/2 187/3/2 190/3/2
f 105/1/2 153/1/2 191/1/2
f 153/1/2 159/1/2 191/1/2
f 189/1/2 190/1/2 191/1/2
f 175/1/2 183/1/2 191/1/2
f 159/1/2 167/1/2 191/1/2
f 183/1/2 189/1/2 191/1/2
f 167/1/2 175/1/2 191/1/2
f 170/1/2 166/1/2 192/1/2
f 191/1/2 190/1/2 192/1/2
f 166/1/2 106/1/2 192/1/2
f 190/1/2 188/1/2 192/1/2
f 182/1/2 170/1/2 192/1/2
f 188/1/2 182/1/2 192/1/2
f 193/1/2 194/1/2 195/1/2
f 195/1/2 194/1/2 196/1/2
f 197/1/2 198/1/2 199/1/2
f 199/1/2 198/1/2 200/1/2
f 201/1/2 202/1/2 203/1/2
f 203/1/2 202/1/2 204/1/2
f 205/1/2 206/1/2 207/1/2
f 207/1/2 206/1/2 208/1/2
f 211/1/3 210/1/3 209/1/3
f 213/1/3 212/1/3 211/1/3
f 215/1/3 214/1/3 213/1/3
f 217/1/3 216/1/3 215/1/3
f 219/1/3 211/1/3 209/1/3
f 219/1/3 218/1/3 217/1/3
f 219/1/3 217/1/3 215/1/3
f 219/1/3 215/1/3 213/1/3
f 219/1/3 213/1/3 211/1/3
f 220/1/3 218/1/3 219/1/3
f 221/2/3 220/2/3 219/2/3
f 222/2/3 220/2/3 221/2/3
f 223/1/3 222/1/3 221/1/3
f 224/1/3 222/1/3 223/1/3
f 225/1/3 223/1/3 221/1/3
f 226/1/3 223/1/3 225/1/3
f 227/1/3 225/1/3 221/1/3
f 228/1/3 225/1/3 227/1/3
f 229/1/3 227/1/3 221/1/3
f 230/1/3 227/1/3 229/1/3
f 231/1/3 229/1/3 221/1/3
f 232/1/3 229/1/3 231/1/3
f 235/3/3 234/3/3 233/3/3
f 236/3/3 234/3/3 235/3/3
f 237/2/3 236/2/3 235/2/3
f 238/2/3 236/2/3 237/2/3
f 239/3/3 238/3/3 237/3/3
f 240/3/3 238/3/3 239/3/3
f 245/3/3 242/3/3 241/3/3
f 246/3/3 242/3/3 245/3/3
f 247/3/3 244/3/3 243/3/3
f 248/3/3 244/3/3 247/3/3
f 249/2/3 246/2/3 245/2/3
f 250/2/3 246/2/3 249/2/3
f 251/2/3 248/2/3 247/2/3
f 252/2/3 248/2/3 251/2/3
f 253/3/3 250/3/3 249/3/3
f 254/3/3 250/3/3 253/3/3
f 255/3/3 252/3/3 251/3/3
f 256/3/3 252/3/3 255/3/3
f 261/3/3 258/3/3 257/3/3
f 262/3/3 258/3/3 261/3/3
f 263/3/3 260/3/3 259/3/3
f 264/3/3 260/3/3 263/3/3
f 265/2/3 262/2/3 261/2/3
f 266/2/3 262/2/3 265/2/3
f 267/2/3 264/2/3 263/2/3
f 268/2/3 264/2/3 267/2/3
f 269/3/3 266/3/3 265/3/3
f 270/3/3 266/3/3 269/3/3
f 271/3/3 268/3/3 267/3/3
f 272/3/3 268/3/3 271/3/3
f 275/3/3 274/3/3 273/3/3
f 276/3/3 274/3/3 275/3/3
f 277/2/3 276/2/3 275/2/3
f 278/2/3 276/2/3 277/2/3
f 279/3/3 278/3/3 277/3/3
f 280/3/3 278/3/3 279/3/3
f 287/3/3 282/3/3 281/3/3
f 288/3/3 282/3/3 287/3/3
f 289/3/3 284/3/3 283/3/3
f 290/3/3 284/3/3 289/3/3
f 291/3/3 286/3/3 285/3/3
f 292/3/3 286/3/3 291/3/3
f 293/2/3 288/2/3 287/2/3
f 294/2/3 288/2/3 293/2/3
f 295/2/3 290/2/3 289/2/3
f 296/2/3 290/2/3 295/2/3
f 297/2/3 292/2/3 291/2/3
f 298/2/3 292/2/3 297/2/3
f 299/3/3 294/3/3 293/3/3
f 300/3/3 294/3/3 299/3/3
f 301/3/3 296/3/3 295/3/3
f 302/3/3 296/3/3 301/3/3
f 303/3/3 298/3/3 297/3/3
f 304/3/3 298/3/3 303/3/3
f 309/3/3 306/3/3 305/3/3
f 310/3/3 306/3/3 309/3/3
f 311/3/3 308/3/3 307/3/3
f 312/3/3 308/3/3 311/3/3
f 313/2/3 310/2/3 309/2/3
f 314/2/3 310/2/3 313/2/3
f 315/2/3 312/2/3 311/2/3
f 316/2/3 312/2/3 315/2/3
f 317/3/3 314/3/3 313/3/3
f 318/3/3 314/3/3 317/3/3
f 319/3/3 316/3/3 315/3/3
f 320/3/3 316/3/3 319/3/3
f 321/3/4 322/3/4 323/3/4
f 323/3/4 322/3/4 324/3/4
f 323/2/4 324/2/4 325/2/4
f 325/2/4 324/2/4 326/2/4
f 325/3/4 326/3/4 327/3/4
f 327/3/4 326/3/4 328/3/4
f 329/3/4 330/3/4 333/3/4
f 333/3/4 330/3/4 334/3/4
f 331/3/4 332/3/4 335/3/4
f 335/3/4 332/3/4 336/3/4
f 333/2/4 334/2/4 337/2/4
f 337/2/4 334/2/4 338/2/4
f 335/2/4 336/2/4 339/2/4
f 339/2/4 336/2/4 340/2/4
f 337/3/4 338/3/4 341/3/4
f 341/3/4 338/3/4 342/3/4
f 339/3/4 340/3/4 343/3/4
f 343/3/4 340/3/4 344/3/4
f 345/3/4 346/3/4 349/3/4
f 349/3/4 346/3/4 350/3/4
f 347/3/4 348/3/4 351/3/4
f 351/3/4 348/3/4 352/3/4
f 349/2/4 350/2/4 353/2/4
f 353/2/4 350/2/4 354/2/4
f 351/2/4 352/2/4 355/2/4
f 355/2/4 352/2/4 356/2/4
f 353/3/4 354/3/4 357/3/4
f 357/3/4 354/3/4 358/3/4
f 355/3/4 356/3/4 359/3/4
f 359/3/4 356/3/4 360/3/4
f 361/3/4 362/3/4 363/3/4
f 363/3/4 362/3/4 364/3/4
f 363/2/4 364/2/4 365/2/4
f 365/2/4 364/2/4 366/2/4
f 365/3/4 366/3/4 367/3/4
f 367/3/4 366/3/4 368/3/4
f 369/3/4 370/3/4 373/3/4
f 373/3/4 370/3/4 374/3/4
f 371/3/4 372/3/4 375/3/4
f 375/3/4 372/3/4 376/3/4
f 373/2/4 374/2/4 377/2/4
f 377/2/4 374/2/4 378/2/4
f 375/2/4 376/2/4 379/2/4
f 379/2/4 376/2/4 380/2/4
f 377/3/4 378/3/4 381/3/4
f 381/3/4 378/3/4 382/3/4
f 379/3/4 380/3/4 383/3/4
f 383/3/4 380/3/4 384/3/4
f 385/3/4 386/3/4 387/3/4
f 387/3/4 386/3/4 388/3/4
f 387/2/4 388/2/4 389/2/4
f 389/2/4 388/2/4 390/2/4
f 389/3/4 390/3/4 391/3/4
f 391/3/4 390/3/4 392/3/4
f 393/3/4 394/3/4 395/3/4
f 395/3/4 394/3/4 396/3/4
f 395/2/4 396/2/4 397/2/4
f 397/2/4 396/2/4 398/2/4
f 397/3/4 398/3/4 399/3/4
f 399/3/4 398/3/4 400/3/4
f 401/1/4 402/1/4 403/1/4
f 403/1/4 404/1/4 405/1/4
f 405/1/4 406/1/4 407/1/4
f 407/1/4 408/1/4 409/1/4
f 401/1/4 403/1/4 411/1/4
f 409/1/4 410/1/4 411/1/4
f 407/1/4 409/1/4 411/1/4
f 405/1/4 407/1/4 411/1/4
f 403/1/4 405/1/4 411/1/4
f 411/1/4 410/1/4 412/1/4
f 411/2/4 412/2/4 413/2/4
f 413/2/4 412/2/4 414/2/4
f 413/1/4 414/1/4 415/1/4
f 415/1/4 414/1/4 416/1/4
f 413/1/4 415/1/4 417/1/4
f 417/1/4 415/1/4 418/1/4
f 413/1/4 417/1/4 419/1/4
f 419/1/4 417/1/4 420/1/4
f 413/1/4 419/1/4 421/1/4
f 421/1/4 419/1/4 422/1/4
f 413/1/4 421/1/4 423/1/4
f 423/1/4 421/1/4 424/1/4
f 429/1/5 426/1/5 425/1/5
f 430/2/5 427/2/5 426/2/5
f 430/1/5 426/1/5 429/1/5
f 431/1/5 428/1/5 427/1/5
f 431/2/5 427/2/5 430/2/5
f 432/1/5 428/1/5 431/1/5
f 437/3/5 434/3/5 433/3/5
f 438/2/5 435/2/5 434/2/5
f 438/3/5 434/3/5 437/3/5
f 439/3/5 436/3/5 435/3/5
f 439/2/5 435/2/5 438/2/5
f 440/3/5 436/3/5 439/3/5
f 445/3/5 442/3/5 441/3/5
f 446/2/5 443/2/5 442/2/5
f 446/3/5 442/3/5 445/3/5
f 447/3/5 444/3/5 443/3/5
f 447/2/5 443/2/5 446/2/5
f 448/3/5 444/3/5 447/3/5
f 453/3/5 450/3/5 449/3/5
f 454/2/5 451/2/5 450/2/5
f 454/3/5 450/3/5 453/3/5
f 455/3/5 452/3/5 451/3/5
f 455/2/5 451/2/5 454/2/5
f 456/3/5 452/3/5 455/3/5
f 461/3/5 458/3/5 457/3/5
f 462/2/5 459/2/5 458/2/5
f 462/3/5 458/3/5 461/3/5
f 463/3/5 460/3/5 459/3/5
f 463/2/5 459/2/5 462/2/5
f 464/3/5 460/3/5 463/3/5
f 469/3/5 466/3/5 465/3/5
f 470/2/5 467/2/5 466/2/5
f 470/3/5 466/3/5 469/3/5
f 471/3/5 468/3/5 467/3/5
f 471/2/5 467/2/5 470/2/5
f 472/3/5 468/3/5 471/3/5
f 477/3/5 474/3/5 473/3/5
f 478/2/5 475/2/5 474/2/5
f 478/3/5 474/3/5 477/3/5
f 479/3/5 476/3/5 475/3/5
f 479/2/5 475/2/5 478/2/5
f 480/3/5 476/3/5 479/3/5
f 485/3/5 482/3/5 481/3/5
f 486/2/5 483/2/5 482/2/5
f 486/3/5 482/3/5 485/3/5
f 487/3/5 484/3/5 483/3/5
f 487/2/5 483/2/5 486/2/5
f 488/3/5 484/3/5 487/3/5
f 493/3/5 490/3/5 489/3/5
f 494/2/5 491/2/5 490/2/5
f 494/3/5 490/3/5 493/3/5
f 495/3/5 492/3/5 491/3/5
f 495/2/5 491/2/5 494/2/5
f 496/3/5 492/3/5 495/3/5
f 501/3/5 498/3/5 497/3/5
f 502/2/5 499/2/5 498/2/5
f 502/3/5 498/3/5 501/3/5
f 503/3/5 500/3/5 499/3/5
f 503/2/5 499/2/5 502/2/5
f 504/3/5 500/3/5 503/3/5
f 509/3/5 506/3/5 505/3/5
f 510/2/5 507/2/5 506/2/5
f 510/3/5 506/3/5 509/3/5
f 511/3/5 508/3/5 507/3/5
f 511/2/5 507/2/5 510/2/5
f 512/3/5 508/3/5 511/3/5
f 517/3/5 514/3/5 513/3/5
f 518/2/5 515/2/5 514/2/5
f 518/3/5 514/3/5 517/3/5
f 519/3/5 516/3/5 515/3/5
f 519/2/5 515/2/5 518/2/5
f 520/3/5 516/3/5 519/3/5
f 521/1/6 522/1/6 525/1/6
f 525/1/6 522/1/6 526/1/6
f 523/1/6 524/1/6 527/1/6
f 527/1/6 524/1/6 528/1/6
f 529/1/6 530/1/6 533/1/6
f 533/1/6 530/1/6 534/1/6
f 531/1/6 532/1/6 535/1/6
f 535/1/6 532/1/6 536/1/6
f 537/1/6 538/1/6 541/1/6
f 541/1/6 538/1/6 542/1/6
f 539/1/6 540/1/6 543/1/6
f 543/1/6 540/1/6 544/1/6
f 545/1/6 546/1/6 549/1/6
f 549/1/6 546/1/6 550/1/6
f 547/1/6 548/1/6 551/1/6
f 551/1/6 548/1/6 552/1/6
f 553/3/6 554/3/6 557/3/6
f 554/2/6 555/2/6 558/2/6
f 557/3/6 554/3/6 558/3/6
f 555/3/6 556/3/6 559/3/6
f 558/2/6 555/2/6 559/2/6
f 559/3/6 556/3/6 560/3/6
f 561/3/6 562/3/6 565/3/6
f 562/2/6 563/2/6 566/2/6
f 565/3/6 562/3/6 566/3/6
f 563/3/6 564/3/6 567/3/6
f 566/2/6 563/2/6 567/2/6
f 567/3/6 564/3/6 568/3/6
f 569/3/6 570/3/6 573/3/6
f 570/2/6 571/2/6 574/2/6
f 573/3/6 570/3/6 574/3/6
f 571/3/6 572/3/6 575/3/6
f 574/2/6 571/2/6 575/2/6
f 575/3/6 572/3/6 576/3/6
f 577/3/6 578/3/6 581/3/6
f 578/2/6 579/2/6 582/2/6
f 581/3/6 578/3/6 582/3/6
f 579/3/6 580/3/6 583/3/6
f 582/2/6 579/2/6 583/2/6
f 583/3/6 580/3/6 584/3/6
f 585/3/6 586/3/6 589/3/6
f 586/2/6 587/2/6 590/2/6
f 589/3/6 586/3/6 590/3/6
f 587/3/6 588/3/6 591/3/6
f 590/2/6 587/2/6 591/2/6
f 591/3/6 588/3/6 592/3/6
f 593/3/6 594/3/6 597/3/6
f 594/2/6 595/2/6 598/2/6
f 597/3/6 594/3/6 598/3/6
f 595/3/6 596/3/6 599/3/6
f 598/2/6 595/2/6 599/2/6
f 599/3/6 596/3/6 600/3/6
f 601/3/6 602/3/6 605/3/6
f 602/2/6 603/2/6 606/2/6
f 605/3/6 602/3/6 606/3/6
f 603/3/6 604/3/6 607/3/6
f 606/2/6 603/2/6 607/2/6
f 607/3/6 604/3/6 608/3/6
f 609/3/6 610/3/6 613/3/6
f 610/2/6 611/2/6 614/2/6
f 613/3/6 610/3/6 614/3/6
f 611/3/6 612/3/6 615/3/6
f 614/2/6 611/2/6 615/2/6
f 615/3/6 612/3/6 616/3/6
f 617/3/6 618/3/6 621/3/6
f 618/2/6 619/2/6 622/2/6
f 621/3/6 618/3/6 622/3/6
f 619/3/6 620/3/6 623/3/6
f 622/2/6 619/2/6 623/2/6
f 623/3/6 620/3/6 624/3/6
f 625/3/6 626/3/6 629/3/6
f 626/2/6 627/2/6 630/2/6
f 629/3/6 626/3/6 630/3/6
f 627/3/6 628/3/6 631/3/6
f 630/2/6 627/2/6 631/2/6
f 631/3/6 628/3/6 632/3/6
f 633/1/6 634/1/6 637/1/6
f 634/2/6 635/2/6 638/2/6
f 637/1/6 634/1/6 638/1/6
f 635/1/6 636/1/6 639/1/6
f 638/2/6 635/2/6 639/2/6
f 639/1/6 636/1/6 640/1/6
