# MagicaVoxel @ Ephtracy

# group
o 

# material
mtllib IcyDoor.mtl
usemtl palette

# normals
vn -1 0 0
vn 1 0 0
vn 0 0 1
vn 0 0 -1
vn 0 -1 0
vn 0 1 0

# texcoords
vt 0.755859 0.5
vt 0.775391 0.5

# verts
v 0 2 0
v 0 2 -1.2
v 0 2 -3
v 0 2 -4
v 0 2.1 0
v 0 2.1 -1.2
v 0 2.1 -3
v 0 2.1 -4
v 0.1 2.1 0
v 0.1 2.1 -1.2
v 0.1 2.1 -3
v 0.1 2.1 -4
v 0.1 2.3 0
v 0.1 2.3 -1.2
v 0.1 2.3 -3
v 0.1 2.3 -4
v 0.2 2.3 0
v 0.2 2.3 -1.2
v 0.2 2.3 -3
v 0.2 2.3 -4
v 0.2 2.5 0
v 0.2 2.5 -1.2
v 0.2 2.5 -3
v 0.2 2.5 -4
v 0.3 2.5 0
v 0.3 2.5 -1.2
v 0.3 2.5 -3
v 0.3 2.5 -4
v 0.3 2.7 0
v 0.3 2.7 -1.2
v 0.3 2.7 -3
v 0.3 2.7 -4
v 0.4 2.7 0
v 0.4 2.7 -1.2
v 0.4 2.7 -3
v 0.4 2.7 -4
v 0.4 3.7 -1.2
v 0.4 3.7 -1.3
v 0.4 3.9 -2.9
v 0.4 3.9 -3
v 0.4 4.3 -1.4
v 0.4 4.3 -1.5
v 0.4 4.4 -2.8
v 0.4 4.4 -2.9
v 0.4 4.5 -1.3
v 0.4 4.5 -1.4
v 0.4 4.5 -2.7
v 0.4 4.5 -2.8
v 0.4 4.8 -1.5
v 0.4 4.8 -1.6
v 0.4 4.8 -2.4
v 0.4 4.8 -2.5
v 0.4 4.9 -2.6
v 0.4 4.9 -2.7
v 0.4 5.1 -1.7
v 0.4 5.1 -1.8
v 0.4 5.1 -2.3
v 0.4 5.1 -2.4
v 0.4 5.2 -1.6
v 0.4 5.2 -1.7
v 0.4 5.2 -2.1
v 0.4 5.2 -2.2
v 0.4 5.2 -2.5
v 0.4 5.2 -2.6
v 0.4 5.3 -1.8
v 0.4 5.3 -1.9
v 0.4 5.4 -1.9
v 0.4 5.4 -2
v 0.4 5.4 -2.2
v 0.4 5.4 -2.3
v 0.4 5.5 -2
v 0.4 5.5 -2.1
v 0.4 5.9 0
v 0.4 5.9 -4
v 0.8 2.7 0
v 0.8 2.7 -1.2
v 0.8 2.7 -3
v 0.8 2.7 -4
v 0.8 3.7 -1.2
v 0.8 3.7 -1.3
v 0.8 3.9 -2.9
v 0.8 3.9 -3
v 0.8 4.3 -1.4
v 0.8 4.3 -1.5
v 0.8 4.4 -2.8
v 0.8 4.4 -2.9
v 0.8 4.5 -1.3
v 0.8 4.5 -1.4
v 0.8 4.5 -2.7
v 0.8 4.5 -2.8
v 0.8 4.8 -1.5
v 0.8 4.8 -1.6
v 0.8 4.8 -2.4
v 0.8 4.8 -2.5
v 0.8 4.9 -2.6
v 0.8 4.9 -2.7
v 0.8 5.1 -1.7
v 0.8 5.1 -1.8
v 0.8 5.1 -2.3
v 0.8 5.1 -2.4
v 0.8 5.2 -1.6
v 0.8 5.2 -1.7
v 0.8 5.2 -2.1
v 0.8 5.2 -2.2
v 0.8 5.2 -2.5
v 0.8 5.2 -2.6
v 0.8 5.3 -1.8
v 0.8 5.3 -1.9
v 0.8 5.4 -1.9
v 0.8 5.4 -2
v 0.8 5.4 -2.2
v 0.8 5.4 -2.3
v 0.8 5.5 -2
v 0.8 5.5 -2.1
v 0.8 5.9 0
v 0.8 5.9 -4
v 0.9 2.5 0
v 0.9 2.5 -1.2
v 0.9 2.5 -3
v 0.9 2.5 -4
v 0.9 2.7 0
v 0.9 2.7 -1.2
v 0.9 2.7 -3
v 0.9 2.7 -4
v 1 2.3 0
v 1 2.3 -1.2
v 1 2.3 -3
v 1 2.3 -4
v 1 2.5 0
v 1 2.5 -1.2
v 1 2.5 -3
v 1 2.5 -4
v 1.1 2.1 0
v 1.1 2.1 -1.2
v 1.1 2.1 -3
v 1.1 2.1 -4
v 1.1 2.3 0
v 1.1 2.3 -1.2
v 1.1 2.3 -3
v 1.1 2.3 -4
v 1.2 2 0
v 1.2 2 -1.2
v 1.2 2 -3
v 1.2 2 -4
v 1.2 2.1 0
v 1.2 2.1 -1.2
v 1.2 2.1 -3
v 1.2 2.1 -4
v 0 2 0
v 0 2.1 0
v 0.1 2.1 0
v 0.1 2.3 0
v 0.2 2.3 0
v 0.2 2.5 0
v 0.3 2.5 0
v 0.3 2.7 0
v 0.4 2.7 0
v 0.4 5.9 0
v 0.5 2 0
v 0.5 5.9 0
v 0.7 2 0
v 0.7 5.9 0
v 0.8 2.7 0
v 0.8 5.9 0
v 0.9 2.5 0
v 0.9 2.7 0
v 1 2.3 0
v 1 2.5 0
v 1.1 2.1 0
v 1.1 2.3 0
v 1.2 2 0
v 1.2 2.1 0
v 0.4 4.3 -1.4
v 0.4 4.5 -1.4
v 0.5 4.3 -1.4
v 0.5 4.5 -1.4
v 0.7 4.3 -1.4
v 0.7 4.5 -1.4
v 0.8 4.3 -1.4
v 0.8 4.5 -1.4
v 0.4 5.1 -1.7
v 0.4 5.2 -1.7
v 0.5 5.1 -1.7
v 0.5 5.2 -1.7
v 0.7 5.1 -1.7
v 0.7 5.2 -1.7
v 0.8 5.1 -1.7
v 0.8 5.2 -1.7
v 0.4 5.2 -2.1
v 0.4 5.5 -2.1
v 0.5 5.2 -2.1
v 0.5 5.5 -2.1
v 0.7 5.2 -2.1
v 0.7 5.5 -2.1
v 0.8 5.2 -2.1
v 0.8 5.5 -2.1
v 0.4 5.1 -2.3
v 0.4 5.4 -2.3
v 0.5 5.1 -2.3
v 0.5 5.4 -2.3
v 0.7 5.1 -2.3
v 0.7 5.4 -2.3
v 0.8 5.1 -2.3
v 0.8 5.4 -2.3
v 0.4 4.8 -2.4
v 0.4 5.1 -2.4
v 0.5 4.8 -2.4
v 0.5 5.1 -2.4
v 0.7 4.8 -2.4
v 0.7 5.1 -2.4
v 0.8 4.8 -2.4
v 0.8 5.1 -2.4
v 0.4 4.9 -2.6
v 0.4 5.2 -2.6
v 0.5 4.9 -2.6
v 0.5 5.2 -2.6
v 0.7 4.9 -2.6
v 0.7 5.2 -2.6
v 0.8 4.9 -2.6
v 0.8 5.2 -2.6
v 0.4 4.5 -2.7
v 0.4 4.9 -2.7
v 0.5 4.5 -2.7
v 0.5 4.9 -2.7
v 0.7 4.5 -2.7
v 0.7 4.9 -2.7
v 0.8 4.5 -2.7
v 0.8 4.9 -2.7
v 0.4 4.4 -2.8
v 0.4 4.5 -2.8
v 0.5 4.4 -2.8
v 0.5 4.5 -2.8
v 0.7 4.4 -2.8
v 0.7 4.5 -2.8
v 0.8 4.4 -2.8
v 0.8 4.5 -2.8
v 0.4 3.9 -2.9
v 0.4 4.4 -2.9
v 0.5 3.9 -2.9
v 0.5 4.4 -2.9
v 0.7 3.9 -2.9
v 0.7 4.4 -2.9
v 0.8 3.9 -2.9
v 0.8 4.4 -2.9
v 0 2 -3
v 0 2.1 -3
v 0.1 2.1 -3
v 0.1 2.3 -3
v 0.2 2.3 -3
v 0.2 2.5 -3
v 0.3 2.5 -3
v 0.3 2.7 -3
v 0.4 2.7 -3
v 0.4 3.9 -3
v 0.5 2 -3
v 0.5 3.9 -3
v 0.7 2 -3
v 0.7 3.9 -3
v 0.8 2.7 -3
v 0.8 3.9 -3
v 0.9 2.5 -3
v 0.9 2.7 -3
v 1 2.3 -3
v 1 2.5 -3
v 1.1 2.1 -3
v 1.1 2.3 -3
v 1.2 2 -3
v 1.2 2.1 -3
v 0 2 -1.2
v 0 2.1 -1.2
v 0.1 2.1 -1.2
v 0.1 2.3 -1.2
v 0.2 2.3 -1.2
v 0.2 2.5 -1.2
v 0.3 2.5 -1.2
v 0.3 2.7 -1.2
v 0.4 2.7 -1.2
v 0.4 3.7 -1.2
v 0.5 2 -1.2
v 0.5 3.7 -1.2
v 0.7 2 -1.2
v 0.7 3.7 -1.2
v 0.8 2.7 -1.2
v 0.8 3.7 -1.2
v 0.9 2.5 -1.2
v 0.9 2.7 -1.2
v 1 2.3 -1.2
v 1 2.5 -1.2
v 1.1 2.1 -1.2
v 1.1 2.3 -1.2
v 1.2 2 -1.2
v 1.2 2.1 -1.2
v 0.4 3.7 -1.3
v 0.4 4.5 -1.3
v 0.5 3.7 -1.3
v 0.5 4.5 -1.3
v 0.7 3.7 -1.3
v 0.7 4.5 -1.3
v 0.8 3.7 -1.3
v 0.8 4.5 -1.3
v 0.4 4.3 -1.5
v 0.4 4.8 -1.5
v 0.5 4.3 -1.5
v 0.5 4.8 -1.5
v 0.7 4.3 -1.5
v 0.7 4.8 -1.5
v 0.8 4.3 -1.5
v 0.8 4.8 -1.5
v 0.4 4.8 -1.6
v 0.4 5.2 -1.6
v 0.5 4.8 -1.6
v 0.5 5.2 -1.6
v 0.7 4.8 -1.6
v 0.7 5.2 -1.6
v 0.8 4.8 -1.6
v 0.8 5.2 -1.6
v 0.4 5.1 -1.8
v 0.4 5.3 -1.8
v 0.5 5.1 -1.8
v 0.5 5.3 -1.8
v 0.7 5.1 -1.8
v 0.7 5.3 -1.8
v 0.8 5.1 -1.8
v 0.8 5.3 -1.8
v 0.4 5.3 -1.9
v 0.4 5.4 -1.9
v 0.5 5.3 -1.9
v 0.5 5.4 -1.9
v 0.7 5.3 -1.9
v 0.7 5.4 -1.9
v 0.8 5.3 -1.9
v 0.8 5.4 -1.9
v 0.4 5.4 -2
v 0.4 5.5 -2
v 0.5 5.4 -2
v 0.5 5.5 -2
v 0.7 5.4 -2
v 0.7 5.5 -2
v 0.8 5.4 -2
v 0.8 5.5 -2
v 0.4 5.2 -2.2
v 0.4 5.4 -2.2
v 0.5 5.2 -2.2
v 0.5 5.4 -2.2
v 0.7 5.2 -2.2
v 0.7 5.4 -2.2
v 0.8 5.2 -2.2
v 0.8 5.4 -2.2
v 0.4 4.8 -2.5
v 0.4 5.2 -2.5
v 0.5 4.8 -2.5
v 0.5 5.2 -2.5
v 0.7 4.8 -2.5
v 0.7 5.2 -2.5
v 0.8 4.8 -2.5
v 0.8 5.2 -2.5
v 0 2 -4
v 0 2.1 -4
v 0.1 2.1 -4
v 0.1 2.3 -4
v 0.2 2.3 -4
v 0.2 2.5 -4
v 0.3 2.5 -4
v 0.3 2.7 -4
v 0.4 2.7 -4
v 0.4 5.9 -4
v 0.5 2 -4
v 0.5 5.9 -4
v 0.7 2 -4
v 0.7 5.9 -4
v 0.8 2.7 -4
v 0.8 5.9 -4
v 0.9 2.5 -4
v 0.9 2.7 -4
v 1 2.3 -4
v 1 2.5 -4
v 1.1 2.1 -4
v 1.1 2.3 -4
v 1.2 2 -4
v 1.2 2.1 -4
v 0 2 0
v 0.5 2 0
v 0.7 2 0
v 1.2 2 0
v 0 2 -1.2
v 0.5 2 -1.2
v 0.7 2 -1.2
v 1.2 2 -1.2
v 0 2 -3
v 0.5 2 -3
v 0.7 2 -3
v 1.2 2 -3
v 0 2 -4
v 0.5 2 -4
v 0.7 2 -4
v 1.2 2 -4
v 0.4 3.7 -1.2
v 0.5 3.7 -1.2
v 0.7 3.7 -1.2
v 0.8 3.7 -1.2
v 0.4 3.7 -1.3
v 0.5 3.7 -1.3
v 0.7 3.7 -1.3
v 0.8 3.7 -1.3
v 0.4 3.9 -2.9
v 0.5 3.9 -2.9
v 0.7 3.9 -2.9
v 0.8 3.9 -2.9
v 0.4 3.9 -3
v 0.5 3.9 -3
v 0.7 3.9 -3
v 0.8 3.9 -3
v 0.4 4.3 -1.4
v 0.5 4.3 -1.4
v 0.7 4.3 -1.4
v 0.8 4.3 -1.4
v 0.4 4.3 -1.5
v 0.5 4.3 -1.5
v 0.7 4.3 -1.5
v 0.8 4.3 -1.5
v 0.4 4.4 -2.8
v 0.5 4.4 -2.8
v 0.7 4.4 -2.8
v 0.8 4.4 -2.8
v 0.4 4.4 -2.9
v 0.5 4.4 -2.9
v 0.7 4.4 -2.9
v 0.8 4.4 -2.9
v 0.4 4.5 -1.3
v 0.5 4.5 -1.3
v 0.7 4.5 -1.3
v 0.8 4.5 -1.3
v 0.4 4.5 -1.4
v 0.5 4.5 -1.4
v 0.7 4.5 -1.4
v 0.8 4.5 -1.4
v 0.4 4.5 -2.7
v 0.5 4.5 -2.7
v 0.7 4.5 -2.7
v 0.8 4.5 -2.7
v 0.4 4.5 -2.8
v 0.5 4.5 -2.8
v 0.7 4.5 -2.8
v 0.8 4.5 -2.8
v 0.4 4.8 -1.5
v 0.5 4.8 -1.5
v 0.7 4.8 -1.5
v 0.8 4.8 -1.5
v 0.4 4.8 -1.6
v 0.5 4.8 -1.6
v 0.7 4.8 -1.6
v 0.8 4.8 -1.6
v 0.4 4.8 -2.4
v 0.5 4.8 -2.4
v 0.7 4.8 -2.4
v 0.8 4.8 -2.4
v 0.4 4.8 -2.5
v 0.5 4.8 -2.5
v 0.7 4.8 -2.5
v 0.8 4.8 -2.5
v 0.4 4.9 -2.6
v 0.5 4.9 -2.6
v 0.7 4.9 -2.6
v 0.8 4.9 -2.6
v 0.4 4.9 -2.7
v 0.5 4.9 -2.7
v 0.7 4.9 -2.7
v 0.8 4.9 -2.7
v 0.4 5.1 -1.7
v 0.5 5.1 -1.7
v 0.7 5.1 -1.7
v 0.8 5.1 -1.7
v 0.4 5.1 -1.8
v 0.5 5.1 -1.8
v 0.7 5.1 -1.8
v 0.8 5.1 -1.8
v 0.4 5.1 -2.3
v 0.5 5.1 -2.3
v 0.7 5.1 -2.3
v 0.8 5.1 -2.3
v 0.4 5.1 -2.4
v 0.5 5.1 -2.4
v 0.7 5.1 -2.4
v 0.8 5.1 -2.4
v 0.4 5.2 -1.6
v 0.5 5.2 -1.6
v 0.7 5.2 -1.6
v 0.8 5.2 -1.6
v 0.4 5.2 -1.7
v 0.5 5.2 -1.7
v 0.7 5.2 -1.7
v 0.8 5.2 -1.7
v 0.4 5.2 -2.1
v 0.5 5.2 -2.1
v 0.7 5.2 -2.1
v 0.8 5.2 -2.1
v 0.4 5.2 -2.2
v 0.5 5.2 -2.2
v 0.7 5.2 -2.2
v 0.8 5.2 -2.2
v 0.4 5.2 -2.5
v 0.5 5.2 -2.5
v 0.7 5.2 -2.5
v 0.8 5.2 -2.5
v 0.4 5.2 -2.6
v 0.5 5.2 -2.6
v 0.7 5.2 -2.6
v 0.8 5.2 -2.6
v 0.4 5.3 -1.8
v 0.5 5.3 -1.8
v 0.7 5.3 -1.8
v 0.8 5.3 -1.8
v 0.4 5.3 -1.9
v 0.5 5.3 -1.9
v 0.7 5.3 -1.9
v 0.8 5.3 -1.9
v 0.4 5.4 -1.9
v 0.5 5.4 -1.9
v 0.7 5.4 -1.9
v 0.8 5.4 -1.9
v 0.4 5.4 -2
v 0.5 5.4 -2
v 0.7 5.4 -2
v 0.8 5.4 -2
v 0.4 5.4 -2.2
v 0.5 5.4 -2.2
v 0.7 5.4 -2.2
v 0.8 5.4 -2.2
v 0.4 5.4 -2.3
v 0.5 5.4 -2.3
v 0.7 5.4 -2.3
v 0.8 5.4 -2.3
v 0.4 5.5 -2
v 0.5 5.5 -2
v 0.7 5.5 -2
v 0.8 5.5 -2
v 0.4 5.5 -2.1
v 0.5 5.5 -2.1
v 0.7 5.5 -2.1
v 0.8 5.5 -2.1
v 0 2.1 0
v 0.1 2.1 0
v 1.1 2.1 0
v 1.2 2.1 0
v 0 2.1 -1.2
v 0.1 2.1 -1.2
v 1.1 2.1 -1.2
v 1.2 2.1 -1.2
v 0 2.1 -3
v 0.1 2.1 -3
v 1.1 2.1 -3
v 1.2 2.1 -3
v 0 2.1 -4
v 0.1 2.1 -4
v 1.1 2.1 -4
v 1.2 2.1 -4
v 0.1 2.3 0
v 0.2 2.3 0
v 1 2.3 0
v 1.1 2.3 0
v 0.1 2.3 -1.2
v 0.2 2.3 -1.2
v 1 2.3 -1.2
v 1.1 2.3 -1.2
v 0.1 2.3 -3
v 0.2 2.3 -3
v 1 2.3 -3
v 1.1 2.3 -3
v 0.1 2.3 -4
v 0.2 2.3 -4
v 1 2.3 -4
v 1.1 2.3 -4
v 0.2 2.5 0
v 0.3 2.5 0
v 0.9 2.5 0
v 1 2.5 0
v 0.2 2.5 -1.2
v 0.3 2.5 -1.2
v 0.9 2.5 -1.2
v 1 2.5 -1.2
v 0.2 2.5 -3
v 0.3 2.5 -3
v 0.9 2.5 -3
v 1 2.5 -3
v 0.2 2.5 -4
v 0.3 2.5 -4
v 0.9 2.5 -4
v 1 2.5 -4
v 0.3 2.7 0
v 0.4 2.7 0
v 0.8 2.7 0
v 0.9 2.7 0
v 0.3 2.7 -1.2
v 0.4 2.7 -1.2
v 0.8 2.7 -1.2
v 0.9 2.7 -1.2
v 0.3 2.7 -3
v 0.4 2.7 -3
v 0.8 2.7 -3
v 0.9 2.7 -3
v 0.3 2.7 -4
v 0.4 2.7 -4
v 0.8 2.7 -4
v 0.9 2.7 -4
v 0.4 5.9 0
v 0.5 5.9 0
v 0.7 5.9 0
v 0.8 5.9 0
v 0.4 5.9 -4
v 0.5 5.9 -4
v 0.7 5.9 -4
v 0.8 5.9 -4

# faces
f 5/1/1 2/1/1 1/1/1
f 6/1/1 2/1/1 5/1/1
f 7/1/1 4/1/1 3/1/1
f 8/1/1 4/1/1 7/1/1
f 13/1/1 10/1/1 9/1/1
f 14/1/1 10/1/1 13/1/1
f 15/1/1 12/1/1 11/1/1
f 16/1/1 12/1/1 15/1/1
f 21/1/1 18/1/1 17/1/1
f 22/1/1 18/1/1 21/1/1
f 23/1/1 20/1/1 19/1/1
f 24/1/1 20/1/1 23/1/1
f 29/1/1 26/1/1 25/1/1
f 30/1/1 26/1/1 29/1/1
f 31/1/1 28/1/1 27/1/1
f 32/1/1 28/1/1 31/1/1
f 37/1/1 34/1/1 33/1/1
f 40/1/1 36/1/1 35/1/1
f 44/1/1 40/1/1 39/1/1
f 45/1/1 38/1/1 37/1/1
f 46/1/1 42/1/1 41/1/1
f 48/1/1 44/1/1 43/1/1
f 49/1/1 46/1/1 45/1/1
f 49/1/1 42/1/1 46/1/1
f 54/1/1 48/1/1 47/1/1
f 58/1/1 52/1/1 51/1/1
f 59/1/1 50/1/1 49/1/1
f 60/1/1 56/1/1 55/1/1
f 63/1/1 58/1/1 57/1/1
f 63/1/1 52/1/1 58/1/1
f 64/1/1 54/1/1 53/1/1
f 65/1/1 60/1/1 59/1/1
f 65/1/1 56/1/1 60/1/1
f 67/1/1 66/1/1 65/1/1
f 69/1/1 62/1/1 61/1/1
f 70/1/1 63/1/1 57/1/1
f 70/1/1 64/1/1 63/1/1
f 71/1/1 68/1/1 67/1/1
f 72/1/1 70/1/1 69/1/1
f 72/1/1 69/1/1 61/1/1
f 73/1/1 59/1/1 49/1/1
f 73/1/1 72/1/1 71/1/1
f 73/1/1 37/1/1 33/1/1
f 73/1/1 45/1/1 37/1/1
f 73/1/1 49/1/1 45/1/1
f 73/1/1 65/1/1 59/1/1
f 73/1/1 71/1/1 67/1/1
f 73/1/1 67/1/1 65/1/1
f 74/1/1 70/1/1 72/1/1
f 74/1/1 72/1/1 73/1/1
f 74/1/1 36/1/1 40/1/1
f 74/1/1 40/1/1 44/1/1
f 74/1/1 44/1/1 48/1/1
f 74/1/1 64/1/1 70/1/1
f 74/1/1 48/1/1 54/1/1
f 74/1/1 54/1/1 64/1/1
f 75/1/2 76/1/2 79/1/2
f 77/1/2 78/1/2 82/1/2
f 81/1/2 82/1/2 86/1/2
f 79/1/2 80/1/2 87/1/2
f 83/1/2 84/1/2 88/1/2
f 85/1/2 86/1/2 90/1/2
f 87/1/2 88/1/2 91/1/2
f 88/1/2 84/1/2 91/1/2
f 89/1/2 90/1/2 96/1/2
f 93/1/2 94/1/2 100/1/2
f 91/1/2 92/1/2 101/1/2
f 97/1/2 98/1/2 102/1/2
f 99/1/2 100/1/2 105/1/2
f 100/1/2 94/1/2 105/1/2
f 95/1/2 96/1/2 106/1/2
f 101/1/2 102/1/2 107/1/2
f 102/1/2 98/1/2 107/1/2
f 107/1/2 108/1/2 109/1/2
f 103/1/2 104/1/2 111/1/2
f 99/1/2 105/1/2 112/1/2
f 105/1/2 106/1/2 112/1/2
f 109/1/2 110/1/2 113/1/2
f 111/1/2 112/1/2 114/1/2
f 103/1/2 111/1/2 114/1/2
f 91/1/2 101/1/2 115/1/2
f 113/1/2 114/1/2 115/1/2
f 75/1/2 79/1/2 115/1/2
f 79/1/2 87/1/2 115/1/2
f 87/1/2 91/1/2 115/1/2
f 101/1/2 107/1/2 115/1/2
f 109/1/2 113/1/2 115/1/2
f 107/1/2 109/1/2 115/1/2
f 114/1/2 112/1/2 116/1/2
f 115/1/2 114/1/2 116/1/2
f 82/1/2 78/1/2 116/1/2
f 86/1/2 82/1/2 116/1/2
f 90/1/2 86/1/2 116/1/2
f 112/1/2 106/1/2 116/1/2
f 96/1/2 90/1/2 116/1/2
f 106/1/2 96/1/2 116/1/2
f 117/1/2 118/1/2 121/1/2
f 121/1/2 118/1/2 122/1/2
f 119/1/2 120/1/2 123/1/2
f 123/1/2 120/1/2 124/1/2
f 125/1/2 126/1/2 129/1/2
f 129/1/2 126/1/2 130/1/2
f 127/1/2 128/1/2 131/1/2
f 131/1/2 128/1/2 132/1/2
f 133/1/2 134/1/2 137/1/2
f 137/1/2 134/1/2 138/1/2
f 135/1/2 136/1/2 139/1/2
f 139/1/2 136/1/2 140/1/2
f 141/1/2 142/1/2 145/1/2
f 145/1/2 142/1/2 146/1/2
f 143/1/2 144/1/2 147/1/2
f 147/1/2 144/1/2 148/1/2
f 151/1/3 150/1/3 149/1/3
f 153/1/3 152/1/3 151/1/3
f 155/1/3 154/1/3 153/1/3
f 157/1/3 156/1/3 155/1/3
f 159/1/3 151/1/3 149/1/3
f 159/1/3 158/1/3 157/1/3
f 159/1/3 157/1/3 155/1/3
f 159/1/3 155/1/3 153/1/3
f 159/1/3 153/1/3 151/1/3
f 160/1/3 158/1/3 159/1/3
f 161/2/3 160/2/3 159/2/3
f 162/2/3 160/2/3 161/2/3
f 163/1/3 162/1/3 161/1/3
f 164/1/3 162/1/3 163/1/3
f 165/1/3 163/1/3 161/1/3
f 166/1/3 163/1/3 165/1/3
f 167/1/3 165/1/3 161/1/3
f 168/1/3 165/1/3 167/1/3
f 169/1/3 167/1/3 161/1/3
f 170/1/3 167/1/3 169/1/3
f 171/1/3 169/1/3 161/1/3
f 172/1/3 169/1/3 171/1/3
f 175/1/3 174/1/3 173/1/3
f 176/1/3 174/1/3 175/1/3
f 177/2/3 176/2/3 175/2/3
f 178/2/3 176/2/3 177/2/3
f 179/1/3 178/1/3 177/1/3
f 180/1/3 178/1/3 179/1/3
f 183/1/3 182/1/3 181/1/3
f 184/1/3 182/1/3 183/1/3
f 185/2/3 184/2/3 183/2/3
f 186/2/3 184/2/3 185/2/3
f 187/1/3 186/1/3 185/1/3
f 188/1/3 186/1/3 187/1/3
f 191/1/3 190/1/3 189/1/3
f 192/1/3 190/1/3 191/1/3
f 193/2/3 192/2/3 191/2/3
f 194/2/3 192/2/3 193/2/3
f 195/1/3 194/1/3 193/1/3
f 196/1/3 194/1/3 195/1/3
f 199/1/3 198/1/3 197/1/3
f 200/1/3 198/1/3 199/1/3
f 201/2/3 200/2/3 199/2/3
f 202/2/3 200/2/3 201/2/3
f 203/1/3 202/1/3 201/1/3
f 204/1/3 202/1/3 203/1/3
f 207/1/3 206/1/3 205/1/3
f 208/1/3 206/1/3 207/1/3
f 209/2/3 208/2/3 207/2/3
f 210/2/3 208/2/3 209/2/3
f 211/1/3 210/1/3 209/1/3
f 212/1/3 210/1/3 211/1/3
f 215/1/3 214/1/3 213/1/3
f 216/1/3 214/1/3 215/1/3
f 217/2/3 216/2/3 215/2/3
f 218/2/3 216/2/3 217/2/3
f 219/1/3 218/1/3 217/1/3
f 220/1/3 218/1/3 219/1/3
f 223/1/3 222/1/3 221/1/3
f 224/1/3 222/1/3 223/1/3
f 225/2/3 224/2/3 223/2/3
f 226/2/3 224/2/3 225/2/3
f 227/1/3 226/1/3 225/1/3
f 228/1/3 226/1/3 227/1/3
f 231/1/3 230/1/3 229/1/3
f 232/1/3 230/1/3 231/1/3
f 233/2/3 232/2/3 231/2/3
f 234/2/3 232/2/3 233/2/3
f 235/1/3 234/1/3 233/1/3
f 236/1/3 234/1/3 235/1/3
f 239/1/3 238/1/3 237/1/3
f 240/1/3 238/1/3 239/1/3
f 241/2/3 240/2/3 239/2/3
f 242/2/3 240/2/3 241/2/3
f 243/1/3 242/1/3 241/1/3
f 244/1/3 242/1/3 243/1/3
f 247/1/3 246/1/3 245/1/3
f 249/1/3 248/1/3 247/1/3
f 251/1/3 250/1/3 249/1/3
f 253/1/3 252/1/3 251/1/3
f 255/1/3 247/1/3 245/1/3
f 255/1/3 254/1/3 253/1/3
f 255/1/3 253/1/3 251/1/3
f 255/1/3 251/1/3 249/1/3
f 255/1/3 249/1/3 247/1/3
f 256/1/3 254/1/3 255/1/3
f 257/2/3 256/2/3 255/2/3
f 258/2/3 256/2/3 257/2/3
f 259/1/3 258/1/3 257/1/3
f 260/1/3 258/1/3 259/1/3
f 261/1/3 259/1/3 257/1/3
f 262/1/3 259/1/3 261/1/3
f 263/1/3 261/1/3 257/1/3
f 264/1/3 261/1/3 263/1/3
f 265/1/3 263/1/3 257/1/3
f 266/1/3 263/1/3 265/1/3
f 267/1/3 265/1/3 257/1/3
f 268/1/3 265/1/3 267/1/3
f 269/1/4 270/1/4 271/1/4
f 271/1/4 272/1/4 273/1/4
f 273/1/4 274/1/4 275/1/4
f 275/1/4 276/1/4 277/1/4
f 269/1/4 271/1/4 279/1/4
f 277/1/4 278/1/4 279/1/4
f 275/1/4 277/1/4 279/1/4
f 273/1/4 275/1/4 279/1/4
f 271/1/4 273/1/4 279/1/4
f 279/1/4 278/1/4 280/1/4
f 279/2/4 280/2/4 281/2/4
f 281/2/4 280/2/4 282/2/4
f 281/1/4 282/1/4 283/1/4
f 283/1/4 282/1/4 284/1/4
f 281/1/4 283/1/4 285/1/4
f 285/1/4 283/1/4 286/1/4
f 281/1/4 285/1/4 287/1/4
f 287/1/4 285/1/4 288/1/4
f 281/1/4 287/1/4 289/1/4
f 289/1/4 287/1/4 290/1/4
f 281/1/4 289/1/4 291/1/4
f 291/1/4 289/1/4 292/1/4
f 293/1/4 294/1/4 295/1/4
f 295/1/4 294/1/4 296/1/4
f 295/2/4 296/2/4 297/2/4
f 297/2/4 296/2/4 298/2/4
f 297/1/4 298/1/4 299/1/4
f 299/1/4 298/1/4 300/1/4
f 301/1/4 302/1/4 303/1/4
f 303/1/4 302/1/4 304/1/4
f 303/2/4 304/2/4 305/2/4
f 305/2/4 304/2/4 306/2/4
f 305/1/4 306/1/4 307/1/4
f 307/1/4 306/1/4 308/1/4
f 309/1/4 310/1/4 311/1/4
f 311/1/4 310/1/4 312/1/4
f 311/2/4 312/2/4 313/2/4
f 313/2/4 312/2/4 314/2/4
f 313/1/4 314/1/4 315/1/4
f 315/1/4 314/1/4 316/1/4
f 317/1/4 318/1/4 319/1/4
f 319/1/4 318/1/4 320/1/4
f 319/2/4 320/2/4 321/2/4
f 321/2/4 320/2/4 322/2/4
f 321/1/4 322/1/4 323/1/4
f 323/1/4 322/1/4 324/1/4
f 325/1/4 326/1/4 327/1/4
f 327/1/4 326/1/4 328/1/4
f 327/2/4 328/2/4 329/2/4
f 329/2/4 328/2/4 330/2/4
f 329/1/4 330/1/4 331/1/4
f 331/1/4 330/1/4 332/1/4
f 333/1/4 334/1/4 335/1/4
f 335/1/4 334/1/4 336/1/4
f 335/2/4 336/2/4 337/2/4
f 337/2/4 336/2/4 338/2/4
f 337/1/4 338/1/4 339/1/4
f 339/1/4 338/1/4 340/1/4
f 341/1/4 342/1/4 343/1/4
f 343/1/4 342/1/4 344/1/4
f 343/2/4 344/2/4 345/2/4
f 345/2/4 344/2/4 346/2/4
f 345/1/4 346/1/4 347/1/4
f 347/1/4 346/1/4 348/1/4
f 349/1/4 350/1/4 351/1/4
f 351/1/4 350/1/4 352/1/4
f 351/2/4 352/2/4 353/2/4
f 353/2/4 352/2/4 354/2/4
f 353/1/4 354/1/4 355/1/4
f 355/1/4 354/1/4 356/1/4
f 357/1/4 358/1/4 359/1/4
f 359/1/4 360/1/4 361/1/4
f 361/1/4 362/1/4 363/1/4
f 363/1/4 364/1/4 365/1/4
f 357/1/4 359/1/4 367/1/4
f 365/1/4 366/1/4 367/1/4
f 363/1/4 365/1/4 367/1/4
f 361/1/4 363/1/4 367/1/4
f 359/1/4 361/1/4 367/1/4
f 367/1/4 366/1/4 368/1/4
f 367/2/4 368/2/4 369/2/4
f 369/2/4 368/2/4 370/2/4
f 369/1/4 370/1/4 371/1/4
f 371/1/4 370/1/4 372/1/4
f 369/1/4 371/1/4 373/1/4
f 373/1/4 371/1/4 374/1/4
f 369/1/4 373/1/4 375/1/4
f 375/1/4 373/1/4 376/1/4
f 369/1/4 375/1/4 377/1/4
f 377/1/4 375/1/4 378/1/4
f 369/1/4 377/1/4 379/1/4
f 379/1/4 377/1/4 380/1/4
f 385/1/5 382/1/5 381/1/5
f 386/2/5 383/2/5 382/2/5
f 386/1/5 382/1/5 385/1/5
f 387/1/5 384/1/5 383/1/5
f 387/2/5 383/2/5 386/2/5
f 388/1/5 384/1/5 387/1/5
f 393/1/5 390/1/5 389/1/5
f 394/2/5 391/2/5 390/2/5
f 394/1/5 390/1/5 393/1/5
f 395/1/5 392/1/5 391/1/5
f 395/2/5 391/2/5 394/2/5
f 396/1/5 392/1/5 395/1/5
f 401/1/5 398/1/5 397/1/5
f 402/2/5 399/2/5 398/2/5
f 402/1/5 398/1/5 401/1/5
f 403/1/5 400/1/5 399/1/5
f 403/2/5 399/2/5 402/2/5
f 404/1/5 400/1/5 403/1/5
f 409/1/5 406/1/5 405/1/5
f 410/2/5 407/2/5 406/2/5
f 410/1/5 406/1/5 409/1/5
f 411/1/5 408/1/5 407/1/5
f 411/2/5 407/2/5 410/2/5
f 412/1/5 408/1/5 411/1/5
f 417/1/5 414/1/5 413/1/5
f 418/2/5 415/2/5 414/2/5
f 418/1/5 414/1/5 417/1/5
f 419/1/5 416/1/5 415/1/5
f 419/2/5 415/2/5 418/2/5
f 420/1/5 416/1/5 419/1/5
f 425/1/5 422/1/5 421/1/5
f 426/2/5 423/2/5 422/2/5
f 426/1/5 422/1/5 425/1/5
f 427/1/5 424/1/5 423/1/5
f 427/2/5 423/2/5 426/2/5
f 428/1/5 424/1/5 427/1/5
f 433/1/5 430/1/5 429/1/5
f 434/2/5 431/2/5 430/2/5
f 434/1/5 430/1/5 433/1/5
f 435/1/5 432/1/5 431/1/5
f 435/2/5 431/2/5 434/2/5
f 436/1/5 432/1/5 435/1/5
f 441/1/5 438/1/5 437/1/5
f 442/2/5 439/2/5 438/2/5
f 442/1/5 438/1/5 441/1/5
f 443/1/5 440/1/5 439/1/5
f 443/2/5 439/2/5 442/2/5
f 444/1/5 440/1/5 443/1/5
f 449/1/5 446/1/5 445/1/5
f 450/2/5 447/2/5 446/2/5
f 450/1/5 446/1/5 449/1/5
f 451/1/5 448/1/5 447/1/5
f 451/2/5 447/2/5 450/2/5
f 452/1/5 448/1/5 451/1/5
f 457/1/5 454/1/5 453/1/5
f 458/2/5 455/2/5 454/2/5
f 458/1/5 454/1/5 457/1/5
f 459/1/5 456/1/5 455/1/5
f 459/2/5 455/2/5 458/2/5
f 460/1/5 456/1/5 459/1/5
f 465/1/5 462/1/5 461/1/5
f 466/2/5 463/2/5 462/2/5
f 466/1/5 462/1/5 465/1/5
f 467/1/5 464/1/5 463/1/5
f 467/2/5 463/2/5 466/2/5
f 468/1/5 464/1/5 467/1/5
f 473/1/5 470/1/5 469/1/5
f 474/2/5 471/2/5 470/2/5
f 474/1/5 470/1/5 473/1/5
f 475/1/5 472/1/5 471/1/5
f 475/2/5 471/2/5 474/2/5
f 476/1/5 472/1/5 475/1/5
f 481/1/5 478/1/5 477/1/5
f 482/2/5 479/2/5 478/2/5
f 482/1/5 478/1/5 481/1/5
f 483/1/5 480/1/5 479/1/5
f 483/2/5 479/2/5 482/2/5
f 484/1/5 480/1/5 483/1/5
f 489/1/5 486/1/5 485/1/5
f 490/2/5 487/2/5 486/2/5
f 490/1/5 486/1/5 489/1/5
f 491/1/5 488/1/5 487/1/5
f 491/2/5 487/2/5 490/2/5
f 492/1/5 488/1/5 491/1/5
f 497/1/5 494/1/5 493/1/5
f 498/2/5 495/2/5 494/2/5
f 498/1/5 494/1/5 497/1/5
f 499/1/5 496/1/5 495/1/5
f 499/2/5 495/2/5 498/2/5
f 500/1/5 496/1/5 499/1/5
f 505/1/5 502/1/5 501/1/5
f 506/2/5 503/2/5 502/2/5
f 506/1/5 502/1/5 505/1/5
f 507/1/5 504/1/5 503/1/5
f 507/2/5 503/2/5 506/2/5
f 508/1/5 504/1/5 507/1/5
f 513/1/5 510/1/5 509/1/5
f 514/2/5 511/2/5 510/2/5
f 514/1/5 510/1/5 513/1/5
f 515/1/5 512/1/5 511/1/5
f 515/2/5 511/2/5 514/2/5
f 516/1/5 512/1/5 515/1/5
f 521/1/5 518/1/5 517/1/5
f 522/2/5 519/2/5 518/2/5
f 522/1/5 518/1/5 521/1/5
f 523/1/5 520/1/5 519/1/5
f 523/2/5 519/2/5 522/2/5
f 524/1/5 520/1/5 523/1/5
f 529/1/5 526/1/5 525/1/5
f 530/2/5 527/2/5 526/2/5
f 530/1/5 526/1/5 529/1/5
f 531/1/5 528/1/5 527/1/5
f 531/2/5 527/2/5 530/2/5
f 532/1/5 528/1/5 531/1/5
f 537/1/5 534/1/5 533/1/5
f 538/2/5 535/2/5 534/2/5
f 538/1/5 534/1/5 537/1/5
f 539/1/5 536/1/5 535/1/5
f 539/2/5 535/2/5 538/2/5
f 540/1/5 536/1/5 539/1/5
f 541/1/6 542/1/6 545/1/6
f 545/1/6 542/1/6 546/1/6
f 543/1/6 544/1/6 547/1/6
f 547/1/6 544/1/6 548/1/6
f 549/1/6 550/1/6 553/1/6
f 553/1/6 550/1/6 554/1/6
f 551/1/6 552/1/6 555/1/6
f 555/1/6 552/1/6 556/1/6
f 557/1/6 558/1/6 561/1/6
f 561/1/6 558/1/6 562/1/6
f 559/1/6 560/1/6 563/1/6
f 563/1/6 560/1/6 564/1/6
f 565/1/6 566/1/6 569/1/6
f 569/1/6 566/1/6 570/1/6
f 567/1/6 568/1/6 571/1/6
f 571/1/6 568/1/6 572/1/6
f 573/1/6 574/1/6 577/1/6
f 577/1/6 574/1/6 578/1/6
f 575/1/6 576/1/6 579/1/6
f 579/1/6 576/1/6 580/1/6
f 581/1/6 582/1/6 585/1/6
f 585/1/6 582/1/6 586/1/6
f 583/1/6 584/1/6 587/1/6
f 587/1/6 584/1/6 588/1/6
f 589/1/6 590/1/6 593/1/6
f 593/1/6 590/1/6 594/1/6
f 591/1/6 592/1/6 595/1/6
f 595/1/6 592/1/6 596/1/6
f 597/1/6 598/1/6 601/1/6
f 601/1/6 598/1/6 602/1/6
f 599/1/6 600/1/6 603/1/6
f 603/1/6 600/1/6 604/1/6
f 605/1/6 606/1/6 609/1/6
f 606/2/6 607/2/6 610/2/6
f 609/1/6 606/1/6 610/1/6
f 607/1/6 608/1/6 611/1/6
f 610/2/6 607/2/6 611/2/6
f 611/1/6 608/1/6 612/1/6
