# MagicaVoxel @ Ephtracy

# group
o 

# material
mtllib lavaSpurt.mtl
usemtl palette

# normals
vn -1 0 0
vn 1 0 0
vn 0 0 1
vn 0 0 -1
vn 0 -1 0
vn 0 1 0

# texcoords
vt 0.865234 0.5
vt 0.869141 0.5
vt 0.873047 0.5

# verts
v 0 2 -0.5
v 0 2 -0.9
v 0 2.1 -0.5
v 0 2.1 -0.9
v 0.1 2 -0.2
v 0.1 2 -0.5
v 0.1 2 -0.9
v 0.1 2 -1
v 0.1 2.1 -0.2
v 0.1 2.1 -0.5
v 0.1 2.1 -0.7
v 0.1 2.1 -0.8
v 0.1 2.1 -0.9
v 0.1 2.1 -1
v 0.1 2.2 -0.7
v 0.1 2.2 -0.8
v 0.2 2 -0.1
v 0.2 2 -0.2
v 0.2 2 -1
v 0.2 2 -1.1
v 0.2 2.1 -0.1
v 0.2 2.1 -0.2
v 0.2 2.1 -0.4
v 0.2 2.1 -0.5
v 0.2 2.1 -0.7
v 0.2 2.1 -0.8
v 0.2 2.1 -0.9
v 0.2 2.1 -1
v 0.2 2.1 -1.1
v 0.2 2.2 -0.2
v 0.2 2.2 -0.4
v 0.2 2.2 -0.5
v 0.2 2.2 -0.7
v 0.2 2.2 -0.8
v 0.2 2.2 -0.9
v 0.3 2.1 -0.4
v 0.3 2.1 -0.5
v 0.3 2.1 -0.9
v 0.3 2.1 -1
v 0.3 2.2 -0.4
v 0.3 2.2 -0.5
v 0.3 2.2 -0.9
v 0.3 2.2 -1
v 0.4 2 -1.1
v 0.4 2 -1.3
v 0.4 2.1 -1.1
v 0.4 2.1 -1.3
v 0.5 2 0
v 0.5 2 -0.1
v 0.5 2.1 0
v 0.5 2.1 -0.1
v 0.5 2.1 -0.2
v 0.5 2.1 -1
v 0.5 2.1 -1.1
v 0.5 2.2 -0.1
v 0.5 2.2 -0.2
v 0.5 2.2 -1
v 0.5 2.3 -1
v 0.5 2.3 -1.1
v 0.6 2.1 -0.9
v 0.6 2.1 -1
v 0.6 2.2 -0.9
v 0.6 2.2 -1
v 0.8 2.1 -0.9
v 0.8 2.1 -1
v 0.8 2.2 -0.9
v 0.8 2.2 -1
v 0.9 2.1 -1
v 0.9 2.1 -1.1
v 0.9 2.2 -1
v 0.9 2.2 -1.1
v 1 2.1 -0.2
v 1 2.1 -0.3
v 1 2.1 -0.9
v 1 2.1 -1
v 1 2.2 -0.2
v 1 2.2 -0.3
v 1 2.2 -0.9
v 1 2.2 -1
v 1.1 2.1 -0.8
v 1.1 2.1 -0.9
v 1.1 2.2 -0.2
v 1.1 2.2 -0.3
v 1.1 2.2 -0.8
v 1.1 2.2 -0.9
v 1.1 2.3 -0.2
v 1.1 2.3 -0.3
v 1.2 2.1 -0.3
v 1.2 2.1 -0.4
v 1.2 2.1 -0.6
v 1.2 2.1 -0.8
v 1.2 2.2 -0.3
v 1.2 2.2 -0.4
v 1.2 2.2 -0.6
v 1.2 2.2 -0.8
v 1.3 2.1 -0.4
v 1.3 2.1 -0.6
v 1.3 2.2 -0.4
v 1.3 2.2 -0.5
v 1.3 2.2 -0.6
v 1.3 2.3 -0.4
v 1.3 2.3 -0.5
v 0.2 2.1 -0.7
v 0.2 2.1 -0.8
v 0.2 2.2 -0.7
v 0.2 2.2 -0.8
v 0.3 2.1 -0.3
v 0.3 2.1 -0.4
v 0.3 2.1 -0.5
v 0.3 2.1 -0.7
v 0.3 2.1 -0.8
v 0.3 2.1 -0.9
v 0.3 2.2 -0.3
v 0.3 2.2 -0.4
v 0.3 2.2 -0.5
v 0.3 2.2 -0.7
v 0.3 2.2 -0.8
v 0.3 2.2 -0.9
v 0.4 2.1 -0.4
v 0.4 2.1 -0.5
v 0.4 2.2 -0.4
v 0.4 2.2 -0.5
v 0.5 2.1 -0.2
v 0.5 2.1 -0.3
v 0.5 2.1 -0.9
v 0.5 2.1 -1
v 0.5 2.2 -0.2
v 0.5 2.2 -0.3
v 0.5 2.2 -0.9
v 0.5 2.2 -1
v 0.6 2.2 -1
v 0.6 2.2 -1.1
v 0.6 2.3 -1
v 0.6 2.3 -1.1
v 0.7 2.1 -0.9
v 0.7 2.1 -1
v 0.7 2.2 -0.9
v 0.7 2.2 -1
v 0.8 2 -1.2
v 0.8 2 -1.3
v 0.8 2.1 -1
v 0.8 2.1 -1.1
v 0.8 2.1 -1.2
v 0.8 2.1 -1.3
v 0.8 2.2 -1
v 0.8 2.2 -1.1
v 0.9 2.1 -0.9
v 0.9 2.1 -1
v 0.9 2.2 -0.9
v 0.9 2.2 -1
v 1 2 -1.1
v 1 2 -1.2
v 1 2.1 -0.1
v 1 2.1 -0.2
v 1 2.1 -1.1
v 1 2.1 -1.2
v 1 2.2 -0.1
v 1 2.2 -0.2
v 1.1 2.1 -0.9
v 1.1 2.1 -1.1
v 1.1 2.2 -0.9
v 1.1 2.2 -1.1
v 1.2 2 -0.9
v 1.2 2 -1.1
v 1.2 2.1 -0.2
v 1.2 2.1 -0.3
v 1.2 2.1 -0.8
v 1.2 2.1 -0.9
v 1.2 2.1 -1.1
v 1.2 2.2 -0.3
v 1.2 2.2 -0.8
v 1.2 2.2 -0.9
v 1.2 2.3 -0.2
v 1.2 2.3 -0.3
v 1.3 2 0
v 1.3 2 -0.1
v 1.3 2.1 0
v 1.3 2.1 -0.1
v 1.3 2.1 -0.3
v 1.3 2.1 -0.4
v 1.3 2.1 -0.7
v 1.3 2.1 -0.8
v 1.3 2.2 -0.3
v 1.3 2.2 -0.4
v 1.3 2.2 -0.7
v 1.3 2.2 -0.8
v 1.4 2 -0.1
v 1.4 2 -0.2
v 1.4 2.1 -0.1
v 1.4 2.1 -0.2
v 1.4 2.1 -0.4
v 1.4 2.1 -0.7
v 1.4 2.2 -0.5
v 1.4 2.2 -0.7
v 1.4 2.3 -0.4
v 1.4 2.3 -0.5
v 1.5 2 -0.2
v 1.5 2 -0.6
v 1.5 2.1 -0.2
v 1.5 2.1 -0.6
v 1.6 2 -0.6
v 1.6 2 -0.9
v 1.6 2.1 -0.6
v 1.6 2.1 -0.9
v 0.5 2 0
v 0.5 2.1 0
v 1.3 2 0
v 1.3 2.1 0
v 0.2 2 -0.1
v 0.2 2.1 -0.1
v 0.5 2 -0.1
v 0.5 2.1 -0.1
v 0.5 2.2 -0.1
v 1 2.1 -0.1
v 1 2.2 -0.1
v 1.3 2 -0.1
v 1.3 2.1 -0.1
v 1.4 2 -0.1
v 1.4 2.1 -0.1
v 0.1 2 -0.2
v 0.1 2.1 -0.2
v 0.2 2 -0.2
v 0.2 2.1 -0.2
v 0.2 2.2 -0.2
v 0.5 2.1 -0.2
v 0.5 2.2 -0.2
v 1 2.1 -0.2
v 1 2.2 -0.2
v 1.1 2.2 -0.2
v 1.1 2.3 -0.2
v 1.2 2.1 -0.2
v 1.2 2.3 -0.2
v 1.4 2 -0.2
v 1.4 2.1 -0.2
v 1.5 2 -0.2
v 1.5 2.1 -0.2
v 1.2 2.1 -0.3
v 1.2 2.2 -0.3
v 1.3 2.1 -0.3
v 1.3 2.2 -0.3
v 0.3 2.1 -0.4
v 0.3 2.2 -0.4
v 0.4 2.1 -0.4
v 0.4 2.2 -0.4
v 1.3 2.1 -0.4
v 1.3 2.2 -0.4
v 1.3 2.3 -0.4
v 1.4 2.1 -0.4
v 1.4 2.3 -0.4
v 0 2 -0.5
v 0 2.1 -0.5
v 0.1 2 -0.5
v 0.1 2.1 -0.5
v 0.2 2.1 -0.5
v 0.2 2.2 -0.5
v 0.3 2.1 -0.5
v 0.3 2.2 -0.5
v 1.2 2.1 -0.6
v 1.2 2.2 -0.6
v 1.3 2.1 -0.6
v 1.3 2.2 -0.6
v 1.5 2 -0.6
v 1.5 2.1 -0.6
v 1.6 2 -0.6
v 1.6 2.1 -0.6
v 0.1 2.1 -0.7
v 0.1 2.2 -0.7
v 0.2 2.1 -0.7
v 0.2 2.2 -0.7
v 0.2 2.1 -0.8
v 0.2 2.2 -0.8
v 0.3 2.1 -0.8
v 0.3 2.2 -0.8
v 1.1 2.1 -0.8
v 1.1 2.2 -0.8
v 1.2 2.1 -0.8
v 1.2 2.2 -0.8
v 0.3 2.1 -0.9
v 0.3 2.2 -0.9
v 0.5 2.1 -0.9
v 0.5 2.2 -0.9
v 0.6 2.1 -0.9
v 0.6 2.2 -0.9
v 0.7 2.1 -0.9
v 0.7 2.2 -0.9
v 0.8 2.1 -0.9
v 0.8 2.2 -0.9
v 0.9 2.1 -0.9
v 0.9 2.2 -0.9
v 1 2.1 -0.9
v 1 2.2 -0.9
v 1.1 2.1 -0.9
v 1.1 2.2 -0.9
v 0.5 2.1 -1
v 0.5 2.2 -1
v 0.5 2.3 -1
v 0.6 2.1 -1
v 0.6 2.2 -1
v 0.6 2.3 -1
v 0.7 2.1 -1
v 0.7 2.2 -1
v 0.8 2.1 -1
v 0.8 2.2 -1
v 0.9 2.1 -1
v 0.9 2.2 -1
v 1 2.1 -1
v 1 2.2 -1
v 0.5 2.1 -0.2
v 0.5 2.2 -0.2
v 1 2.1 -0.2
v 1 2.2 -0.2
v 0.3 2.1 -0.3
v 0.3 2.2 -0.3
v 0.5 2.1 -0.3
v 0.5 2.2 -0.3
v 1 2.1 -0.3
v 1 2.2 -0.3
v 1.1 2.2 -0.3
v 1.1 2.3 -0.3
v 1.2 2.1 -0.3
v 1.2 2.2 -0.3
v 1.2 2.3 -0.3
v 0.2 2.1 -0.4
v 0.2 2.2 -0.4
v 0.3 2.1 -0.4
v 0.3 2.2 -0.4
v 1.2 2.1 -0.4
v 1.2 2.2 -0.4
v 1.3 2.1 -0.4
v 1.3 2.2 -0.4
v 0.3 2.1 -0.5
v 0.3 2.2 -0.5
v 0.4 2.1 -0.5
v 0.4 2.2 -0.5
v 1.3 2.2 -0.5
v 1.3 2.3 -0.5
v 1.4 2.2 -0.5
v 1.4 2.3 -0.5
v 0.2 2.1 -0.7
v 0.2 2.2 -0.7
v 0.3 2.1 -0.7
v 0.3 2.2 -0.7
v 1.3 2.1 -0.7
v 1.3 2.2 -0.7
v 1.4 2.1 -0.7
v 1.4 2.2 -0.7
v 0.1 2.1 -0.8
v 0.1 2.2 -0.8
v 0.2 2.1 -0.8
v 0.2 2.2 -0.8
v 1.2 2.1 -0.8
v 1.2 2.2 -0.8
v 1.3 2.1 -0.8
v 1.3 2.2 -0.8
v 0 2 -0.9
v 0 2.1 -0.9
v 0.1 2 -0.9
v 0.1 2.1 -0.9
v 0.2 2.1 -0.9
v 0.2 2.2 -0.9
v 0.3 2.1 -0.9
v 0.3 2.2 -0.9
v 1.1 2.1 -0.9
v 1.1 2.2 -0.9
v 1.2 2 -0.9
v 1.2 2.1 -0.9
v 1.2 2.2 -0.9
v 1.6 2 -0.9
v 1.6 2.1 -0.9
v 0.1 2 -1
v 0.1 2.1 -1
v 0.2 2 -1
v 0.2 2.1 -1
v 0.3 2.1 -1
v 0.3 2.2 -1
v 0.5 2.1 -1
v 0.5 2.2 -1
v 0.8 2.1 -1
v 0.8 2.2 -1
v 0.9 2.1 -1
v 0.9 2.2 -1
v 0.2 2 -1.1
v 0.2 2.1 -1.1
v 0.4 2 -1.1
v 0.4 2.1 -1.1
v 0.5 2.1 -1.1
v 0.5 2.3 -1.1
v 0.6 2.2 -1.1
v 0.6 2.3 -1.1
v 0.8 2.1 -1.1
v 0.8 2.2 -1.1
v 0.9 2.1 -1.1
v 0.9 2.2 -1.1
v 1 2 -1.1
v 1 2.1 -1.1
v 1.1 2.1 -1.1
v 1.1 2.2 -1.1
v 1.2 2 -1.1
v 1.2 2.1 -1.1
v 0.8 2 -1.2
v 0.8 2.1 -1.2
v 1 2 -1.2
v 1 2.1 -1.2
v 0.4 2 -1.3
v 0.4 2.1 -1.3
v 0.8 2 -1.3
v 0.8 2.1 -1.3
v 0.5 2 0
v 1.3 2 0
v 0.2 2 -0.1
v 0.5 2 -0.1
v 1.3 2 -0.1
v 1.4 2 -0.1
v 0.1 2 -0.2
v 0.2 2 -0.2
v 0.5 2 -0.2
v 1 2 -0.2
v 1.4 2 -0.2
v 1.5 2 -0.2
v 0.3 2 -0.3
v 0.5 2 -0.3
v 1 2 -0.3
v 1.3 2 -0.3
v 0 2 -0.5
v 0.1 2 -0.5
v 0.2 2 -0.6
v 0.3 2 -0.6
v 1.2 2 -0.6
v 1.3 2 -0.6
v 1.5 2 -0.6
v 1.6 2 -0.6
v 0.2 2 -0.8
v 0.3 2 -0.8
v 1.1 2 -0.8
v 1.2 2 -0.8
v 0 2 -0.9
v 0.1 2 -0.9
v 0.3 2 -0.9
v 0.5 2 -0.9
v 1 2 -0.9
v 1.1 2 -0.9
v 1.2 2 -0.9
v 1.6 2 -0.9
v 0.1 2 -1
v 0.2 2 -1
v 0.5 2 -1
v 1 2 -1
v 0.2 2 -1.1
v 0.4 2 -1.1
v 1 2 -1.1
v 1.2 2 -1.1
v 0.8 2 -1.2
v 1 2 -1.2
v 0.4 2 -1.3
v 0.8 2 -1.3
v 0.5 2.1 0
v 1.3 2.1 0
v 0.2 2.1 -0.1
v 0.5 2.1 -0.1
v 1 2.1 -0.1
v 1.3 2.1 -0.1
v 1.4 2.1 -0.1
v 0.1 2.1 -0.2
v 0.2 2.1 -0.2
v 0.5 2.1 -0.2
v 1 2.1 -0.2
v 1.2 2.1 -0.2
v 1.4 2.1 -0.2
v 1.5 2.1 -0.2
v 0.3 2.1 -0.3
v 0.5 2.1 -0.3
v 1 2.1 -0.3
v 1.2 2.1 -0.3
v 1.3 2.1 -0.3
v 0.2 2.1 -0.4
v 0.3 2.1 -0.4
v 0.4 2.1 -0.4
v 1.2 2.1 -0.4
v 1.3 2.1 -0.4
v 1.4 2.1 -0.4
v 0 2.1 -0.5
v 0.1 2.1 -0.5
v 0.2 2.1 -0.5
v 0.3 2.1 -0.5
v 0.4 2.1 -0.5
v 1.2 2.1 -0.6
v 1.3 2.1 -0.6
v 1.5 2.1 -0.6
v 1.6 2.1 -0.6
v 0.1 2.1 -0.7
v 0.2 2.1 -0.7
v 0.3 2.1 -0.7
v 1.3 2.1 -0.7
v 1.4 2.1 -0.7
v 0.1 2.1 -0.8
v 0.2 2.1 -0.8
v 0.3 2.1 -0.8
v 1.1 2.1 -0.8
v 1.2 2.1 -0.8
v 1.3 2.1 -0.8
v 0 2.1 -0.9
v 0.1 2.1 -0.9
v 0.2 2.1 -0.9
v 0.3 2.1 -0.9
v 0.5 2.1 -0.9
v 0.6 2.1 -0.9
v 0.7 2.1 -0.9
v 0.8 2.1 -0.9
v 0.9 2.1 -0.9
v 1 2.1 -0.9
v 1.1 2.1 -0.9
v 1.2 2.1 -0.9
v 1.6 2.1 -0.9
v 0.1 2.1 -1
v 0.2 2.1 -1
v 0.3 2.1 -1
v 0.5 2.1 -1
v 0.6 2.1 -1
v 0.7 2.1 -1
v 0.8 2.1 -1
v 0.9 2.1 -1
v 1 2.1 -1
v 0.2 2.1 -1.1
v 0.4 2.1 -1.1
v 0.5 2.1 -1.1
v 0.8 2.1 -1.1
v 0.9 2.1 -1.1
v 1 2.1 -1.1
v 1.1 2.1 -1.1
v 1.2 2.1 -1.1
v 0.8 2.1 -1.2
v 1 2.1 -1.2
v 0.4 2.1 -1.3
v 0.8 2.1 -1.3
v 0.5 2.2 -0.1
v 1 2.2 -0.1
v 0.2 2.2 -0.2
v 0.5 2.2 -0.2
v 1 2.2 -0.2
v 1.1 2.2 -0.2
v 0.3 2.2 -0.3
v 0.5 2.2 -0.3
v 1 2.2 -0.3
v 1.1 2.2 -0.3
v 1.2 2.2 -0.3
v 1.3 2.2 -0.3
v 0.2 2.2 -0.4
v 0.3 2.2 -0.4
v 0.4 2.2 -0.4
v 1.2 2.2 -0.4
v 1.3 2.2 -0.4
v 0.2 2.2 -0.5
v 0.3 2.2 -0.5
v 0.4 2.2 -0.5
v 1.3 2.2 -0.5
v 1.4 2.2 -0.5
v 1.2 2.2 -0.6
v 1.3 2.2 -0.6
v 0.1 2.2 -0.7
v 0.2 2.2 -0.7
v 0.3 2.2 -0.7
v 1.3 2.2 -0.7
v 1.4 2.2 -0.7
v 0.1 2.2 -0.8
v 0.2 2.2 -0.8
v 0.3 2.2 -0.8
v 1.1 2.2 -0.8
v 1.2 2.2 -0.8
v 1.3 2.2 -0.8
v 0.2 2.2 -0.9
v 0.3 2.2 -0.9
v 0.5 2.2 -0.9
v 0.6 2.2 -0.9
v 0.7 2.2 -0.9
v 0.8 2.2 -0.9
v 0.9 2.2 -0.9
v 1 2.2 -0.9
v 1.1 2.2 -0.9
v 1.2 2.2 -0.9
v 0.3 2.2 -1
v 0.5 2.2 -1
v 0.6 2.2 -1
v 0.7 2.2 -1
v 0.8 2.2 -1
v 0.9 2.2 -1
v 1 2.2 -1
v 0.6 2.2 -1.1
v 0.8 2.2 -1.1
v 0.9 2.2 -1.1
v 1.1 2.2 -1.1
v 1.1 2.3 -0.2
v 1.2 2.3 -0.2
v 1.1 2.3 -0.3
v 1.2 2.3 -0.3
v 1.3 2.3 -0.4
v 1.4 2.3 -0.4
v 1.3 2.3 -0.5
v 1.4 2.3 -0.5
v 0.5 2.3 -1
v 0.6 2.3 -1
v 0.5 2.3 -1.1
v 0.6 2.3 -1.1

# faces
f 3/2/1 2/2/1 1/2/1
f 4/2/1 2/2/1 3/2/1
f 9/2/1 6/2/1 5/2/1
f 10/2/1 6/2/1 9/2/1
f 13/2/1 8/2/1 7/2/1
f 14/2/1 8/2/1 13/2/1
f 15/1/1 12/1/1 11/1/1
f 16/1/1 12/1/1 15/1/1
f 21/2/1 18/2/1 17/2/1
f 22/2/1 18/2/1 21/2/1
f 28/2/1 20/2/1 19/2/1
f 29/2/1 20/2/1 28/2/1
f 30/1/1 23/1/1 22/1/1
f 31/1/1 23/1/1 30/1/1
f 32/1/1 25/1/1 24/1/1
f 33/1/1 25/1/1 32/1/1
f 34/1/1 27/1/1 26/1/1
f 35/1/1 27/1/1 34/1/1
f 40/1/1 37/1/1 36/1/1
f 41/1/1 37/1/1 40/1/1
f 42/1/1 39/1/1 38/1/1
f 43/1/1 39/1/1 42/1/1
f 46/2/1 45/2/1 44/2/1
f 47/2/1 45/2/1 46/2/1
f 50/2/1 49/2/1 48/2/1
f 51/2/1 49/2/1 50/2/1
f 55/1/1 52/1/1 51/1/1
f 56/1/1 52/1/1 55/1/1
f 57/1/1 54/1/1 53/1/1
f 58/1/1 54/1/1 57/1/1
f 59/1/1 54/1/1 58/1/1
f 62/1/1 61/1/1 60/1/1
f 63/1/1 61/1/1 62/1/1
f 66/1/1 65/1/1 64/1/1
f 67/1/1 65/1/1 66/1/1
f 70/1/1 69/1/1 68/1/1
f 71/1/1 69/1/1 70/1/1
f 76/1/1 73/1/1 72/1/1
f 77/1/1 73/1/1 76/1/1
f 78/1/1 75/1/1 74/1/1
f 79/1/1 75/1/1 78/1/1
f 84/1/1 81/1/1 80/1/1
f 85/1/1 81/1/1 84/1/1
f 86/1/1 83/1/1 82/1/1
f 87/1/1 83/1/1 86/1/1
f 92/1/1 89/1/1 88/1/1
f 93/1/1 89/1/1 92/1/1
f 94/1/1 91/1/1 90/1/1
f 95/1/1 91/1/1 94/1/1
f 98/1/1 97/1/1 96/1/1
f 99/1/1 97/1/1 98/1/1
f 100/1/1 97/1/1 99/1/1
f 101/1/1 99/1/1 98/1/1
f 102/1/1 99/1/1 101/1/1
f 103/1/2 104/1/2 105/1/2
f 105/1/2 104/1/2 106/1/2
f 107/1/2 108/1/2 113/1/2
f 113/1/2 108/1/2 114/1/2
f 109/1/2 110/1/2 115/1/2
f 115/1/2 110/1/2 116/1/2
f 111/1/2 112/1/2 117/1/2
f 117/1/2 112/1/2 118/1/2
f 119/1/2 120/1/2 121/1/2
f 121/1/2 120/1/2 122/1/2
f 123/1/2 124/1/2 127/1/2
f 127/1/2 124/1/2 128/1/2
f 125/1/2 126/1/2 129/1/2
f 129/1/2 126/1/2 130/1/2
f 131/1/2 132/1/2 133/1/2
f 133/1/2 132/1/2 134/1/2
f 135/1/2 136/1/2 137/1/2
f 137/1/2 136/1/2 138/1/2
f 139/2/2 140/2/2 143/2/2
f 143/2/2 140/2/2 144/2/2
f 141/1/2 142/1/2 145/1/2
f 145/1/2 142/1/2 146/1/2
f 147/1/2 148/1/2 149/1/2
f 149/1/2 148/1/2 150/1/2
f 151/2/2 152/2/2 155/2/2
f 155/2/2 152/2/2 156/2/2
f 153/1/2 154/1/2 157/1/2
f 157/1/2 154/1/2 158/1/2
f 159/1/2 160/1/2 161/1/2
f 161/1/2 160/1/2 162/1/2
f 163/2/2 164/2/2 168/2/2
f 168/2/2 164/2/2 169/2/2
f 165/1/2 166/1/2 170/1/2
f 167/1/2 168/1/2 171/1/2
f 171/1/2 168/1/2 172/1/2
f 165/1/2 170/1/2 173/1/2
f 173/1/2 170/1/2 174/1/2
f 175/2/2 176/2/2 177/2/2
f 177/2/2 176/2/2 178/2/2
f 179/1/2 180/1/2 183/1/2
f 183/1/2 180/1/2 184/1/2
f 181/1/2 182/1/2 185/1/2
f 185/1/2 182/1/2 186/1/2
f 187/2/2 188/2/2 189/2/2
f 189/2/2 188/2/2 190/2/2
f 191/1/2 192/1/2 193/1/2
f 193/1/2 192/1/2 194/1/2
f 191/1/2 193/1/2 195/1/2
f 195/1/2 193/1/2 196/1/2
f 197/2/2 198/2/2 199/2/2
f 199/2/2 198/2/2 200/2/2
f 201/2/2 202/2/2 203/2/2
f 203/2/2 202/2/2 204/2/2
f 207/2/3 206/2/3 205/2/3
f 208/2/3 206/2/3 207/2/3
f 211/2/3 210/2/3 209/2/3
f 212/2/3 210/2/3 211/2/3
f 214/1/3 213/1/3 212/1/3
f 215/1/3 213/1/3 214/1/3
f 218/2/3 217/2/3 216/2/3
f 219/2/3 217/2/3 218/2/3
f 222/2/3 221/2/3 220/2/3
f 223/2/3 221/2/3 222/2/3
f 225/1/3 224/1/3 223/1/3
f 226/1/3 224/1/3 225/1/3
f 229/1/3 228/1/3 227/1/3
f 231/1/3 229/1/3 227/1/3
f 231/1/3 230/1/3 229/1/3
f 232/1/3 230/1/3 231/1/3
f 235/2/3 234/2/3 233/2/3
f 236/2/3 234/2/3 235/2/3
f 239/1/3 238/1/3 237/1/3
f 240/1/3 238/1/3 239/1/3
f 243/1/3 242/1/3 241/1/3
f 244/1/3 242/1/3 243/1/3
f 248/1/3 246/1/3 245/1/3
f 248/1/3 247/1/3 246/1/3
f 249/1/3 247/1/3 248/1/3
f 252/2/3 251/2/3 250/2/3
f 253/2/3 251/2/3 252/2/3
f 256/1/3 255/1/3 254/1/3
f 257/1/3 255/1/3 256/1/3
f 260/1/3 259/1/3 258/1/3
f 261/1/3 259/1/3 260/1/3
f 264/2/3 263/2/3 262/2/3
f 265/2/3 263/2/3 264/2/3
f 268/1/3 267/1/3 266/1/3
f 269/1/3 267/1/3 268/1/3
f 272/1/3 271/1/3 270/1/3
f 273/1/3 271/1/3 272/1/3
f 276/1/3 275/1/3 274/1/3
f 277/1/3 275/1/3 276/1/3
f 280/1/3 279/1/3 278/1/3
f 281/1/3 279/1/3 280/1/3
f 284/1/3 283/1/3 282/1/3
f 285/1/3 283/1/3 284/1/3
f 288/1/3 287/1/3 286/1/3
f 289/1/3 287/1/3 288/1/3
f 292/1/3 291/1/3 290/1/3
f 293/1/3 291/1/3 292/1/3
f 297/1/3 295/1/3 294/1/3
f 297/1/3 296/1/3 295/1/3
f 298/1/3 296/1/3 297/1/3
f 299/1/3 296/1/3 298/1/3
f 302/1/3 301/1/3 300/1/3
f 303/1/3 301/1/3 302/1/3
f 306/1/3 305/1/3 304/1/3
f 307/1/3 305/1/3 306/1/3
f 308/1/4 309/1/4 310/1/4
f 310/1/4 309/1/4 311/1/4
f 312/1/4 313/1/4 314/1/4
f 314/1/4 313/1/4 315/1/4
f 316/1/4 317/1/4 318/1/4
f 316/1/4 318/1/4 320/1/4
f 318/1/4 319/1/4 320/1/4
f 320/1/4 319/1/4 321/1/4
f 321/1/4 319/1/4 322/1/4
f 323/1/4 324/1/4 325/1/4
f 325/1/4 324/1/4 326/1/4
f 327/1/4 328/1/4 329/1/4
f 329/1/4 328/1/4 330/1/4
f 331/1/4 332/1/4 333/1/4
f 333/1/4 332/1/4 334/1/4
f 335/1/4 336/1/4 337/1/4
f 337/1/4 336/1/4 338/1/4
f 339/1/4 340/1/4 341/1/4
f 341/1/4 340/1/4 342/1/4
f 343/1/4 344/1/4 345/1/4
f 345/1/4 344/1/4 346/1/4
f 347/1/4 348/1/4 349/1/4
f 349/1/4 348/1/4 350/1/4
f 351/1/4 352/1/4 353/1/4
f 353/1/4 352/1/4 354/1/4
f 355/2/4 356/2/4 357/2/4
f 357/2/4 356/2/4 358/2/4
f 359/1/4 360/1/4 361/1/4
f 361/1/4 360/1/4 362/1/4
f 363/1/4 364/1/4 366/1/4
f 366/1/4 364/1/4 367/1/4
f 365/2/4 366/2/4 368/2/4
f 368/2/4 366/2/4 369/2/4
f 370/2/4 371/2/4 372/2/4
f 372/2/4 371/2/4 373/2/4
f 374/1/4 375/1/4 376/1/4
f 376/1/4 375/1/4 377/1/4
f 378/1/4 379/1/4 380/1/4
f 380/1/4 379/1/4 381/1/4
f 382/2/4 383/2/4 384/2/4
f 384/2/4 383/2/4 385/2/4
f 386/1/4 387/1/4 388/1/4
f 388/1/4 387/1/4 389/1/4
f 386/1/4 388/1/4 390/1/4
f 390/1/4 388/1/4 391/1/4
f 392/1/4 393/1/4 395/1/4
f 395/1/4 393/1/4 396/1/4
f 394/2/4 395/2/4 396/2/4
f 396/1/4 393/1/4 397/1/4
f 394/2/4 396/2/4 398/2/4
f 398/2/4 396/2/4 399/2/4
f 400/2/4 401/2/4 402/2/4
f 402/2/4 401/2/4 403/2/4
f 404/2/4 405/2/4 406/2/4
f 406/2/4 405/2/4 407/2/4
f 411/2/5 409/2/5 408/2/5
f 412/2/5 409/2/5 411/2/5
f 415/2/5 411/2/5 410/2/5
f 415/2/5 413/2/5 412/2/5
f 415/2/5 412/2/5 411/2/5
f 416/2/5 413/2/5 415/2/5
f 417/2/5 413/2/5 416/2/5
f 418/2/5 413/2/5 417/2/5
f 420/2/5 415/2/5 414/2/5
f 420/2/5 416/2/5 415/2/5
f 421/3/5 417/3/5 416/3/5
f 421/2/5 416/2/5 420/2/5
f 422/2/5 419/2/5 418/2/5
f 422/3/5 417/3/5 421/3/5
f 422/2/5 418/2/5 417/2/5
f 423/2/5 419/2/5 422/2/5
f 425/2/5 420/2/5 414/2/5
f 426/2/5 420/2/5 425/2/5
f 426/2/5 425/2/5 424/2/5
f 427/3/5 421/3/5 420/3/5
f 427/2/5 420/2/5 426/2/5
f 427/3/5 422/3/5 421/3/5
f 427/3/5 423/3/5 422/3/5
f 428/3/5 423/3/5 427/3/5
f 429/2/5 419/2/5 423/2/5
f 429/3/5 423/3/5 428/3/5
f 430/2/5 419/2/5 429/2/5
f 432/2/5 426/2/5 424/2/5
f 432/3/5 428/3/5 427/3/5
f 432/3/5 427/3/5 426/3/5
f 433/3/5 428/3/5 432/3/5
f 434/3/5 428/3/5 433/3/5
f 435/2/5 431/2/5 430/2/5
f 435/3/5 428/3/5 434/3/5
f 435/2/5 430/2/5 429/2/5
f 435/2/5 429/2/5 428/2/5
f 436/2/5 433/2/5 432/2/5
f 436/2/5 432/2/5 424/2/5
f 437/2/5 433/2/5 436/2/5
f 438/3/5 434/3/5 433/3/5
f 438/2/5 433/2/5 437/2/5
f 439/3/5 434/3/5 438/3/5
f 440/3/5 434/3/5 439/3/5
f 441/2/5 435/2/5 434/2/5
f 441/3/5 434/3/5 440/3/5
f 442/2/5 431/2/5 435/2/5
f 442/2/5 435/2/5 441/2/5
f 443/2/5 431/2/5 442/2/5
f 444/2/5 438/2/5 437/2/5
f 444/2/5 439/2/5 438/2/5
f 445/2/5 439/2/5 444/2/5
f 446/3/5 440/3/5 439/3/5
f 446/2/5 439/2/5 445/2/5
f 447/2/5 441/2/5 440/2/5
f 447/3/5 440/3/5 446/3/5
f 447/2/5 442/2/5 441/2/5
f 448/2/5 446/2/5 445/2/5
f 448/2/5 447/2/5 446/2/5
f 449/2/5 447/2/5 448/2/5
f 450/2/5 442/2/5 447/2/5
f 450/2/5 447/2/5 449/2/5
f 451/2/5 442/2/5 450/2/5
f 452/2/5 450/2/5 449/2/5
f 453/2/5 450/2/5 452/2/5
f 454/2/5 452/2/5 449/2/5
f 455/2/5 452/2/5 454/2/5
f 456/2/6 457/2/6 459/2/6
f 459/2/6 457/2/6 460/2/6
f 460/2/6 457/2/6 461/2/6
f 458/2/6 459/2/6 464/2/6
f 464/2/6 459/2/6 465/2/6
f 460/2/6 461/2/6 466/2/6
f 461/2/6 462/2/6 466/2/6
f 466/2/6 462/2/6 467/2/6
f 467/2/6 462/2/6 468/2/6
f 465/3/6 466/3/6 471/3/6
f 471/3/6 466/3/6 472/3/6
f 468/2/6 469/2/6 473/2/6
f 467/2/6 468/2/6 473/2/6
f 473/2/6 469/2/6 474/2/6
f 463/2/6 464/2/6 475/2/6
f 471/3/6 472/3/6 476/3/6
f 470/3/6 471/3/6 476/3/6
f 472/3/6 473/3/6 476/3/6
f 476/3/6 473/3/6 477/3/6
f 477/3/6 473/3/6 478/3/6
f 474/2/6 469/2/6 479/2/6
f 479/2/6 469/2/6 480/2/6
f 463/2/6 475/2/6 482/2/6
f 475/2/6 476/2/6 482/2/6
f 482/2/6 476/2/6 483/2/6
f 483/2/6 476/2/6 484/2/6
f 478/3/6 479/3/6 485/3/6
f 477/3/6 478/3/6 485/3/6
f 484/3/6 485/3/6 486/3/6
f 485/3/6 479/3/6 486/3/6
f 486/3/6 479/3/6 487/3/6
f 480/2/6 469/2/6 488/2/6
f 482/2/6 483/2/6 490/2/6
f 481/2/6 482/2/6 490/2/6
f 490/2/6 483/2/6 491/2/6
f 484/3/6 486/3/6 492/3/6
f 488/2/6 489/2/6 494/2/6
f 480/2/6 488/2/6 494/2/6
f 481/2/6 490/2/6 495/2/6
f 491/3/6 492/3/6 496/3/6
f 492/3/6 486/3/6 497/3/6
f 496/3/6 492/3/6 497/3/6
f 497/3/6 486/3/6 498/3/6
f 498/3/6 486/3/6 499/3/6
f 493/2/6 494/2/6 500/2/6
f 481/2/6 495/2/6 501/2/6
f 495/2/6 496/2/6 501/2/6
f 501/2/6 496/2/6 502/2/6
f 502/2/6 496/2/6 503/2/6
f 497/3/6 498/3/6 504/3/6
f 504/3/6 498/3/6 505/3/6
f 505/3/6 498/3/6 506/3/6
f 506/3/6 498/3/6 507/3/6
f 507/3/6 498/3/6 508/3/6
f 508/3/6 498/3/6 509/3/6
f 509/3/6 498/3/6 510/3/6
f 510/3/6 498/3/6 511/3/6
f 499/2/6 500/2/6 512/2/6
f 500/2/6 494/2/6 513/2/6
f 494/2/6 489/2/6 513/2/6
f 512/2/6 500/2/6 513/2/6
f 502/2/6 503/2/6 514/2/6
f 503/2/6 504/2/6 514/2/6
f 514/2/6 504/2/6 515/2/6
f 515/2/6 504/2/6 516/2/6
f 505/3/6 506/3/6 517/3/6
f 517/3/6 506/3/6 518/3/6
f 507/3/6 508/3/6 519/3/6
f 519/3/6 508/3/6 520/3/6
f 509/3/6 510/3/6 521/3/6
f 521/3/6 510/3/6 522/3/6
f 515/2/6 516/2/6 523/2/6
f 516/2/6 517/2/6 523/2/6
f 523/2/6 517/2/6 524/2/6
f 524/2/6 517/2/6 525/2/6
f 520/2/6 521/2/6 526/2/6
f 526/2/6 521/2/6 527/2/6
f 511/2/6 512/2/6 529/2/6
f 529/2/6 512/2/6 530/2/6
f 527/2/6 528/2/6 531/2/6
f 526/2/6 527/2/6 531/2/6
f 524/2/6 525/2/6 531/2/6
f 525/2/6 526/2/6 531/2/6
f 531/2/6 528/2/6 532/2/6
f 524/2/6 531/2/6 533/2/6
f 533/2/6 531/2/6 534/2/6
f 535/1/6 536/1/6 538/1/6
f 538/1/6 536/1/6 539/1/6
f 537/1/6 538/1/6 541/1/6
f 541/1/6 538/1/6 542/1/6
f 539/1/6 540/1/6 543/1/6
f 543/1/6 540/1/6 544/1/6
f 537/1/6 541/1/6 547/1/6
f 547/1/6 541/1/6 548/1/6
f 545/1/6 546/1/6 550/1/6
f 550/1/6 546/1/6 551/1/6
f 548/1/6 549/1/6 553/1/6
f 553/1/6 549/1/6 554/1/6
f 555/1/6 556/1/6 558/1/6
f 552/1/6 553/1/6 560/1/6
f 560/1/6 553/1/6 561/1/6
f 557/1/6 558/1/6 562/1/6
f 558/1/6 556/1/6 562/1/6
f 562/1/6 556/1/6 563/1/6
f 559/1/6 560/1/6 564/1/6
f 564/1/6 560/1/6 565/1/6
f 557/1/6 562/1/6 568/1/6
f 568/1/6 562/1/6 569/1/6
f 565/1/6 566/1/6 570/1/6
f 570/1/6 566/1/6 571/1/6
f 567/1/6 568/1/6 578/1/6
f 578/1/6 568/1/6 579/1/6
f 571/1/6 572/1/6 580/1/6
f 580/1/6 572/1/6 581/1/6
f 573/1/6 574/1/6 582/1/6
f 582/1/6 574/1/6 583/1/6
f 575/1/6 576/1/6 584/1/6
f 584/1/6 576/1/6 585/1/6
f 577/1/6 578/1/6 586/1/6
f 582/1/6 583/1/6 587/1/6
f 583/1/6 584/1/6 587/1/6
f 587/1/6 584/1/6 588/1/6
f 585/1/6 586/1/6 589/1/6
f 586/1/6 578/1/6 590/1/6
f 589/1/6 586/1/6 590/1/6
f 591/1/6 592/1/6 593/1/6
f 593/1/6 592/1/6 594/1/6
f 595/1/6 596/1/6 597/1/6
f 597/1/6 596/1/6 598/1/6
f 599/1/6 600/1/6 601/1/6
f 601/1/6 600/1/6 602/1/6
